SplineFontDB: 3.0
FontName: Fishmonger-Bold
FullName: Fishmonger Bold
FamilyName: Fishmonger
Weight: Bold
Copyright: (cc)
Version: 001.001
ItalicAngle: 0
UnderlinePosition: 0
UnderlineWidth: 0
Ascent: 780
Descent: 220
sfntRevision: 0x00010042
LayerCount: 2
Layer: 0 0 "Back"  1
Layer: 1 0 "Fore"  0
XUID: [1021 588 1133928653 8993429]
FSType: 0
OS2Version: 2
OS2_WeightWidthSlopeOnly: 0
OS2_UseTypoMetrics: 1
CreationTime: 1185377369
ModificationTime: 1360583959
PfmFamily: 17
TTFWeight: 700
TTFWidth: 2
LineGap: 200
VLineGap: 0
Panose: 2 0 7 8 0 0 0 2 0 3
OS2TypoAscent: 0
OS2TypoAOffset: 1
OS2TypoDescent: 0
OS2TypoDOffset: 1
OS2TypoLinegap: 200
OS2WinAscent: -63
OS2WinAOffset: 1
OS2WinDescent: 6
OS2WinDOffset: 1
HheadAscent: -183
HheadAOffset: 1
HheadDescent: 74
HheadDOffset: 1
OS2SubXSize: 700
OS2SubYSize: 650
OS2SubXOff: 0
OS2SubYOff: 140
OS2SupXSize: 700
OS2SupYSize: 650
OS2SupXOff: 0
OS2SupYOff: 477
OS2StrikeYSize: 50
OS2StrikeYPos: 250
OS2Vendor: 'MaPm'
OS2CodePages: 20000193.4d000000
OS2UnicodeRanges: 800000af.5000204a.00000000.00000000
Lookup: 6 0 0 "'frac' Diagonal Fractions in Latin lookup 0"  {"'frac' Diagonal Fractions in Latin lookup 0 contextual 0"  "'frac' Diagonal Fractions in Latin lookup 0 contextual 1"  "'frac' Diagonal Fractions in Latin lookup 0 contextual 2"  "'frac' Diagonal Fractions in Latin lookup 0 contextual 3"  "'frac' Diagonal Fractions in Latin lookup 0 contextual 4"  } ['frac' ('latn' <'dflt' > ) ]
Lookup: 4 0 1 "'liga' Standard Ligatures in Latin lookup 1"  {"'liga' Standard Ligatures in Latin lookup 1 subtable"  } ['liga' ('latn' <'dflt' > ) ]
Lookup: 4 0 1 "'liga' Standard Ligatures in Latin lookup 2"  {"'liga' Standard Ligatures in Latin lookup 2 subtable"  } ['liga' ('latn' <'TRK ' 'dflt' > ) ]

StartChar: at
Encoding: 64 64 4
Width: 852
Flags: MW
HStem: -196 136<158 607 245 607 607 626.5 245 649> -20 20G<469 563 469 469> 369 136<225.5 245 245 409>
VStem: 50 136<-21.5 -2 -2 312> 246 143<135.5 146 146 177 135.5 227 135.5 257> 451 154<24 42 115 208 208 208 298 327 327 342.5> 666 136<-2 465>
LayerCount: 2
Fore
SplineSet
409 369 m 2
 245 369 l 2
 206 369 186 350 186 312 c 2
 186 -2 l 2
 186 -41 206 -60 245 -60 c 2
 607 -60 l 2
 646 -60 666 -41 666 -2 c 2
 666 465 l 2
 666 492 679 505 706 505 c 2
 762 505 l 2
 789 505 802 492 802 465 c 2
 802 -42 l 2
 802 -134 740 -196 649 -196 c 2
 203 -196 l 2
 113 -196 50 -134 50 -43 c 2
 50 351 l 2
 50 442 113 505 203 505 c 2
 491 505 l 2
 562 505 605 466 605 386 c 2
 605 42 l 2
 605 14 591 0 563 0 c 2
 469 0 l 1
 451 24 l 1
 363 1 l 2
 354 -2 344 -3 337 -3 c 0
 286 -3 246 35 246 95 c 2
 246 227 l 2
 246 287 286 325 337 325 c 0
 344 325 354 324 363 321 c 2
 451 298 l 1
 451 327 l 2
 451 358 438 369 409 369 c 2
451 208 m 1
 420 208 l 2
 399 208 389 198 389 177 c 2
 389 146 l 2
 389 125 399 115 420 115 c 2
 451 115 l 1
 451 208 l 1
EndSplineSet
EndChar

StartChar: A
Encoding: 65 65 5
Width: 531
Flags: MW
HStem: 0 21G<47 57 57 127 388.5 397 397 476> 140 136<191.5 319 205 319 205 327> 702 20G<171 361 361 370.5>
LayerCount: 2
Fore
SplineSet
171 722 m 2
 361 722 l 2
 380 722 393 709 396 692 c 2
 511 43 l 2
 515 19 496 0 476 0 c 2
 397 0 l 2
 380 0 365 11 362 30 c 2
 345 125 l 2
 344 133 336 140 327 140 c 2
 196 140 l 2
 187 140 182 135 179 124 c 2
 162 30 l 2
 159 13 146 0 127 0 c 2
 57 0 l 2
 37 0 17 18 21 42 c 2
 136 692 l 2
 139 709 154 722 171 722 c 2
319 276 m 1
 262 596 l 1
 205 276 l 1
 319 276 l 1
EndSplineSet
Position2: "'cpsp' Capital Spacing in Latin lookup 0 subtable" dx=7 dy=0 dh=14 dv=0
EndChar

StartChar: B
Encoding: 66 66 6
Width: 497
Flags: MW
HStem: 0 136<76.5 257 221 257 257 271 221 304> 297 136<204 236 204 236> 586 136<216.5 222 222 254>
VStem: 50 154<150 154 154 297 433 568> 303 154<182 193 108 232 108 251.5 499 538 538 553.5>
LayerCount: 2
Fore
SplineSet
90 722 m 2
 304 722 l 2
 395 722 457 659 457 570 c 2
 457 538 l 2
 457 454 414 394 350 366 c 1
 414 338 457 277 457 193 c 2
 457 153 l 2
 457 63 395 0 304 0 c 2
 90 0 l 2
 63 0 50 13 50 40 c 2
 50 682 l 2
 50 709 63 722 90 722 c 2
236 297 m 2
 204 297 l 1
 204 154 l 2
 204 146 212 136 221 136 c 2
 257 136 l 2
 285 136 303 154 303 182 c 2
 303 232 l 2
 303 271 279 297 236 297 c 2
254 586 m 2
 222 586 l 2
 211 586 204 579 204 568 c 2
 204 433 l 1
 236 433 l 2
 279 433 303 458 303 499 c 2
 303 538 l 2
 303 569 286 586 254 586 c 2
EndSplineSet
Position2: "'cpsp' Capital Spacing in Latin lookup 0 subtable" dx=7 dy=0 dh=14 dv=0
EndChar

StartChar: C
Encoding: 67 67 7
Width: 417
Flags: MW
HStem: 0 136<147.5 357 260 357 260 357> 586 136<235.5 256 256 357>
VStem: 40 154<179.5 201 201 521>
LayerCount: 2
Fore
SplineSet
40 153 m 2
 40 569 l 2
 40 660 103 722 193 722 c 2
 357 722 l 2
 384 722 397 709 397 682 c 2
 397 626 l 2
 397 599 384 586 357 586 c 2
 256 586 l 2
 215 586 194 564 194 521 c 2
 194 201 l 2
 194 158 216 136 260 136 c 2
 357 136 l 2
 384 136 397 123 397 96 c 2
 397 40 l 2
 397 13 384 0 357 0 c 2
 193 0 l 2
 102 0 40 63 40 153 c 2
EndSplineSet
Position2: "'cpsp' Capital Spacing in Latin lookup 0 subtable" dx=7 dy=0 dh=14 dv=0
EndChar

StartChar: D
Encoding: 68 68 8
Width: 520
Flags: MW
HStem: 0 136<76.5 260 222 260 260 282 222 327> 586 136<216 222 222 264>
VStem: 50 154<148.5 155 155 567> 326 154<201 521 521 542.5>
LayerCount: 2
Fore
SplineSet
90 722 m 2
 327 722 l 2
 418 722 480 659 480 570 c 2
 480 153 l 2
 480 63 418 0 327 0 c 2
 90 0 l 2
 63 0 50 13 50 40 c 2
 50 682 l 2
 50 709 63 722 90 722 c 2
264 586 m 2
 222 586 l 2
 210 586 204 580 204 567 c 2
 204 155 l 2
 204 142 210 136 222 136 c 2
 260 136 l 2
 304 136 326 158 326 201 c 2
 326 521 l 2
 326 564 305 586 264 586 c 2
EndSplineSet
Position2: "'cpsp' Capital Spacing in Latin lookup 0 subtable" dx=7 dy=0 dh=14 dv=0
EndChar

StartChar: E
Encoding: 69 69 9
Width: 418
Flags: MW
HStem: 0 136<76.5 358 222 358 222 358> 297 136<204 314 204 314> 586 136<216.5 223 223 358>
VStem: 50 154<148.5 154 154 297 433 567>
LayerCount: 2
Fore
SplineSet
204 567 m 2
 204 433 l 1
 314 433 l 2
 340 433 353 420 353 393 c 2
 353 337 l 2
 353 310 340 297 314 297 c 2
 204 297 l 1
 204 154 l 2
 204 143 211 136 222 136 c 2
 358 136 l 2
 385 136 398 123 398 96 c 2
 398 40 l 2
 398 13 385 0 358 0 c 2
 90 0 l 2
 63 0 50 13 50 40 c 2
 50 682 l 2
 50 709 63 722 90 722 c 2
 358 722 l 2
 385 722 398 709 398 682 c 2
 398 626 l 2
 398 599 385 586 358 586 c 2
 223 586 l 2
 210 586 204 580 204 567 c 2
EndSplineSet
Position2: "'cpsp' Capital Spacing in Latin lookup 0 subtable" dx=7 dy=0 dh=14 dv=0
EndChar

StartChar: F
Encoding: 70 70 10
Width: 409
Flags: MW
HStem: 0 21G<76.5 90 90 164> 297 136<204 314 204 314> 586 136<216.5 223 223 358>
VStem: 50 154<40 297 433 567>
LayerCount: 2
Fore
SplineSet
204 567 m 2
 204 433 l 1
 314 433 l 2
 340 433 353 420 353 393 c 2
 353 337 l 2
 353 310 340 297 314 297 c 2
 204 297 l 1
 204 40 l 2
 204 13 191 0 164 0 c 2
 90 0 l 2
 63 0 50 13 50 40 c 2
 50 682 l 2
 50 709 63 722 90 722 c 2
 358 722 l 2
 385 722 398 709 398 683 c 2
 398 626 l 2
 398 599 385 586 358 586 c 2
 223 586 l 2
 210 586 204 580 204 567 c 2
EndSplineSet
Position2: "'cpsp' Capital Spacing in Latin lookup 0 subtable" dx=7 dy=0 dh=14 dv=0
EndChar

StartChar: G
Encoding: 71 71 11
Width: 485
Flags: MW
HStem: 0 136<148 263 257 263 263 268.5 257 395> 586 136<235.5 256 256 386>
VStem: 40 154<179 201 201 521> 281 154<155 357>
LayerCount: 2
Fore
SplineSet
40 153 m 2
 40 569 l 2
 40 660 103 722 193 722 c 2
 387 722 l 2
 413 722 426 709 426 682 c 2
 426 626 l 2
 426 599 413 586 386 586 c 2
 256 586 l 2
 215 586 194 564 194 521 c 2
 194 201 l 2
 194 157 217 136 257 136 c 2
 263 136 l 2
 274 136 281 144 281 155 c 2
 281 357 l 2
 281 384 294 397 321 397 c 2
 395 397 l 2
 422 397 435 384 435 357 c 2
 435 40 l 2
 435 13 422 0 395 0 c 2
 194 0 l 2
 102 0 40 63 40 153 c 2
EndSplineSet
Position2: "'cpsp' Capital Spacing in Latin lookup 0 subtable" dx=7 dy=0 dh=14 dv=0
EndChar

StartChar: H
Encoding: 72 72 12
Width: 549
Flags: MW
HStem: 0 21G<76.5 90 90 164 371.5 385 385 459> 297 136<204 345 204 345> 702 20G<90 164 164 177.5 385 459 459 472.5>
VStem: 50 154<40 297 433 682> 345 154<40 297 297 297 433 682>
LayerCount: 2
Fore
SplineSet
345 297 m 1
 204 297 l 1
 204 40 l 2
 204 13 191 0 164 0 c 2
 90 0 l 2
 63 0 50 13 50 40 c 2
 50 682 l 2
 50 709 63 722 90 722 c 2
 164 722 l 2
 191 722 204 709 204 682 c 2
 204 433 l 1
 345 433 l 1
 345 682 l 2
 345 709 358 722 385 722 c 2
 459 722 l 2
 486 722 499 709 499 682 c 2
 499 40 l 2
 499 13 486 0 459 0 c 2
 385 0 l 2
 358 0 345 13 345 40 c 2
 345 297 l 1
EndSplineSet
Position2: "'cpsp' Capital Spacing in Latin lookup 0 subtable" dx=7 dy=0 dh=14 dv=0
EndChar

StartChar: I
Encoding: 73 73 13
Width: 254
Flags: MW
HStem: 0 21G<76.5 90 90 164> 702 20G<90 164 164 177.5>
VStem: 50 154<40 682>
LayerCount: 2
Fore
SplineSet
50 40 m 2
 50 682 l 2
 50 709 63 722 90 722 c 2
 164 722 l 2
 191 722 204 709 204 682 c 2
 204 40 l 2
 204 13 191 0 164 0 c 2
 90 0 l 2
 63 0 50 13 50 40 c 2
EndSplineSet
Position2: "'cpsp' Capital Spacing in Latin lookup 0 subtable" dx=7 dy=0 dh=14 dv=0
EndChar

StartChar: J
Encoding: 74 74 14
Width: 355
Flags: MW
HStem: 0 136<37.5 99 51 99 99 116.5 51 189> 702 20G<191 265 265 278.5>
VStem: 151 154<188 682>
LayerCount: 2
Fore
SplineSet
151 188 m 2
 151 682 l 2
 151 709 164 722 191 722 c 2
 265 722 l 2
 292 722 305 709 305 682 c 2
 305 116 l 2
 305 47 258 0 189 0 c 2
 51 0 l 2
 24 0 11 13 11 40 c 2
 11 96 l 2
 11 123 24 136 51 136 c 2
 99 136 l 2
 134 136 151 153 151 188 c 2
EndSplineSet
Position2: "'cpsp' Capital Spacing in Latin lookup 0 subtable" dx=7 dy=0 dh=14 dv=0
EndChar

StartChar: K
Encoding: 75 75 15
Width: 507
Flags: MW
HStem: 0 21G<76.5 90 90 164 347.5 361 361 435> 702 20G<90 164 164 177.5 359 433 433 447>
VStem: 50 154<40 297 433 681>
LayerCount: 2
Fore
SplineSet
90 722 m 2
 164 722 l 2
 191 722 204 708 204 681 c 2
 204 433 l 1
 227 433 l 2
 246 433 262 445 266 464 c 2
 318 695 l 2
 322 711 334 722 359 722 c 2
 433 722 l 2
 461 722 481 704 474 677 c 2
 416 443 l 2
 408 411 390 385 366 365 c 1
 391 345 408 319 416 288 c 2
 476 45 l 2
 483 18 464 0 435 0 c 2
 361 0 l 2
 334 0 323 12 320 27 c 2
 266 267 l 2
 262 284 246 297 227 297 c 2
 204 297 l 1
 204 40 l 2
 204 13 191 0 164 0 c 2
 90 0 l 2
 63 0 50 13 50 40 c 2
 50 682 l 2
 50 709 63 722 90 722 c 2
EndSplineSet
Position2: "'cpsp' Capital Spacing in Latin lookup 0 subtable" dx=7 dy=0 dh=14 dv=0
EndChar

StartChar: L
Encoding: 76 76 16
Width: 409
Flags: MW
HStem: 0 136<76.5 358 223 358 223 358> 702 20G<90 164 164 177.5>
VStem: 50 154<149.5 155 155 682>
LayerCount: 2
Fore
SplineSet
204 682 m 2
 204 155 l 2
 204 144 212 136 223 136 c 2
 358 136 l 2
 385 136 398 123 398 96 c 2
 398 40 l 2
 398 13 385 0 358 0 c 2
 90 0 l 2
 63 0 50 13 50 40 c 2
 50 682 l 2
 50 709 63 722 90 722 c 2
 164 722 l 2
 191 722 204 709 204 682 c 2
EndSplineSet
Position2: "'cpsp' Capital Spacing in Latin lookup 0 subtable" dx=7 dy=0 dh=14 dv=0
EndChar

StartChar: M
Encoding: 77 77 17
Width: 686
Flags: MW
HStem: 0 21G<76.5 90 90 154 304.5 314 314 372 518.5 532 532 596> 702 20G<90 238 238 247.5 448 596 596 609.5>
VStem: 50 144<40 505> 492 144<40 505 505 505>
LayerCount: 2
Fore
SplineSet
274 689 m 2
 343 260 l 1
 412 689 l 2
 415 708 429 722 448 722 c 2
 596 722 l 2
 623 722 636 709 636 682 c 2
 636 40 l 2
 636 13 623 0 596 0 c 2
 532 0 l 2
 505 0 492 13 492 40 c 2
 492 505 l 1
 408 33 l 2
 405 14 391 0 372 0 c 2
 314 0 l 2
 295 0 281 14 278 33 c 2
 194 505 l 1
 194 40 l 2
 194 13 181 0 154 0 c 2
 90 0 l 2
 63 0 50 13 50 40 c 2
 50 682 l 2
 50 709 63 722 90 722 c 2
 238 722 l 2
 257 722 271 708 274 689 c 2
EndSplineSet
Position2: "'cpsp' Capital Spacing in Latin lookup 0 subtable" dx=7 dy=0 dh=14 dv=0
EndChar

StartChar: N
Encoding: 78 78 18
Width: 548
Flags: MW
HStem: 0 21G<76.5 90 90 148 322.5 336 336 458> 702 20G<90 213 213 225.5 400 458 458 471.5>
VStem: 50 138<40 505> 360 138<217 682>
LayerCount: 2
Fore
SplineSet
254 692 m 2
 360 217 l 1
 360 682 l 2
 360 709 373 722 400 722 c 2
 458 722 l 2
 485 722 498 709 498 682 c 2
 498 40 l 2
 498 13 485 0 458 0 c 2
 336 0 l 2
 309 0 298 14 294 30 c 2
 188 505 l 1
 188 40 l 2
 188 13 175 0 148 0 c 2
 90 0 l 2
 63 0 50 13 50 40 c 2
 50 682 l 2
 50 709 63 722 90 722 c 2
 213 722 l 2
 238 722 250 708 254 692 c 2
EndSplineSet
Position2: "'cpsp' Capital Spacing in Latin lookup 0 subtable" dx=7 dy=0 dh=14 dv=0
EndChar

StartChar: O
Encoding: 79 79 19
Width: 511
Flags: MW
HStem: 0 136<147 259 252 259 259 278.5 252 317> 586 136<232 251 251 259>
VStem: 40 154<175.5 195 195 527> 317 154<0 153 195 527 527 546.5>
LayerCount: 2
Fore
SplineSet
471 569 m 2
 471 153 l 2
 471 63 409 0 317 0 c 2
 193 0 l 2
 101 0 40 62 40 154 c 2
 40 569 l 2
 40 660 103 722 194 722 c 2
 318 722 l 2
 409 722 471 660 471 569 c 2
317 195 m 2
 317 527 l 2
 317 566 298 586 259 586 c 2
 251 586 l 2
 213 586 194 566 194 527 c 2
 194 195 l 2
 194 156 213 136 252 136 c 2
 259 136 l 2
 298 136 317 156 317 195 c 2
EndSplineSet
Position2: "'cpsp' Capital Spacing in Latin lookup 0 subtable" dx=7 dy=0 dh=14 dv=0
EndChar

StartChar: P
Encoding: 80 80 20
Width: 477
Flags: MW
HStem: 0 21G<77.5 91 91 164> 288 136<204 237 237 259 204 304 204 237> 586 136<216.5 222 222 241>
VStem: 50 154<40 41 41 288 424 568> 303 154<489 521 521 542.5>
LayerCount: 2
Fore
SplineSet
50 40 m 2
 50 682 l 2
 50 709 63 722 89 722 c 2
 304 722 l 2
 395 722 457 659 457 570 c 2
 457 441 l 2
 457 351 395 288 304 288 c 2
 204 288 l 1
 204 41 l 2
 204 14 191 0 164 0 c 2
 91 0 l 2
 64 0 50 13 50 40 c 2
204 568 m 2
 204 424 l 1
 237 424 l 2
 281 424 303 446 303 489 c 2
 303 521 l 2
 303 564 282 586 241 586 c 2
 222 586 l 2
 211 586 204 577 204 568 c 2
EndSplineSet
Position2: "'cpsp' Capital Spacing in Latin lookup 0 subtable" dx=7 dy=0 dh=14 dv=0
EndChar

StartChar: Q
Encoding: 81 81 21
Width: 511
Flags: MW
HStem: -144 21G<210 224 224 286> -20 20G<144.5 180 180 182 329 331 329 329> 586 136<232 251 251 259>
VStem: 40 154<175.5 195 195 527> 182 147<-102 0 -116 0> 317 154<195 527 527 546.5>
LayerCount: 2
Fore
SplineSet
331 0 m 2xf4
 329 0 l 1
 329 -102 l 2
 329 -130 315 -144 286 -144 c 2
 224 -144 l 2
 196 -144 182 -130 182 -102 c 2
 182 0 l 1xe8
 180 0 l 2
 109 0 40 63 40 154 c 2
 40 569 l 2
 40 660 103 722 194 722 c 2
 318 722 l 2
 409 722 471 660 471 569 c 2
 471 153 l 2
 471 63 406 0 331 0 c 2xf4
194 527 m 2xf4
 194 195 l 2
 194 156 213 136 252 136 c 2
 259 136 l 2
 298 136 317 156 317 195 c 2
 317 527 l 2
 317 566 298 586 259 586 c 2
 251 586 l 2
 213 586 194 566 194 527 c 2xf4
EndSplineSet
Position2: "'cpsp' Capital Spacing in Latin lookup 0 subtable" dx=7 dy=0 dh=14 dv=0
EndChar

StartChar: R
Encoding: 82 82 22
Width: 507
Flags: MW
HStem: 0 21G<77.5 91 91 164 347 359 359 437> 586 136<218.5 224 224 241>
VStem: 50 154<40 41 41 297 433 568> 303 154<499 521 521 542.5>
LayerCount: 2
Fore
SplineSet
89 722 m 2
 304 722 l 2
 395 722 457 659 457 570 c 2
 457 467 l 2
 457 419 432 366 375 339 c 1
 399 316 418 273 429 234 c 1
 476 45 l 1
 483 22 468 0 437 0 c 2
 359 0 l 2
 335 0 324 10 320 27 c 2
 266 267 l 2
 262 284 246 297 227 297 c 2
 204 297 l 1
 204 41 l 2
 204 14 191 0 164 0 c 2
 91 0 l 2
 64 0 50 13 50 40 c 2
 50 682 l 2
 50 709 63 722 89 722 c 2
241 586 m 2
 224 586 l 2
 213 586 204 577 204 568 c 2
 204 433 l 1
 237 433 l 2
 281 433 303 455 303 499 c 2
 303 521 l 2
 303 564 282 586 241 586 c 2
EndSplineSet
Position2: "'cpsp' Capital Spacing in Latin lookup 0 subtable" dx=7 dy=0 dh=14 dv=0
EndChar

StartChar: S
Encoding: 83 83 23
Width: 412
Flags: MW
HStem: 0 136<64.5 172 78 172 172 194 78 239> 586 136<215.5 236 236 316>
VStem: 20 154<500.5 514 514 521 500.5 569 500.5 614.5> 238 154<201 208 208 221.5>
LayerCount: 2
Fore
SplineSet
211 264 m 2
 74 366 l 2
 41 390 20 424 20 475 c 2
 20 569 l 2
 20 660 83 722 173 722 c 2
 316 722 l 2
 343 722 356 709 356 682 c 2
 356 626 l 2
 356 599 343 586 316 586 c 2
 236 586 l 2
 195 586 174 564 174 521 c 2
 174 514 l 2
 174 487 184 470 201 458 c 2
 338 356 l 2
 371 332 392 298 392 247 c 2
 392 153 l 2
 392 63 330 0 239 0 c 2
 78 0 l 2
 51 0 38 13 38 40 c 2
 38 96 l 2
 38 123 51 136 78 136 c 2
 172 136 l 2
 216 136 238 158 238 201 c 2
 238 208 l 2
 238 235 228 252 211 264 c 2
EndSplineSet
Position2: "'cpsp' Capital Spacing in Latin lookup 0 subtable" dx=7 dy=0 dh=14 dv=0
EndChar

StartChar: T
Encoding: 84 84 24
Width: 479
Flags: MW
HStem: 0 21G<188.5 202 202 276> 586 136<37.5 428 51 162 316 316 316 428>
VStem: 162 154<40 586>
LayerCount: 2
Fore
SplineSet
162 40 m 2
 162 586 l 1
 51 586 l 2
 24 586 11 599 11 626 c 2
 11 682 l 2
 11 709 24 722 51 722 c 2
 428 722 l 2
 455 722 468 709 468 682 c 2
 468 626 l 2
 468 599 455 586 428 586 c 2
 316 586 l 1
 316 40 l 2
 316 13 303 0 276 0 c 2
 202 0 l 2
 175 0 162 13 162 40 c 2
EndSplineSet
Position2: "'cpsp' Capital Spacing in Latin lookup 0 subtable" dx=7 dy=0 dh=14 dv=0
EndChar

StartChar: U
Encoding: 85 85 25
Width: 531
Flags: MW
HStem: 0 136<157 269 262 269 269 288.5 262 327> 702 20G<90 164 164 177.5 367 441 441 454.5>
VStem: 50 154<175.5 195 195 682> 327 154<0 153 195 682>
LayerCount: 2
Fore
SplineSet
50 154 m 2
 50 682 l 2
 50 709 63 722 90 722 c 2
 164 722 l 2
 191 722 204 709 204 682 c 2
 204 195 l 2
 204 156 223 136 262 136 c 2
 269 136 l 2
 308 136 327 156 327 195 c 2
 327 682 l 2
 327 709 340 722 367 722 c 2
 441 722 l 2
 468 722 481 709 481 682 c 2
 481 153 l 2
 481 63 419 0 327 0 c 2
 203 0 l 2
 111 0 50 62 50 154 c 2
EndSplineSet
Position2: "'cpsp' Capital Spacing in Latin lookup 0 subtable" dx=7 dy=0 dh=14 dv=0
EndChar

StartChar: V
Encoding: 86 86 26
Width: 501
Flags: MW
HStem: 0 21G<146.5 156 156 347> 702 20G<57 135 135 144.5 376 446 446 455.5>
LayerCount: 2
Fore
SplineSet
57 722 m 2
 135 722 l 2
 154 722 167 709 170 692 c 2
 255 126 l 1
 340 692 l 2
 343 709 357 722 376 722 c 2
 446 722 l 2
 465 722 485 705 481 681 c 2
 381 30 l 2
 378 10 366 0 347 0 c 2
 156 0 l 2
 137 0 124 13 121 30 c 2
 21 680 l 2
 17 707 37 722 57 722 c 2
EndSplineSet
Position2: "'cpsp' Capital Spacing in Latin lookup 0 subtable" dx=7 dy=0 dh=14 dv=0
EndChar

StartChar: W
Encoding: 87 87 27
Width: 714
Flags: MW
HStem: 0 21G<104 114 114 265 438.5 448 448 600> 702 20G<56 128 128 138 314 400 400 409.5 586 658 658 668>
LayerCount: 2
Fore
SplineSet
412 33 m 2
 357 458 l 1
 302 33 l 2
 299 14 284 0 265 0 c 2
 114 0 l 2
 94 0 81 16 78 36 c 1
 20 686 l 1
 17 706 36 722 56 722 c 2
 128 722 l 2
 148 722 161 706 164 686 c 1
 208 151 l 1
 278 689 l 2
 281 708 295 722 314 722 c 2
 400 722 l 2
 419 722 433 708 436 689 c 2
 506 152 l 1
 550 686 l 1
 553 706 566 722 586 722 c 2
 658 722 l 2
 678 722 697 706 694 686 c 1
 636 36 l 1
 633 16 620 0 600 0 c 2
 448 0 l 2
 429 0 415 14 412 33 c 2
EndSplineSet
Position2: "'cpsp' Capital Spacing in Latin lookup 0 subtable" dx=7 dy=0 dh=14 dv=0
EndChar

StartChar: X
Encoding: 88 88 28
Width: 515
Flags: MW
HStem: 0 21G 702 20G<56 146 146 153.5 379 449 449 459.5>
LayerCount: 2
Fore
SplineSet
56 722 m 2
 146 722 l 2
 161 722 172 713 179 701 c 1
 263 521 l 1
 347 701 l 1
 354 713 364 722 379 722 c 2
 449 722 l 2
 470 722 495 700 482 671 c 1
 332 372 l 1
 492 51 l 2
 503 30 488 0 459 0 c 2
 369 0 l 2
 354 0 343 9 336 21 c 1
 252 201 l 1
 169 21 l 2
 162 7 151 0 136 0 c 2
 66 0 l 2
 45 0 19 23 33 51 c 2
 183 350 l 1
 23 671 l 1
 15 690 26 722 56 722 c 2
EndSplineSet
Position2: "'cpsp' Capital Spacing in Latin lookup 0 subtable" dx=7 dy=0 dh=14 dv=0
EndChar

StartChar: Y
Encoding: 89 89 29
Width: 505
Flags: MW
HStem: 0 21G<202.5 216 216 290> 702 20G<47 132 132 140 394 459 459 470.5>
VStem: 176 154<40 285>
LayerCount: 2
Fore
SplineSet
165 701 m 2
 263 451 l 1
 361 701 l 2
 365 712 379 722 394 722 c 2
 459 722 l 2
 482 722 503 699 491 671 c 2
 330 285 l 1
 330 40 l 2
 330 13 317 0 290 0 c 2
 216 0 l 2
 189 0 176 13 176 40 c 2
 176 285 l 1
 14 671 l 2
 5 694 19 722 47 722 c 2
 132 722 l 2
 148 722 161 712 165 701 c 2
EndSplineSet
Position2: "'cpsp' Capital Spacing in Latin lookup 0 subtable" dx=7 dy=0 dh=14 dv=0
EndChar

StartChar: Z
Encoding: 90 90 30
Width: 419
Flags: MW
HStem: 0 136<46.5 359 157 359 157 359> 586 136<46.5 359 60 261>
LayerCount: 2
Fore
SplineSet
60 722 m 2
 359 722 l 2
 386 722 399 709 399 682 c 2
 399 544 l 2
 399 537 397 529 392 522 c 2
 157 136 l 1
 359 136 l 2
 386 136 399 123 399 96 c 2
 399 40 l 2
 399 13 386 0 359 0 c 2
 60 0 l 2
 33 0 20 13 20 40 c 2
 20 177 l 2
 20 182 22 191 25 196 c 2
 261 586 l 1
 60 586 l 2
 33 586 20 599 20 626 c 2
 20 682 l 2
 20 709 33 722 60 722 c 2
EndSplineSet
Position2: "'cpsp' Capital Spacing in Latin lookup 0 subtable" dx=7 dy=0 dh=14 dv=0
EndChar

StartChar: bracketleft
Encoding: 91 91 31
Width: 321
Flags: MW
HStem: -145 136<76.5 261 223 261 223 261> 689 136<217.5 223 223 261>
VStem: 50 154<4.5 10 10 670>
LayerCount: 2
Fore
SplineSet
90 825 m 2
 261 825 l 2
 288 825 301 812 301 785 c 2
 301 729 l 2
 301 702 288 689 261 689 c 2
 223 689 l 2
 212 689 204 681 204 670 c 2
 204 10 l 2
 204 -1 212 -9 223 -9 c 2
 261 -9 l 2
 288 -9 301 -22 301 -49 c 2
 301 -105 l 2
 301 -132 288 -145 261 -145 c 2
 90 -145 l 2
 63 -145 50 -132 50 -105 c 2
 50 785 l 2
 50 812 63 825 90 825 c 2
EndSplineSet
EndChar

StartChar: backslash
Encoding: 92 92 32
Width: 411
Flags: MW
HStem: -145 21G<294.5 308 308 369> 774 20G<32 93 93 106>
LayerCount: 2
Fore
SplineSet
144 754 m 2
 397 -105 l 2
 405 -132 396 -145 369 -145 c 2
 308 -145 l 2
 281 -145 264 -132 256 -105 c 2
 3 754 l 2
 -5 781 5 794 32 794 c 2
 93 794 l 2
 119 794 136 781 144 754 c 2
EndSplineSet
EndChar

StartChar: bracketright
Encoding: 93 93 33
Width: 321
Flags: MW
HStem: -145 136<46.5 98 60 98 98 103.5 60 231> 689 136<46.5 231 60 98>
VStem: 117 154<10 670 670 675.5>
LayerCount: 2
Fore
SplineSet
60 825 m 2
 231 825 l 2
 258 825 271 812 271 785 c 2
 271 -105 l 2
 271 -132 258 -145 231 -145 c 2
 60 -145 l 2
 33 -145 20 -132 20 -105 c 2
 20 -49 l 2
 20 -22 33 -9 60 -9 c 2
 98 -9 l 2
 109 -9 117 -1 117 10 c 2
 117 670 l 2
 117 681 109 689 98 689 c 2
 60 689 l 2
 33 689 20 702 20 729 c 2
 20 785 l 2
 20 812 33 825 60 825 c 2
EndSplineSet
EndChar

StartChar: asciicircum
Encoding: 94 94 34
Width: 418
Flags: MW
HStem: 289 21G<67 77 77 135 278.5 288 288 343> 702 20G<132 288 288 297.5>
LayerCount: 2
Fore
SplineSet
135 289 m 2
 77 289 l 2
 57 289 37 304 41 331 c 2
 97 692 l 2
 100 709 113 722 132 722 c 2
 288 722 l 2
 307 722 319 712 322 692 c 2
 378 330 l 2
 382 306 362 289 343 289 c 2
 288 289 l 2
 269 289 255 302 252 319 c 2
 211 596 l 1
 170 319 l 2
 167 302 154 289 135 289 c 2
EndSplineSet
EndChar

StartChar: underscore
Encoding: 95 95 35
Width: 467
Flags: MW
HStem: -170 98<36.5 417 50 417>
LayerCount: 2
Fore
SplineSet
10 -130 m 2
 10 -112 l 2
 10 -85 23 -72 50 -72 c 2
 417 -72 l 2
 444 -72 457 -85 457 -112 c 2
 457 -130 l 2
 457 -157 444 -170 417 -170 c 2
 50 -170 l 2
 23 -170 10 -157 10 -130 c 2
EndSplineSet
EndChar

StartChar: a
Encoding: 97 97 36
Width: 459
Flags: MW
HStem: -20 20G<273 367 273 273> -3 21G<115.5 144.5> 369 136<95.5 295 109 213>
VStem: 50 143<135.5 146 146 177 135.5 227 135.5 257> 255 154<24 42 115 208 208 208 298 327 327 342.5>
LayerCount: 2
Fore
SplineSet
109 505 m 2x78
 295 505 l 2
 366 505 409 466 409 386 c 2
 409 42 l 2
 409 14 395 0 367 0 c 2
 273 0 l 1xb8
 255 24 l 1
 167 1 l 2
 158 -2 148 -3 141 -3 c 0
 90 -3 50 35 50 95 c 2
 50 227 l 2
 50 287 90 325 141 325 c 0
 148 325 158 324 167 321 c 2
 255 298 l 1
 255 327 l 2
 255 358 242 369 213 369 c 2
 109 369 l 2
 82 369 69 382 69 409 c 2
 69 465 l 2
 69 492 82 505 109 505 c 2x78
255 208 m 1
 224 208 l 2
 203 208 193 198 193 177 c 2
 193 146 l 2
 193 125 203 115 224 115 c 2
 255 115 l 1
 255 208 l 1
EndSplineSet
Substitution2: "Single Substitution lookup 6 subtable" ordfeminine
EndChar

StartChar: b
Encoding: 98 98 37
Width: 468
Flags: MW
HStem: -20 20G<78 92 92 186> -3 21G<324 353.5> 485 20G<324.5 354.5> 774 20G<90 164 164 177.5>
VStem: 50 154<24 133 133 369 478 754> 264 154<160 342 342 349.5>
LayerCount: 2
Fore
SplineSet
90 794 m 2xbc
 164 794 l 2
 191 794 204 781 204 754 c 2
 204 478 l 1
 301 502 l 1
 308 505 321 505 328 505 c 0
 381 505 418 467 418 407 c 2
 418 95 l 2
 418 35 379 -3 328 -3 c 0x7c
 320 -3 310 -2 301 1 c 2
 204 24 l 1
 186 0 l 1
 92 0 l 2
 64 0 50 14 50 42 c 2
 50 754 l 2
 50 781 63 794 90 794 c 2xbc
236 369 m 2
 204 369 l 1
 204 133 l 1
 236 133 l 2
 252 133 264 143 264 160 c 2
 264 342 l 2
 264 357 252 369 236 369 c 2
EndSplineSet
EndChar

StartChar: c
Encoding: 99 99 38
Width: 346
Flags: MW
HStem: 0 136<118 286 247 286 247 286> 369 136<232.5 247 247 286>
VStem: 50 154<164 178 178 327 164 407>
LayerCount: 2
Fore
SplineSet
50 98 m 2
 50 407 l 2
 50 467 88 505 148 505 c 2
 286 505 l 2
 313 505 326 492 326 465 c 2
 326 409 l 2
 326 382 313 369 286 369 c 2
 247 369 l 2
 218 369 204 355 204 327 c 2
 204 178 l 2
 204 150 218 136 247 136 c 2
 286 136 l 2
 313 136 326 123 326 96 c 2
 326 40 l 2
 326 13 313 0 286 0 c 2
 148 0 l 2
 88 0 50 38 50 98 c 2
EndSplineSet
EndChar

StartChar: d
Encoding: 100 100 39
Width: 468
Flags: MW
HStem: -20 20G<282 376 282 282> -3 21G<114.5 144> 485 20G<113.5 144> 774 20G<304 378 378 391.5>
VStem: 50 154<154.5 163 163 345> 264 154<24 42 136 372 372 372 478 754>
LayerCount: 2
Fore
SplineSet
304 794 m 2x7c
 378 794 l 2
 405 794 418 781 418 754 c 2
 418 42 l 2
 418 14 404 0 376 0 c 2
 282 0 l 1xbc
 264 24 l 1
 167 1 l 1
 159 -2 148 -3 140 -3 c 0
 89 -3 50 35 50 94 c 2
 50 407 l 2
 50 467 87 505 140 505 c 0
 148 505 159 505 167 502 c 2
 264 478 l 1
 264 754 l 2
 264 781 277 794 304 794 c 2x7c
264 372 m 1
 232 372 l 2
 216 372 204 360 204 345 c 2
 204 163 l 2
 204 146 216 136 232 136 c 2
 264 136 l 1
 264 372 l 1
EndSplineSet
EndChar

StartChar: e
Encoding: 101 101 40
Width: 449
Flags: MW
HStem: 0 136<118 333 247 333 247 333> 485 20G<148 311 311 341>
VStem: 50 154<159.5 173 173 181 159.5 271 271 349> 266 143<310 349 349 355.5>
LayerCount: 2
Fore
SplineSet
50 98 m 2
 50 407 l 2
 50 467 88 505 148 505 c 2
 311 505 l 2
 371 505 409 467 409 407 c 2
 409 279 l 2
 409 218 371 181 311 181 c 2
 204 181 l 1
 204 173 l 2
 204 146 219 136 247 136 c 2
 333 136 l 2
 360 136 373 123 373 96 c 2
 373 40 l 2
 373 13 360 0 333 0 c 2
 148 0 l 2
 88 0 50 38 50 98 c 2
204 349 m 2
 204 271 l 1
 249 285 l 2
 261 289 266 299 266 310 c 2
 266 349 l 2
 266 362 254 374 243 374 c 2
 230 374 l 2
 217 374 204 364 204 349 c 2
EndSplineSet
EndChar

StartChar: f
Encoding: 102 102 41
Width: 354
Flags: MW
HStem: 0 21G<128.5 142 142 216> 369 136<56.5 102 70 102 256 284> 658 136<284 298 298 303>
VStem: 102 154<40 369 505 616> 102 241<505 698 684.5 698 698 712>
LayerCount: 2
Fore
SplineSet
70 505 m 2xf0
 102 505 l 1
 102 674 l 2
 102 750 149 794 217 794 c 2
 303 794 l 2
 330 794 343 781 343 754 c 2
 343 698 l 2xe8
 343 671 330 658 303 658 c 2
 298 658 l 2
 270 658 256 644 256 616 c 2
 256 505 l 1
 284 505 l 2
 311 505 324 492 324 465 c 2
 324 409 l 2
 324 382 311 369 284 369 c 2
 256 369 l 1
 256 40 l 2
 256 13 243 0 216 0 c 2
 142 0 l 2
 115 0 102 13 102 40 c 2
 102 369 l 1
 70 369 l 2
 43 369 30 382 30 409 c 2
 30 465 l 2
 30 492 43 505 70 505 c 2xf0
EndSplineSet
EndChar

StartChar: g
Encoding: 103 103 42
Width: 468
Flags: MW
HStem: -217 136<130.5 221 144 221 221 235.5 144 304> -20 20G<114.5 145> 485 20G<282 376 376 390> 488 20G<114.5 144.5>
VStem: 50 154<155.5 163 163 342> 264 154<-39 27 27 27 136 369 369 369>
LayerCount: 2
Fore
SplineSet
418 463 m 2xec
 418 -97 l 2
 418 -173 371 -217 304 -217 c 2
 144 -217 l 2
 117 -217 104 -204 104 -177 c 2
 104 -121 l 2
 104 -94 117 -81 144 -81 c 2
 221 -81 l 2
 250 -81 264 -67 264 -39 c 2
 264 27 l 1
 167 3 l 2
 159 1 150 0 140 0 c 0
 89 0 50 38 50 98 c 2
 50 411 l 2
 50 470 89 508 140 508 c 0xdc
 149 508 159 507 167 504 c 1
 264 481 l 1
 282 505 l 1
 376 505 l 2
 404 505 418 491 418 463 c 2xec
204 342 m 2
 204 163 l 2
 204 148 216 136 231 136 c 2
 264 136 l 1
 264 369 l 1
 231 369 l 2
 216 369 204 357 204 342 c 2
EndSplineSet
EndChar

StartChar: h
Encoding: 104 104 43
Width: 468
Flags: MW
HStem: 0 21G<76.5 90 90 164 290.5 304 304 378> 485 20G<323.5 354.5> 774 20G<90 164 164 177.5>
VStem: 50 154<40 369 478 754> 264 154<40 342 342 349.5>
LayerCount: 2
Fore
SplineSet
50 40 m 2
 50 754 l 2
 50 781 63 794 90 794 c 2
 164 794 l 2
 191 794 204 781 204 754 c 2
 204 478 l 1
 301 502 l 2
 310 504 319 505 328 505 c 0
 381 505 418 467 418 407 c 2
 418 40 l 2
 418 13 405 0 378 0 c 2
 304 0 l 2
 277 0 264 13 264 40 c 2
 264 342 l 2
 264 357 252 369 237 369 c 2
 204 369 l 1
 204 40 l 2
 204 13 191 0 164 0 c 2
 90 0 l 2
 63 0 50 13 50 40 c 2
EndSplineSet
EndChar

StartChar: i
Encoding: 105 105 44
Width: 248
Flags: MW
HStem: 0 21G<73.5 87 87 161> 485 20G<87 161 161 174.5> 601 141<70.5 164 84 164>
VStem: 47 154<40 465>
LayerCount: 2
Fore
SplineSet
47 40 m 2
 47 465 l 2
 47 492 60 505 87 505 c 2
 161 505 l 2
 188 505 201 492 201 465 c 2
 201 40 l 2
 201 13 188 0 161 0 c 2
 87 0 l 2
 60 0 47 13 47 40 c 2
44 641 m 2
 44 702 l 2
 44 729 57 742 84 742 c 2
 164 742 l 2
 191 742 204 729 204 702 c 2
 204 641 l 2
 204 614 191 601 164 601 c 2
 84 601 l 2
 57 601 44 614 44 641 c 2
EndSplineSet
EndChar

StartChar: j
Encoding: 106 106 45
Width: 254
Flags: MW
HStem: -217 21G<6.5 20 20 80> 485 20G<93 167 167 180.5> 601 141<76.5 170 90 170>
VStem: -20 227<-134.5 -121 -121 -107.5> 53 154<-45 465>
LayerCount: 2
Fore
SplineSet
53 -45 m 2xe8
 53 465 l 2xe8
 53 492 66 505 93 505 c 2
 167 505 l 2
 194 505 207 492 207 465 c 2
 207 -100 l 2
 207 -169 150 -217 80 -217 c 2
 20 -217 l 2
 -7 -217 -20 -204 -20 -177 c 2
 -20 -121 l 2xf0
 -20 -94 -7 -81 16 -81 c 2
 18 -81 l 2
 37 -81 53 -65 53 -45 c 2xe8
50 641 m 2
 50 702 l 2
 50 729 63 742 90 742 c 2
 170 742 l 2
 197 742 210 729 210 702 c 2
 210 641 l 2
 210 614 197 601 170 601 c 2
 90 601 l 2
 63 601 50 614 50 641 c 2
EndSplineSet
EndChar

StartChar: k
Encoding: 107 107 46
Width: 468
Flags: MW
HStem: 0 21G<76.5 90 90 164 309.5 318 318 402> 485 20G<316 401 401 410.5> 774 20G<90 164 164 177.5>
VStem: 50 154<40 189 325 754>
LayerCount: 2
Fore
SplineSet
90 794 m 2
 164 794 l 2
 191 794 204 781 204 754 c 2
 204 325 l 1
 211 325 l 2
 230 325 246 339 250 356 c 2
 281 478 l 2
 285 494 299 505 316 505 c 2
 401 505 l 2
 420 505 442 487 435 460 c 2
 404 335 l 2
 396 303 378 277 354 257 c 1
 379 237 396 211 404 180 c 2
 437 46 l 2
 444 19 431 0 402 0 c 2
 318 0 l 2
 301 0 287 11 283 27 c 2
 250 158 l 2
 245 179 232 189 212 189 c 2
 204 189 l 1
 204 40 l 2
 204 13 191 0 164 0 c 2
 90 0 l 2
 63 0 50 13 50 40 c 2
 50 754 l 2
 50 781 63 794 90 794 c 2
EndSplineSet
EndChar

StartChar: l
Encoding: 108 108 47
Width: 254
Flags: MW
HStem: 0 21G<76.5 90 90 164> 774 20G<90 164 164 177.5>
VStem: 50 154<40 754>
LayerCount: 2
Fore
SplineSet
90 794 m 2
 164 794 l 2
 191 794 204 781 204 754 c 2
 204 40 l 2
 204 13 191 0 164 0 c 2
 90 0 l 2
 63 0 50 13 50 40 c 2
 50 754 l 2
 50 781 63 794 90 794 c 2
EndSplineSet
EndChar

StartChar: m
Encoding: 109 109 48
Width: 646
Flags: MW
HStem: 0 21G<76.5 90 90 164 276 289 289 356 468.5 482 482 556> 485 20G<87 186 186 186> 488 20G<304.5 323.5 501.5 531.5>
VStem: 50 154<40 372> 250 146<40 345 345 352.5> 442 154<40 345 345 352.5>
CounterMasks: 1 1c
LayerCount: 2
Fore
SplineSet
378 472 m 1xbc
 477 504 l 2
 486 507 497 508 506 508 c 0xbc
 557 508 596 470 596 410 c 2
 596 40 l 2
 596 13 583 0 556 0 c 2
 482 0 l 2
 455 0 442 13 442 40 c 2
 442 345 l 2
 442 360 431 372 415 372 c 2
 394 372 l 1
 395 371 396 368 396 363 c 2
 396 40 l 2
 396 13 383 0 356 0 c 2
 289 0 l 2
 263 0 250 13 250 40 c 2
 250 345 l 2
 250 360 238 372 223 372 c 2
 204 372 l 1
 204 40 l 2
 204 13 191 0 164 0 c 2
 90 0 l 2
 63 0 50 13 50 40 c 2
 50 469 l 2
 50 490 66 505 87 505 c 2
 186 505 l 1xdc
 204 481 l 1
 281 504 l 2
 289 507 299 508 310 508 c 0
 337 508 362 493 378 472 c 1xbc
EndSplineSet
EndChar

StartChar: n
Encoding: 110 110 49
Width: 468
Flags: MW
HStem: 0 21G<76.5 90 90 164 290.5 304 304 378> 485 20G<86 186 186 186> 488 20G<323.5 353.5>
VStem: 50 154<40 372> 264 154<40 345 345 353.5>
LayerCount: 2
Fore
SplineSet
50 40 m 2xb8
 50 469 l 2
 50 489 66 505 86 505 c 2
 186 505 l 1xd8
 204 481 l 1
 301 504 l 2
 310 507 319 508 328 508 c 0
 379 508 418 470 418 410 c 2
 418 40 l 2
 418 13 405 0 378 0 c 2
 304 0 l 2
 277 0 264 13 264 40 c 2
 264 345 l 2
 264 362 252 372 236 372 c 2
 204 372 l 1
 204 40 l 2
 204 13 191 0 164 0 c 2
 90 0 l 2
 63 0 50 13 50 40 c 2xb8
EndSplineSet
EndChar

StartChar: o
Encoding: 111 111 50
Width: 485
Flags: MW
HStem: 0 21G<118 148 148 337> 485 20G<148 337 337 367>
VStem: 50 154<164.5 178 178 327 164.5 407> 281 154<178 327 327 340.5>
LayerCount: 2
Fore
SplineSet
337 0 m 2
 148 0 l 2
 88 0 50 38 50 98 c 2
 50 407 l 2
 50 467 88 505 148 505 c 2
 337 505 l 2
 397 505 435 467 435 407 c 2
 435 98 l 2
 435 38 397 0 337 0 c 2
281 178 m 2
 281 327 l 2
 281 354 264 369 244 369 c 2
 240 369 l 2
 220 369 204 354 204 327 c 2
 204 178 l 2
 204 151 220 136 240 136 c 2
 244 136 l 2
 264 136 281 151 281 178 c 2
EndSplineSet
Substitution2: "Single Substitution lookup 6 subtable" ordmasculine
EndChar

StartChar: p
Encoding: 112 112 51
Width: 468
Flags: MW
HStem: -217 21G<76.5 90 90 164> -20 20G<322.5 354.5> 485 20G<92 186 186 186> 488 20G<322.5 353.5>
VStem: 50 154<-178 -177 -177 27 136 372> 264 154<163 345 345 353.5>
LayerCount: 2
Fore
SplineSet
418 410 m 2xdc
 418 98 l 2
 418 38 381 0 328 0 c 0
 317 0 302 2 293 5 c 2
 204 27 l 1
 204 -177 l 2
 204 -204 191 -217 164 -217 c 2
 90 -217 l 2
 63 -217 50 -204 50 -178 c 2
 50 463 l 2
 50 491 64 505 92 505 c 2
 186 505 l 1xec
 204 481 l 1
 301 504 l 2
 310 507 317 508 328 508 c 0
 379 508 418 470 418 410 c 2xdc
264 163 m 2
 264 345 l 2
 264 362 252 372 236 372 c 2
 204 372 l 1
 204 136 l 1
 236 136 l 2
 252 136 264 148 264 163 c 2
EndSplineSet
EndChar

StartChar: q
Encoding: 113 113 52
Width: 468
Flags: MW
HStem: -217 21G<290.5 304 304 378> -20 20G<113.5 145.5> 485 20G<282 376 376 390> 488 20G<115.5 145.5>
VStem: 50 154<155.5 163 163 345> 264 154<-177 27 27 27 136 372 372 372>
LayerCount: 2
Fore
SplineSet
50 98 m 2xec
 50 410 l 2
 50 470 91 508 140 508 c 0xdc
 151 508 158 507 167 504 c 2
 264 481 l 1
 282 505 l 1
 376 505 l 2
 404 505 418 491 418 463 c 2
 418 -178 l 2
 418 -204 405 -217 378 -217 c 2
 304 -217 l 2
 277 -217 264 -204 264 -177 c 2
 264 27 l 1
 175 5 l 2
 166 2 151 0 140 0 c 0
 87 0 50 38 50 98 c 2xec
204 345 m 2
 204 163 l 2
 204 148 217 136 232 136 c 2
 264 136 l 1
 264 372 l 1
 232 372 l 2
 216 372 204 362 204 345 c 2
EndSplineSet
EndChar

StartChar: r
Encoding: 114 114 53
Width: 324
Flags: MW
HStem: 0 21G<76.5 90 90 164> 485 20G<90 185 185 185>
VStem: 50 154<40 354>
LayerCount: 2
Fore
SplineSet
277 354 m 2
 204 354 l 1
 204 40 l 2
 204 13 191 0 164 0 c 2
 90 0 l 2
 63 0 50 13 50 40 c 2
 50 465 l 2
 50 492 63 505 90 505 c 2
 185 505 l 1
 204 463 l 1
 255 501 l 2
 274 514 313 507 313 472 c 2
 313 390 l 2
 313 369 298 354 277 354 c 2
EndSplineSet
EndChar

StartChar: s
Encoding: 115 115 54
Width: 374
Flags: MW
HStem: 0 136<74.5 172 88 172 172 177.5 88 247> 369 136<196.5 202 202 286>
LayerCount: 2
Fore
SplineSet
181 170 m 2
 73 258 l 2
 46 281 30 300 30 335 c 2
 30 407 l 2
 30 467 68 505 128 505 c 2
 286 505 l 2
 313 505 326 492 326 465 c 2
 326 409 l 2
 326 382 313 369 286 369 c 2
 202 369 l 2
 191 369 184 360 184 352 c 2
 184 351 l 2
 184 342 188 340 193 336 c 2
 301 247 l 2
 329 224 344 205 344 170 c 2
 344 98 l 2
 344 38 306 0 247 0 c 2
 88 0 l 2
 61 0 48 13 48 40 c 2
 48 96 l 2
 48 123 61 136 88 136 c 2
 172 136 l 2
 183 136 190 145 190 154 c 2
 190 155 l 2
 190 160 187 165 181 170 c 2
EndSplineSet
EndChar

StartChar: t
Encoding: 116 116 55
Width: 328
Flags: MW
HStem: 0 136<157 277 272 277 272 277> 369 136<56.5 76 70 76 230 258> 630 20G<116 190 190 203.5>
VStem: 76 241<26.5 369>
LayerCount: 2
Fore
SplineSet
76 120 m 2
 76 369 l 1
 70 369 l 2
 43 369 30 382 30 409 c 2
 30 465 l 2
 30 492 43 505 70 505 c 2
 76 505 l 1
 76 610 l 2
 76 637 89 650 116 650 c 2
 190 650 l 2
 217 650 230 637 230 610 c 2
 230 505 l 1
 258 505 l 2
 285 505 298 492 298 465 c 2
 298 409 l 2
 298 382 285 369 258 369 c 2
 230 369 l 1
 230 178 l 2xf0
 230 150 244 136 272 136 c 2
 277 136 l 2
 304 136 317 123 317 96 c 2
 317 40 l 2
 317 13 304 0 277 0 c 2
 191 0 l 2
 123 0 76 44 76 120 c 2
EndSplineSet
EndChar

StartChar: u
Encoding: 117 117 56
Width: 468
Flags: MW
HStem: -20 20G<282 382 282 282> -3 21G<114.5 144.5> 485 20G<90 164 164 177.5 304 378 378 391.5>
VStem: 50 154<151.5 160 160 465> 264 154<24 36 133 465>
LayerCount: 2
Fore
SplineSet
418 465 m 2x78
 418 36 l 2
 418 16 402 0 382 0 c 2
 282 0 l 1xb8
 264 24 l 1
 167 1 l 2
 158 -2 149 -3 140 -3 c 0
 89 -3 50 35 50 95 c 2
 50 465 l 2
 50 492 63 505 90 505 c 2
 164 505 l 2
 191 505 204 492 204 465 c 2
 204 160 l 2
 204 143 216 133 231 133 c 2
 264 133 l 1
 264 465 l 2
 264 492 277 505 304 505 c 2
 378 505 l 2
 405 505 418 492 418 465 c 2x78
EndSplineSet
EndChar

StartChar: v
Encoding: 118 118 57
Width: 424
Flags: MW
HStem: 0 21G<108.5 117 117 307> 485 20G<56 131 131 140.5 295 368 368 378>
LayerCount: 2
Fore
SplineSet
56 505 m 2
 131 505 l 2
 150 505 164 493 167 476 c 2
 213 126 l 1
 260 476 l 2
 263 493 278 505 295 505 c 2
 368 505 l 2
 388 505 407 487 404 463 c 2
 342 30 l 2
 339 13 326 0 307 0 c 2
 117 0 l 2
 100 0 85 11 82 30 c 2
 20 462 l 2
 17 485 33 505 56 505 c 2
EndSplineSet
EndChar

StartChar: w
Encoding: 119 119 58
Width: 613
Flags: MW
HStem: 0 21G<91.5 100 100 242 363.5 371 371 514> 485 20G<51 134 134 142.5 276 339 339 347 480 563 563 571>
LayerCount: 2
Fore
SplineSet
341 23 m 1
 306 289 l 1
 273 23 l 1
 270 10 257 0 242 0 c 2
 100 0 l 2
 83 0 72 10 69 25 c 1
 20 480 l 2
 19 495 34 505 51 505 c 2
 134 505 l 2
 151 505 164 495 165 480 c 2
 199 134 l 1
 245 482 l 1
 248 495 259 505 276 505 c 2
 339 505 l 2
 355 505 366 495 369 482 c 1
 415 132 l 1
 449 480 l 2
 450 495 463 505 480 505 c 2
 563 505 l 2
 579 505 594 495 593 480 c 2
 544 25 l 1
 541 10 530 0 514 0 c 2
 371 0 l 2
 356 0 344 10 341 23 c 1
EndSplineSet
EndChar

StartChar: x
Encoding: 120 120 59
Width: 447
Flags: MW
HStem: 0 21G<46 58 58 138 303.5 310 310 391> 485 20G
LayerCount: 2
Fore
SplineSet
63 505 m 2
 140 505 l 2
 154 505 165 498 172 484 c 2
 224 389 l 1
 277 485 l 2
 284 498 295 505 310 505 c 2
 396 505 l 2
 419 505 437 481 421 454 c 2
 300 254 l 1
 423 51 l 2
 436 28 418 0 391 0 c 2
 310 0 l 2
 297 0 286 8 277 23 c 2
 224 118 l 1
 172 23 l 2
 163 8 152 0 138 0 c 2
 58 0 l 2
 34 0 9 25 25 51 c 2
 149 254 l 1
 27 453 l 2
 12 476 28 505 63 505 c 2
EndSplineSet
EndChar

StartChar: y
Encoding: 121 121 60
Width: 424
Flags: MW
HStem: -217 21G<198.5 209 209 278> -20 20G<107.5 117 117 198> 485 20G<56 132 132 141.5 295 367 367 377.5>
LayerCount: 2
Fore
SplineSet
56 505 m 2
 132 505 l 2
 151 505 164 493 167 476 c 2
 213 126 l 1
 260 476 l 2
 263 493 278 505 295 505 c 2
 367 505 l 2
 388 505 408 488 404 463 c 2
 311 -187 l 2
 308 -207 297 -217 278 -217 c 2
 209 -217 l 2
 188 -217 167 -197 171 -173 c 2
 198 0 l 1
 117 0 l 2
 98 0 85 11 82 30 c 2
 20 462 l 2
 17 485 33 505 56 505 c 2
EndSplineSet
EndChar

StartChar: z
Encoding: 122 122 61
Width: 392
Flags: MW
HStem: 0 136<46.5 332 187 332 187 332> 369 136<46.5 332 60 205>
LayerCount: 2
Fore
SplineSet
60 505 m 2
 332 505 l 2
 359 505 372 492 372 465 c 2
 372 351 l 2
 372 342 367 331 364 328 c 2
 187 136 l 1
 332 136 l 2
 359 136 372 123 372 96 c 2
 372 40 l 2
 372 13 359 0 332 0 c 2
 60 0 l 2
 33 0 20 13 20 40 c 2
 20 155 l 2
 20 164 23 171 28 178 c 1
 205 369 l 1
 60 369 l 2
 33 369 20 382 20 409 c 2
 20 465 l 2
 20 492 33 505 60 505 c 2
EndSplineSet
EndChar

StartChar: braceleft
Encoding: 123 123 62
Width: 390
Flags: MW
HStem: -145 136<210 331 315 330> 272 136<46.5 62 60 62 62 63> 689 136<301 315 315 330>
VStem: 129 144<19 33 33 168 19 207 474 513 513 647> 129 241<-118.5 207 715.5 729 729 743>
CounterMasks: 1 e0
LayerCount: 2
Fore
SplineSet
244 825 m 2xe8
 330 825 l 2
 357 825 370 812 370 785 c 2
 370 729 l 2xe8
 370 702 357 689 330 689 c 2
 315 689 l 2
 287 689 273 675 273 647 c 2
 273 513 l 2
 273 430 230 369 166 341 c 1
 230 312 273 251 273 168 c 2
 273 33 l 2xf0
 273 5 287 -9 315 -9 c 2
 331 -9 l 2
 357 -9 370 -22 370 -49 c 2
 370 -105 l 2
 370 -132 357 -145 330 -145 c 2
 244 -145 l 2
 176 -145 129 -101 129 -25 c 2
 129 207 l 2
 129 246 104 272 63 272 c 2
 60 272 l 2
 33 272 20 286 20 313 c 2
 20 368 l 2
 20 395 33 408 60 408 c 2
 62 408 l 2
 105 408 129 433 129 474 c 2
 129 705 l 2
 129 781 176 825 244 825 c 2xe8
EndSplineSet
EndChar

StartChar: bar
Encoding: 124 124 63
Width: 254
Flags: MW
HStem: -217 21G<76.5 90 90 164> 805 20G<90 164 164 177.5>
VStem: 50 154<-177 785>
LayerCount: 2
Fore
SplineSet
50 -177 m 2
 50 785 l 2
 50 812 63 825 90 825 c 2
 164 825 l 2
 191 825 204 812 204 785 c 2
 204 -177 l 2
 204 -204 191 -217 164 -217 c 2
 90 -217 l 2
 63 -217 50 -204 50 -177 c 2
EndSplineSet
EndChar

StartChar: braceright
Encoding: 125 125 64
Width: 391
Flags: MW
HStem: -145 136<59 60 60 75 75 89 59 146> 272 136<306.5 331 328 331 328 331> 689 136<46.5 146 60 75>
VStem: 20 241<-63 -49 -49 -35.5> 117 144<33 168 168 207 513 647 647 661>
CounterMasks: 1 e0
LayerCount: 2
Fore
SplineSet
60 825 m 2xf0
 146 825 l 2
 214 825 261 781 261 705 c 2
 261 474 l 2
 261 433 285 408 328 408 c 2
 331 408 l 2
 358 408 371 395 371 368 c 2
 371 313 l 2
 371 286 358 272 331 272 c 2
 327 272 l 2
 286 272 261 246 261 207 c 2
 261 -25 l 2
 261 -101 214 -145 146 -145 c 2
 60 -145 l 2
 33 -145 20 -132 20 -105 c 2
 20 -49 l 2xf0
 20 -22 33 -9 59 -9 c 2
 75 -9 l 2
 103 -9 117 5 117 33 c 2
 117 168 l 2
 117 251 160 312 224 341 c 1
 160 369 117 430 117 513 c 2
 117 647 l 2xe8
 117 675 103 689 75 689 c 2
 60 689 l 2
 33 689 20 702 20 729 c 2
 20 785 l 2
 20 812 33 825 60 825 c 2xf0
EndSplineSet
EndChar

StartChar: asciitilde
Encoding: 126 126 65
Width: 557
Flags: W
LayerCount: 2
Fore
SplineSet
45 222 m 2
 80 285 l 2
 112 343 221 371 310 304 c 1
 325 293 l 2
 346 278 360 278 368 293 c 2
 376 307 l 2
 388 326 396 329 411 329 c 2
 494 329 l 2
 513 329 523 312 512 292 c 2
 477 228 l 2
 445 170 336 142 247 209 c 1
 228 223 l 2
 211 236 198 235 189 220 c 2
 181 206 l 2
 170 187 161 184 146 184 c 2
 62 184 l 2
 43 184 34 203 45 222 c 2
EndSplineSet
EndChar

StartChar: ff
Encoding: 64256 64256 66
Width: 588
Flags: MW
HStem: 0 21G<128.5 142 142 216 362.5 376 376 450> 369 136<56.5 102 70 102 256 336 490 518> 658 139
VStem: 102 154<39 40 40 369 505 634> 336 154<40 369 505 616>
LayerCount: 2
Fore
SplineSet
285 791 m 2
 376 770 l 1
 400 789 427 794 451 794 c 2
 537 794 l 2
 564 794 577 781 577 754 c 2
 577 698 l 2
 577 671 564 658 537 658 c 2
 532 658 l 2
 504 658 490 644 490 616 c 2
 490 505 l 1
 518 505 l 2
 545 505 558 492 558 465 c 2
 558 409 l 2
 558 385 543 369 518 369 c 2
 490 369 l 1
 490 40 l 2
 490 13 477 0 450 0 c 2
 376 0 l 2
 349 0 336 13 336 40 c 2
 336 369 l 1
 256 369 l 1
 256 40 l 2
 256 13 243 0 216 0 c 2
 142 0 l 2
 115 0 102 13 102 39 c 2
 102 369 l 1
 70 369 l 2
 43 369 30 382 30 408 c 2
 30 466 l 2
 30 492 43 505 70 505 c 2
 102 505 l 1
 102 682 l 2
 102 759 160 797 219 797 c 0
 250 797 264 796 285 791 c 2
338 661 m 1
 284 661 l 2
 268 661 256 651 256 634 c 2
 256 505 l 1
 336 505 l 1
 336 652 l 2
 336 655 337 658 338 661 c 1
EndSplineSet
Ligature2: "'liga' Standard Ligatures in Latin lookup 2 subtable" f f
EndChar

StartChar: ft
Encoding: 57348 57348 67
Width: 588
Flags: MW
HStem: 0 136<417 538 532 537> 369 136<56 102 70 102 70 102 256 336 490 518> 658 136<284 298 298 303 303 304>
VStem: 102 154<40 369 505 616> 102 241<505 698 684.5 698 698 713> 336 154<164 178 178 369 505 610> 336 241<26.5 369>
LayerCount: 2
Fore
SplineSet
216 794 m 2xf4
 303 794 l 2
 330 794 343 781 343 754 c 2
 343 698 l 2xe8
 343 671 330 658 304 658 c 2
 298 658 l 2
 270 658 256 644 256 616 c 2
 256 505 l 1
 336 505 l 1
 336 611 l 2
 336 637 349 650 376 650 c 2
 450 650 l 2
 477 650 490 637 490 610 c 2
 490 505 l 1
 518 505 l 2
 545 505 558 492 558 465 c 2
 558 409 l 2
 558 382 545 369 518 369 c 2
 490 369 l 1
 490 178 l 2xf4
 490 150 504 136 532 136 c 2
 538 136 l 2
 562 136 577 123 577 96 c 2
 577 40 l 2xf2
 577 13 564 0 537 0 c 2
 451 0 l 2
 383 0 336 44 336 120 c 2
 336 369 l 1
 256 369 l 1
 256 39 l 2
 256 13 243 0 216 0 c 2
 142 0 l 2
 115 0 102 13 102 40 c 2
 102 369 l 1
 69 369 l 2
 43 369 30 382 30 409 c 2
 30 465 l 2
 30 492 43 505 70 505 c 2
 102 505 l 1
 102 675 l 2
 102 751 151 794 216 794 c 2xf4
EndSplineSet
Ligature2: "'liga' Standard Ligatures in Latin lookup 2 subtable" f t
EndChar

StartChar: ffi
Encoding: 64259 64259 68
Width: 768
Flags: MW
HStem: 0 21G<128.5 142 142 216 362.5 376 376 450 596.5 610 610 684> 369 136<56.5 102 70 102 256 336 490 570> 658 136<518 532 532 677> 777 20G<189.5 233.5>
VStem: 102 154<39 40 40 369 505 634> 336 154<40 369 505 616> 570 154<40 369 369 369>
CounterMasks: 1 0e
LayerCount: 2
Fore
SplineSet
219 797 m 0xde
 248 797 266 795 285 791 c 2
 376 770 l 1
 400 789 427 794 452 794 c 2
 677 794 l 2
 704 794 717 781 717 754 c 2
 717 698 l 2
 717 671 704 658 677 658 c 2
 532 658 l 2xee
 504 658 490 644 490 616 c 2
 490 505 l 1
 684 505 l 2
 711 505 724 492 724 465 c 2
 724 40 l 2
 724 13 711 0 684 0 c 2
 610 0 l 2
 583 0 570 13 570 40 c 2
 570 369 l 1
 490 369 l 1
 490 40 l 2
 490 13 477 0 450 0 c 2
 376 0 l 2
 349 0 336 13 336 40 c 2
 336 369 l 1
 256 369 l 1
 256 40 l 2
 256 13 243 0 216 0 c 2
 142 0 l 2
 115 0 102 13 102 39 c 2
 102 369 l 1
 70 369 l 2
 43 369 30 382 30 408 c 2
 30 466 l 2
 30 492 43 505 70 505 c 2
 102 505 l 1
 102 682 l 2
 102 759 160 797 219 797 c 0xde
338 661 m 1
 284 661 l 2
 268 661 256 651 256 634 c 2
 256 505 l 1
 336 505 l 1
 336 652 l 2
 336 655 337 658 338 661 c 1
EndSplineSet
Ligature2: "'liga' Standard Ligatures in Latin lookup 1 subtable" f f i
EndChar

StartChar: ffl
Encoding: 64260 64260 69
Width: 754
Flags: MW
HStem: 0 21G<128.5 142 142 216 362.5 376 376 450 596.5 610 610 684> 369 136<56.5 102 70 102 256 336 490 495> 658 136<520.5 536 536 570> 777 20G<189.5 234.5>
VStem: 102 154<39 40 40 369 505 634> 336 154<40 369 505 616> 570 154<40 658 658 658>
CounterMasks: 1 0e
LayerCount: 2
Fore
SplineSet
219 797 m 0xde
 250 797 265 796 285 791 c 2
 376 770 l 1
 400 789 426 794 461 794 c 2
 687 794 l 2
 712 794 724 781 724 754 c 2
 724 40 l 2
 724 13 711 0 684 0 c 2
 610 0 l 2
 583 0 570 13 570 40 c 2
 570 658 l 1
 536 658 l 2xee
 505 658 490 644 490 616 c 2
 490 505 l 1
 495 505 l 2
 522 505 535 492 535 465 c 2
 535 409 l 2
 535 382 519 369 495 369 c 2
 490 369 l 1
 490 39 l 2
 490 12 474 0 450 0 c 2
 376 0 l 2
 349 0 336 13 336 40 c 2
 336 369 l 1
 256 369 l 1
 256 40 l 2
 256 13 243 0 216 0 c 2
 142 0 l 2
 115 0 102 13 102 39 c 2
 102 369 l 1
 70 369 l 2
 43 369 30 382 30 408 c 2
 30 466 l 2
 30 492 43 505 70 505 c 2
 102 505 l 1
 102 683 l 2
 102 759 160 797 219 797 c 0xde
338 661 m 1
 284 661 l 2
 268 661 256 651 256 634 c 2
 256 505 l 1
 336 505 l 1
 336 652 l 2
 336 655 337 658 338 661 c 1
EndSplineSet
Ligature2: "'liga' Standard Ligatures in Latin lookup 2 subtable" f f l
EndChar

StartChar: fj
Encoding: 57347 57347 70
Width: 534
Flags: MW
HStem: -217 21G<289.5 303 303 363> -20 20G<128.5 142 142 216> 369 136<56.5 102 70 102 256 336> 658 136<284 298 298 443>
VStem: 102 154<40 369 505 616> 263 227<-135.5 -121 -121 -108.5> 336 154<-45 369 369 369>
LayerCount: 2
Fore
SplineSet
336 -45 m 2xfa
 336 369 l 1xfa
 256 369 l 1
 256 40 l 2
 256 13 243 0 216 0 c 2
 142 0 l 2
 115 0 102 13 102 40 c 2
 102 369 l 1
 70 369 l 2
 43 369 30 382 30 408 c 2
 30 466 l 2
 30 492 43 505 70 505 c 2
 102 505 l 1
 102 674 l 2
 102 750 160 794 227 794 c 2
 443 794 l 2
 470 794 483 781 483 754 c 2
 483 698 l 2
 483 671 470 658 443 658 c 2
 298 658 l 2
 270 658 256 644 256 616 c 2
 256 505 l 1
 450 505 l 2
 477 505 490 492 490 465 c 2
 490 -100 l 2
 490 -171 433 -217 363 -217 c 2
 303 -217 l 2
 276 -217 263 -204 263 -177 c 2
 263 -121 l 2xfc
 263 -96 276 -81 299 -81 c 2
 301 -81 l 2
 320 -81 336 -65 336 -45 c 2xfa
EndSplineSet
Ligature2: "'liga' Standard Ligatures in Latin lookup 2 subtable" f j
EndChar

StartChar: ffj
Encoding: 57346 57346 71
Width: 768
Flags: MW
HStem: -217 21G<523.5 537 537 597> -20 20G<128.5 142 142 216 362.5 376 376 450> 369 136<56.5 102 70 102 256 336 490 570> 658 136<518 532 532 677> 777 20G<189.5 233.5>
VStem: 102 154<39 40 40 369 505 634> 336 154<40 369 505 616> 497 227<-134.5 -121 -121 -107.5> 570 154<-45 369 369 369>
LayerCount: 2
Fore
SplineSet
570 -45 m 2xf680
 570 369 l 1
 490 369 l 1
 490 40 l 2
 490 13 477 0 450 0 c 2
 376 0 l 2
 349 0 336 13 336 40 c 2
 336 369 l 1
 256 369 l 1
 256 40 l 2
 256 13 243 0 216 0 c 2
 142 0 l 2
 115 0 102 13 102 39 c 2
 102 369 l 1
 70 369 l 2
 43 369 30 382 30 408 c 2
 30 466 l 2
 30 492 43 505 70 505 c 2
 102 505 l 1
 102 682 l 2
 102 759 160 797 219 797 c 0xee80
 248 797 266 795 285 791 c 2
 376 770 l 1
 400 789 427 794 452 794 c 2
 677 794 l 2
 704 794 717 781 717 754 c 2
 717 698 l 2
 717 671 704 658 677 658 c 2
 532 658 l 2
 504 658 490 644 490 616 c 2
 490 505 l 1
 684 505 l 2
 711 505 724 492 724 465 c 2
 724 -100 l 2
 724 -169 667 -217 597 -217 c 2
 537 -217 l 2
 510 -217 497 -204 497 -177 c 2
 497 -121 l 2xf7
 497 -94 510 -81 533 -81 c 2
 535 -81 l 2
 554 -81 570 -65 570 -45 c 2xf680
338 661 m 1
 284 661 l 2
 268 661 256 651 256 634 c 2
 256 505 l 1
 336 505 l 1
 336 652 l 2
 336 655 337 658 338 661 c 1
EndSplineSet
Ligature2: "'liga' Standard Ligatures in Latin lookup 2 subtable" f f j
EndChar

StartChar: dagger
Encoding: 8224 8224 72
Width: 479
Flags: MW
HStem: -217 21G<198.5 212 212 266> 437 136<37.5 172 51 172 306 427 51 306> 805 20G<212 266 266 279.5>
VStem: 172 134<-177 437 573 784>
LayerCount: 2
Fore
SplineSet
212 825 m 2
 266 825 l 2
 293 825 306 811 306 784 c 2
 306 573 l 1
 428 573 l 2
 455 573 468 560 468 533 c 2
 468 477 l 2
 468 450 454 437 427 437 c 2
 306 437 l 1
 306 -177 l 2
 306 -204 293 -217 266 -217 c 2
 212 -217 l 2
 185 -217 172 -204 172 -177 c 2
 172 437 l 1
 51 437 l 2
 24 437 11 450 11 477 c 2
 11 533 l 2
 11 560 24 573 51 573 c 2
 172 573 l 1
 172 785 l 2
 172 812 185 825 212 825 c 2
EndSplineSet
EndChar

StartChar: degree
Encoding: 176 176 73
Width: 498
Flags: MW
HStem: 284 123<136.5 259 239 259 259 281 239 316> 599 123<218.5 238 238 260>
VStem: 30 141<453.5 477 477 530 453.5 569 453.5 614.5> 327 141<476 527 527 550.5>
LayerCount: 2
Fore
SplineSet
316 284 m 2
 182 284 l 2
 91 284 30 347 30 437 c 2
 30 569 l 2
 30 660 93 722 183 722 c 2
 315 722 l 2
 406 722 468 659 468 568 c 2
 468 437 l 2
 468 348 407 284 316 284 c 2
327 476 m 2
 327 527 l 2
 327 574 297 599 260 599 c 2
 238 599 l 2
 199 599 171 573 171 530 c 2
 171 477 l 2
 171 430 199 407 239 407 c 2
 259 407 l 2
 303 407 327 432 327 476 c 2
EndSplineSet
EndChar

StartChar: cent
Encoding: 162 162 74
Width: 346
Flags: MW
HStem: 109 244<152.5 286 166 286> 217 136<263 286 286 291 263 263> 586 136<232.5 291 263 286> 586 244<232.5 236.5 166 247 166 286>
VStem: 50 154<381 395 395 544 381 624> 126 137<149 217 135.5 219 135.5 219 722 790>
LayerCount: 2
Fore
SplineSet
166 830 m 2x94
 223 830 l 2x98
 250 830 263 817 263 790 c 2
 263 722 l 1xa4
 291 722 l 2
 318 722 326 709 326 682 c 2
 326 626 l 2
 326 599 313 586 286 586 c 2
 247 586 l 2
 218 586 204 572 204 544 c 2
 204 395 l 2xa8
 204 367 218 353 247 353 c 2
 286 353 l 2
 313 353 326 340 326 313 c 2
 326 257 l 2
 326 230 318 217 291 217 c 2
 263 217 l 1x64
 263 149 l 2
 263 122 250 109 223 109 c 2
 166 109 l 2
 139 109 126 122 126 149 c 2
 126 219 l 1xa4
 125 219 l 1
 86 226 50 255 50 315 c 2
 50 624 l 2xa8
 50 684 86 713 125 720 c 1
 126 720 l 1
 126 791 l 2
 126 817 139 830 166 830 c 2x94
EndSplineSet
EndChar

StartChar: sterling
Encoding: 163 163 75
Width: 478
Flags: MW
HStem: 0 136<59 60 60 117 244 418> 281 136<47.5 117 61 117 271 365> 586 136<326.5 353 353 365>
VStem: 117 154<252.5 258 258 281 252.5 281 417 503>
LayerCount: 2
Fore
SplineSet
270 722 m 2
 365 722 l 2
 392 722 405 709 405 682 c 2
 405 626 l 2
 405 599 392 586 365 586 c 2
 353 586 l 2
 300 586 271 550 271 503 c 2
 271 417 l 1
 365 417 l 2
 392 417 405 404 405 377 c 2
 405 321 l 2
 405 294 392 281 365 281 c 2
 271 281 l 1
 271 258 l 2
 271 247 270 225 267 214 c 2
 244 136 l 1
 418 136 l 2
 445 136 458 123 458 96 c 2
 458 40 l 2
 458 13 445 0 418 0 c 2
 60 0 l 2
 33 0 20 13 20 40 c 2
 20 96 l 2
 20 123 33 136 59 136 c 2
 117 136 l 1
 117 281 l 1
 61 281 l 2
 34 281 21 294 21 321 c 2
 21 377 l 2
 21 404 34 417 61 417 c 2
 117 417 l 1
 117 569 l 2
 117 660 180 722 270 722 c 2
EndSplineSet
EndChar

StartChar: section
Encoding: 167 167 76
Width: 494
Flags: MW
HStem: -217 136<94.5 221 108 221 221 243 108 310> 586 136<251.5 273 273 368>
VStem: 50 136<271.5 284 284 307 271.5 356 271.5 374.5> 50 154<252 519 356 519 506.5 519 519 527 506.5 588 506.5 628> 290 154<-21 -15 -15 -1.5> 308 136<199 220 220 233.5>
LayerCount: 2
Fore
SplineSet
184 722 m 2xe8
 368 722 l 2
 395 722 408 709 408 682 c 2
 408 626 l 2
 408 599 395 586 368 586 c 2
 273 586 l 2
 230 586 204 570 204 527 c 2
 204 519 l 2xd4
 204 494 213 475 231 463 c 2
 390 361 l 2
 425 338 444 303 444 252 c 2
 444 149 l 2
 444 114 434 92 425 77 c 1
 432 69 444 44 444 5 c 2
 444 -83 l 2
 444 -163 390 -217 310 -217 c 2
 108 -217 l 2
 81 -217 68 -204 68 -177 c 2
 68 -120 l 2
 68 -94 81 -81 108 -81 c 2
 221 -81 l 2
 265 -81 290 -62 290 -21 c 2
 290 -15 l 2
 290 12 279 30 263 41 c 2
 104 143 l 2
 72 164 50 201 50 252 c 2
 50 356 l 2
 50 393 61 417 68 428 c 1
 61 439 50 459 50 499 c 2
 50 588 l 2
 50 668 104 722 184 722 c 2xe8
191 337 m 1
 188 330 186 320 186 307 c 2
 186 284 l 2xe8
 186 259 195 240 213 228 c 2
 293 174 l 2
 297 171 300 169 302 168 c 1
 306 175 308 186 308 199 c 2
 308 220 l 2
 308 247 297 265 281 276 c 2
 200 331 l 2
 196 334 196 333 191 337 c 1
EndSplineSet
EndChar

StartChar: bullet
Encoding: 8226 8226 77
Width: 360
Flags: MW
HStem: 217 21G<105.5 129 129 231> 457 20G<128 231 231 254.5>
LayerCount: 2
Fore
SplineSet
231 217 m 2
 129 217 l 2
 82 217 50 248 50 300 c 2
 50 394 l 2
 50 447 81 477 128 477 c 2
 231 477 l 2
 278 477 310 448 310 393 c 2
 310 300 l 2
 310 248 278 217 231 217 c 2
EndSplineSet
EndChar

StartChar: paragraph
Encoding: 182 182 78
Width: 727
Flags: MW
HStem: -217 21G<265.5 279 279 353 482.5 496 496 570> 392 136<98 239 190 239 190 239> 658 136<190.5 196 196 239 393 456 393 393 610 667 610 610>
VStem: 30 143<547.5 553 553 633 547.5 696> 239 154<-177 392 392 392 528 658> 456 154<-177 658>
LayerCount: 2
Fore
SplineSet
128 794 m 2
 667 794 l 2
 694 794 707 781 707 754 c 2
 707 698 l 2
 707 671 694 658 667 658 c 2
 610 658 l 1
 610 -177 l 2
 610 -204 597 -217 570 -217 c 2
 496 -217 l 2
 469 -217 456 -204 456 -177 c 2
 456 658 l 1
 393 658 l 1
 393 -177 l 2
 393 -204 380 -217 353 -217 c 2
 279 -217 l 2
 252 -217 239 -204 239 -177 c 2
 239 392 l 1
 128 392 l 2
 68 392 30 429 30 490 c 2
 30 696 l 2
 30 756 68 794 128 794 c 2
239 658 m 1
 196 658 l 2
 185 658 173 646 173 633 c 2
 173 553 l 2
 173 542 175 528 190 528 c 2
 239 528 l 1
 239 658 l 1
EndSplineSet
EndChar

StartChar: germandbls
Encoding: 223 223 79
Width: 591
Flags: MW
HStem: 0 136<142 352 314.5 352 328 352 352 366.5 328 453> 369 136<56.5 102 70 102 328 330> 658 136<284 298 298 351>
VStem: 30 226<409 465 465 478.5> 102 154<40 369 369 369 505 616> 397 154<183 265 571 610 610 611 611 625.5>
LayerCount: 2
Fore
SplineSet
256 616 m 2xec
 256 40 l 2
 256 13 243 0 217 0 c 2
 142 0 l 2
 115 0 102 13 102 40 c 2
 102 369 l 1xec
 70 369 l 2
 43 369 30 382 30 409 c 2
 30 465 l 2xf4
 30 492 43 505 70 505 c 2
 102 505 l 1
 102 674 l 2
 102 750 149 794 217 794 c 2
 453 794 l 2
 513 794 551 756 551 696 c 2
 551 610 l 2
 551 526 508 466 444 438 c 1
 508 409 551 349 551 265 c 2
 551 98 l 2
 551 38 514 0 453 0 c 2
 328 0 l 2
 301 0 288 13 288 39 c 2
 288 97 l 2
 288 123 301 136 328 136 c 2
 352 136 l 2
 381 136 397 155 397 183 c 2
 397 304 l 2
 397 343 373 369 330 369 c 2
 328 369 l 2
 301 369 288 383 288 410 c 2
 288 465 l 2
 288 492 301 505 328 505 c 2
 330 505 l 2
 377 505 397 524 397 571 c 2
 397 611 l 2
 397 640 380 658 351 658 c 2
 298 658 l 2
 270 658 256 644 256 616 c 2xec
EndSplineSet
EndChar

StartChar: registered
Encoding: 174 174 80
Width: 418
Flags: MW
HStem: 352 70<99.5 270 145 270 270 282 145 292> 724 70<133.5 144 144 270>
VStem: 40 69<447.5 459 459 688> 134 58<461 546 593 640> 134 151<596 604 604 646 596 686 596 690.5> 306 72<459 688 688 700.5>
LayerCount: 2
Fore
SplineSet
40 438 m 2xf4
 40 708 l 2
 40 756 69 794 125 794 c 2
 292 794 l 2
 345 794 378 760 378 708 c 2
 378 438 l 2
 378 387 347 352 292 352 c 2
 125 352 l 2
 74 352 40 385 40 438 c 2xf4
109 688 m 2
 109 459 l 2
 109 436 122 422 145 422 c 2
 270 422 l 2
 294 422 306 434 306 459 c 2
 306 688 l 2
 306 713 291 724 270 724 c 2
 144 724 l 2
 123 724 109 711 109 688 c 2
147 699 m 2
 230 699 l 2
 263 699 285 675 285 646 c 2
 285 604 l 2xec
 285 588 275 569 256 560 c 1
 264 553 271 536 274 524 c 2
 291 462 l 2
 294 454 285 447 277 447 c 2
 245 447 l 2
 236 447 231 450 230 455 c 2
 214 535 l 2
 213 542 208 546 200 546 c 2
 192 546 l 1
 192 461 l 2
 192 452 188 447 179 447 c 2
 147 447 l 2
 138 447 134 452 134 461 c 2
 134 686 l 2
 134 695 138 699 147 699 c 2
205 647 m 2
 199 647 l 2
 194 647 192 645 192 640 c 2
 192 593 l 1xf4
 203 593 l 2
 217 593 224 600 224 615 c 2
 224 623 l 2
 224 639 218 647 205 647 c 2
EndSplineSet
EndChar

StartChar: copyright
Encoding: 169 169 81
Width: 653
Flags: MW
HStem: 0 126<158.5 418 232 418 418 440 232 443> 170 94<269.5 416 343 416 343 416> 458 94<335.5 343 343 416> 596 126<211 232 232 418>
VStem: 40 126<174.5 196 196 526> 210 105<283.5 291 291 431> 210 233<0 0 477.5 485 485 491.5> 487 126<196 526 526 548.5>
LayerCount: 2
Fore
SplineSet
613 552 m 2xfb
 613 172 l 2
 613 72 546 0 443 0 c 2
 210 0 l 2
 107 0 40 72 40 172 c 2
 40 552 l 2
 40 650 110 722 211 722 c 2
 442 722 l 2
 543 722 613 650 613 552 c 2xfb
487 196 m 2
 487 526 l 2
 487 571 461 596 418 596 c 2
 232 596 l 2
 189 596 166 571 166 526 c 2
 166 196 l 2
 166 153 189 126 232 126 c 2
 418 126 l 2
 462 126 487 153 487 196 c 2
210 259 m 2
 210 463 l 2
 210 520 243 552 294 552 c 2
 416 552 l 2
 431 552 443 540 443 525 c 2
 443 485 l 2xfb
 443 470 431 458 416 458 c 2
 343 458 l 2
 328 458 315 446 315 431 c 2
 315 291 l 2xfd
 315 276 328 264 343 264 c 2
 416 264 l 2
 431 264 443 252 443 237 c 2
 443 197 l 2
 443 182 431 170 416 170 c 2
 295 170 l 2
 244 170 210 203 210 259 c 2
EndSplineSet
EndChar

StartChar: trademark
Encoding: 8482 8482 82
Width: 658
Flags: MW
HStem: 436 21G<103.5 111 111 152 308 315 315 350 418.5 424 424 467 534.5 542 542 577> 651 71<25.5 230 33 89 173 173 173 230>
VStem: 89 84<458 651> 294 78<458 628> 520 78<458 628 628 628>
LayerCount: 2
Fore
SplineSet
414 704 m 1
 447 539 l 1
 477 704 l 2
 480 715 486 722 497 722 c 2
 577 722 l 2
 591 722 598 715 598 700 c 2
 598 458 l 2
 598 443 591 436 577 436 c 2
 542 436 l 2
 527 436 520 443 520 458 c 2
 520 628 l 1
 487 454 l 1
 484 445 478 436 467 436 c 2
 424 436 l 2
 413 436 408 445 405 454 c 1
 372 628 l 1
 372 458 l 2
 372 443 365 436 350 436 c 2
 315 436 l 2
 301 436 294 443 294 458 c 2
 294 700 l 2
 294 715 301 722 315 722 c 2
 395 722 l 2
 406 722 413 715 414 704 c 1
89 458 m 2
 89 651 l 1
 33 651 l 2
 18 651 11 658 11 671 c 2
 11 700 l 2
 11 715 18 722 33 722 c 2
 230 722 l 2
 245 722 252 715 252 700 c 2
 252 671 l 2
 252 658 245 651 230 651 c 2
 173 651 l 1
 173 458 l 2
 173 443 166 436 152 436 c 2
 111 436 l 2
 96 436 89 443 89 458 c 2
EndSplineSet
EndChar

StartChar: notequal
Encoding: 8800 8800 83
Width: 457
Flags: MW
HStem: -71 21G<76 88 88 161> 73 136<57.5 388 71 99 235 235 235 388> 297 136<56.5 223 70 223 359 387> 557 20G<297 370 370 382>
LayerCount: 2
Fore
SplineSet
161 -71 m 2
 88 -71 l 2
 64 -71 52 -56 63 -31 c 1
 99 73 l 1
 71 73 l 2
 44 73 31 86 31 113 c 2
 31 169 l 2
 31 196 44 209 71 209 c 2
 388 209 l 2
 415 209 428 196 428 169 c 2
 428 113 l 2
 428 86 415 73 388 73 c 2
 235 73 l 1
 194 -46 l 2
 187 -65 178 -71 161 -71 c 2
297 577 m 2
 370 577 l 2
 394 577 406 562 395 537 c 1
 359 433 l 1
 387 433 l 2
 414 433 427 420 427 393 c 2
 427 337 l 2
 427 310 414 297 387 297 c 2
 70 297 l 2
 43 297 30 310 30 337 c 2
 30 393 l 2
 30 420 43 433 70 433 c 2
 223 433 l 1
 264 552 l 2
 271 571 280 577 297 577 c 2
EndSplineSet
EndChar

StartChar: AE
Encoding: 198 198 84
Width: 719
Flags: MW
HStem: 0 136<523 659 659 660> 140 136<201 352 240 352 240 352> 297 136<505 615 505 615> 586 136<517.5 524 524 659 659 660>
VStem: 352 153<30 154 140 154 276 297 433 567>
LayerCount: 2
Fore
SplineSet
283 722 m 2
 659 722 l 2
 686 722 699 709 699 682 c 2
 699 626 l 2
 699 599 686 586 660 586 c 2
 524 586 l 2
 511 586 505 580 505 567 c 2
 505 433 l 1
 615 433 l 2
 641 433 654 420 654 393 c 2
 654 337 l 2
 654 310 641 297 615 297 c 2
 505 297 l 1
 505 154 l 2
 505 143 512 136 523 136 c 2
 659 136 l 2
 686 136 699 123 699 96 c 2
 699 40 l 2
 699 13 686 0 660 0 c 2
 382 0 l 2
 365 0 352 11 352 30 c 2
 352 140 l 1
 206 140 l 2
 196 140 189 135 186 124 c 2
 152 30 l 1
 145 14 131 0 112 0 c 2
 42 0 l 2
 21 0 5 19 13 42 c 2
 243 692 l 1
 250 708 266 722 283 722 c 2
352 276 m 1
 352 596 l 1
 240 276 l 1
 352 276 l 1
EndSplineSet
Position2: "'cpsp' Capital Spacing in Latin lookup 0 subtable" dx=7 dy=0 dh=14 dv=0
EndChar

StartChar: Oslash
Encoding: 216 216 85
Width: 511
Flags: MW
HStem: -144 21G<80.5 93 93 163> 0 136<252 260 260 279 252 317 230 260> 586 136<232 251 251 259> 846 20G<355 424 424 437.5>
VStem: 40 154<175.5 195 195 527> 317 154<0 153 195 527 527 546.5>
LayerCount: 2
Fore
SplineSet
355 866 m 2
 424 866 l 2
 451 866 460 853 452 826 c 2
 415 691 l 1
 451 664 471 616 471 569 c 2
 471 153 l 2
 471 63 409 0 317 0 c 2
 230 0 l 1
 198 -114 l 2
 191 -138 182 -144 163 -144 c 2
 93 -144 l 2
 68 -144 57 -133 65 -104 c 2
 101 27 l 1
 74 46 40 86 40 154 c 2
 40 569 l 2
 40 660 103 722 194 722 c 2
 287 722 l 1
 320 840 l 2
 325 859 332 866 355 866 c 2
317 195 m 2
 317 527 l 2
 317 566 298 586 259 586 c 2
 251 586 l 2
 213 586 194 566 194 527 c 2
 194 195 l 2
 194 156 213 136 252 136 c 2
 260 136 l 2
 298 136 317 156 317 195 c 2
EndSplineSet
Position2: "'cpsp' Capital Spacing in Latin lookup 0 subtable" dx=7 dy=0 dh=14 dv=0
EndChar

StartChar: infinity
Encoding: 8734 8734 86
Width: 666
Flags: MW
HStem: 218 117<114.5 240 194 213 427 454 454 475 475 484.5> 392 118<182.5 194 194 213 213 240 454 475>
VStem: 40 119<348.5 360 360 368 348.5 403 348.5 435> 507 119<359 369 369 379>
LayerCount: 2
Fore
SplineSet
40 325 m 2
 40 403 l 2
 40 467 83 510 146 510 c 2
 213 510 l 2
 272 510 314 479 333 435 c 1
 353 479 395 510 454 510 c 2
 519 510 l 2
 583 510 626 467 626 403 c 2
 626 325 l 2
 626 261 583 218 519 218 c 2
 454 218 l 2
 395 218 353 249 333 293 c 1
 314 249 272 218 213 218 c 2
 146 218 l 2
 83 218 40 261 40 325 c 2
159 368 m 2
 159 360 l 2
 159 337 171 335 194 335 c 2
 240 335 l 2
 271 335 286 345 286 364 c 0
 286 383 271 392 240 392 c 2
 194 392 l 2
 171 392 159 391 159 368 c 2
381 364 m 2
 381 363 l 2
 381 344 400 335 427 335 c 2
 475 335 l 2
 494 335 507 338 507 359 c 2
 507 369 l 2
 507 389 494 392 475 392 c 2
 427 392 l 2
 400 392 381 383 381 364 c 2
EndSplineSet
EndChar

StartChar: plusminus
Encoding: 177 177 87
Width: 457
Flags: MW
HStem: 0 136<56.5 387 70 387> 335 136<56.5 161 70 161 297 387> 581 20G<201 257 257 270.5>
VStem: 161 136<244 335 230.5 335 471 561>
LayerCount: 2
Fore
SplineSet
201 601 m 2
 257 601 l 2
 284 601 297 588 297 561 c 2
 297 471 l 1
 387 471 l 2
 414 471 427 457 427 430 c 2
 427 375 l 2
 427 348 414 335 387 335 c 2
 297 335 l 1
 297 244 l 2
 297 217 284 204 257 204 c 2
 201 204 l 2
 174 204 161 217 161 244 c 2
 161 335 l 1
 70 335 l 2
 43 335 30 348 30 375 c 2
 30 431 l 2
 30 458 43 471 70 471 c 2
 161 471 l 1
 161 561 l 2
 161 588 174 601 201 601 c 2
70 136 m 2
 387 136 l 2
 414 136 427 122 427 95 c 2
 427 40 l 2
 427 13 414 0 387 0 c 2
 70 0 l 2
 43 0 30 13 30 40 c 2
 30 96 l 2
 30 123 43 136 70 136 c 2
EndSplineSet
EndChar

StartChar: lessequal
Encoding: 8804 8804 88
Width: 457
Flags: MW
HStem: 0 136<56.5 387 70 387>
LayerCount: 2
Fore
SplineSet
281 174 m 2
 74 339 l 2
 62 349 56 360 56 371 c 2
 56 435 l 2
 56 447 65 458 74 465 c 2
 281 635 l 2
 302 652 320 650 337 629 c 2
 371 588 l 2
 388 567 386 549 365 532 c 2
 203 404 l 1
 365 277 l 2
 386 260 388 242 371 221 c 2
 337 180 l 2
 320 159 302 157 281 174 c 2
70 136 m 2
 387 136 l 2
 414 136 427 122 427 95 c 2
 427 40 l 2
 427 13 414 0 387 0 c 2
 70 0 l 2
 43 0 30 13 30 40 c 2
 30 96 l 2
 30 123 43 136 70 136 c 2
EndSplineSet
EndChar

StartChar: greaterequal
Encoding: 8805 8805 89
Width: 457
Flags: MW
HStem: 0 136<57.5 388 71 388>
LayerCount: 2
Fore
SplineSet
384 339 m 2
 177 174 l 2
 156 157 138 159 121 180 c 2
 87 221 l 2
 70 242 72 260 93 277 c 2
 255 404 l 1
 93 532 l 2
 72 549 70 567 87 588 c 2
 121 629 l 2
 138 650 156 652 177 635 c 2
 384 465 l 2
 393 458 402 447 402 435 c 2
 402 371 l 2
 402 360 396 349 384 339 c 2
71 136 m 2
 388 136 l 2
 415 136 428 123 428 96 c 2
 428 40 l 2
 428 13 415 0 388 0 c 2
 71 0 l 2
 44 0 31 13 31 40 c 2
 31 95 l 2
 31 122 44 136 71 136 c 2
EndSplineSet
EndChar

StartChar: yen
Encoding: 165 165 90
Width: 505
Flags: MW
HStem: 0 21G<202 215 215 290> 133 136<79.5 176 93 176 330 413> 702 20G<47 132 132 140 394 459 459 470.5>
VStem: 176 154<40 133 26.5 133 269 285>
LayerCount: 2
Fore
SplineSet
47 722 m 2
 132 722 l 2
 148 722 161 712 165 701 c 2
 263 451 l 1
 361 701 l 2
 365 712 379 722 394 722 c 2
 459 722 l 2
 482 722 503 699 491 671 c 2
 330 285 l 1
 330 269 l 1
 413 269 l 2
 440 269 453 256 453 229 c 2
 453 173 l 2
 453 146 440 133 413 133 c 2
 330 133 l 1
 330 40 l 2
 330 13 317 0 290 0 c 2
 215 0 l 2
 189 0 176 13 176 40 c 2
 176 133 l 1
 93 133 l 2
 66 133 53 146 53 173 c 2
 53 229 l 2
 53 256 66 269 93 269 c 2
 176 269 l 1
 176 285 l 1
 14 671 l 2
 3 695 19 722 47 722 c 2
EndSplineSet
EndChar

StartChar: mu
Encoding: 181 181 91
Width: 448
Flags: MW
HStem: -217 21G<66.5 80 80 154> -20 20G<271 372 271 271> 485 20G<79 154 154 167.5 294 368 368 381.5>
VStem: 40 154<-177 -176 -176 -111 151.5 160 160 465> 254 154<24 36 133 464>
LayerCount: 2
Fore
SplineSet
79 505 m 2
 154 505 l 2
 181 505 194 492 194 465 c 2
 194 160 l 2
 194 143 206 133 221 133 c 2
 254 133 l 1
 254 465 l 2
 254 492 267 505 294 505 c 2
 368 505 l 2
 395 505 408 491 408 464 c 2
 408 36 l 2
 408 16 392 0 372 0 c 2
 271 0 l 1
 254 24 l 1
 186 6 l 2
 183 5 180 4 179 4 c 0
 178 4 176 4 174 3 c 0
 173 2 171 2 170 2 c 0
 169 2 168 2 167 1 c 1
 190 -62 l 2
 194 -73 194 -100 194 -111 c 2
 194 -176 l 2
 194 -203 181 -217 154 -217 c 2
 80 -217 l 2
 53 -217 40 -204 40 -177 c 2
 40 465 l 2
 40 492 55 505 79 505 c 2
EndSplineSet
EndChar

StartChar: partialdiff
Encoding: 8706 8706 92
Width: 468
Flags: MW
HStem: -20 20G<282 376 282 282> -3 21G<114.5 144> 485 20G<113.5 144> 774 20G<170 267 267 273>
VStem: 50 154<154.5 163 163 345> 264 154<24 42 136 372 372 372>
LayerCount: 2
Fore
SplineSet
170 794 m 2x7c
 267 794 l 2
 279 794 299 792 306 775 c 2
 418 480 l 1
 418 42 l 2
 418 14 404 0 376 0 c 2
 282 0 l 1xbc
 264 24 l 1
 167 1 l 1
 159 -2 148 -3 140 -3 c 0
 89 -3 50 35 50 94 c 2
 50 407 l 2
 50 467 87 505 140 505 c 0
 148 505 159 505 167 502 c 1
 253 481 l 1
 149 754 l 2
 140 778 143 794 170 794 c 2x7c
264 372 m 1
 232 372 l 2
 216 372 204 360 204 345 c 2
 204 163 l 2
 204 146 216 136 232 136 c 2
 264 136 l 1
 264 372 l 1
EndSplineSet
EndChar

StartChar: summation
Encoding: 8721 8721 93
Width: 441
Flags: MW
HStem: 0 136<100.5 381 244 381 244 381> 586 136<238.5 244 244 381>
LayerCount: 2
Fore
SplineSet
140 722 m 2
 381 722 l 2
 408 722 421 709 421 682 c 2
 421 625 l 2
 421 601 408 586 381 586 c 2
 244 586 l 2
 233 586 224 575 235 563 c 1
 340 431 l 2
 348 421 352 406 352 386 c 2
 352 344 l 2
 352 327 350 310 339 297 c 2
 227 153 l 2
 220 144 232 136 244 136 c 2
 381 136 l 2
 408 136 421 123 421 96 c 2
 421 40 l 2
 421 13 408 0 381 0 c 2
 140 0 l 2
 61 0 24 96 72 160 c 2
 223 365 l 1
 72 562 l 2
 22 626 62 722 140 722 c 2
EndSplineSet
EndChar

StartChar: product
Encoding: 8719 8719 94
Width: 649
Flags: MW
HStem: 0 21G<136.5 150 150 224 411.5 425 425 499> 568 154<66.5 569 80 110 264 385 264 264 539 569 539 539>
VStem: 110 154<40 568> 385 154<40 568>
LayerCount: 2
Fore
SplineSet
80 722 m 2
 569 722 l 2
 596 722 609 709 609 682 c 2
 609 608 l 2
 609 581 596 568 569 568 c 2
 539 568 l 1
 539 40 l 2
 539 13 526 0 499 0 c 2
 425 0 l 2
 398 0 385 13 385 40 c 2
 385 568 l 1
 264 568 l 1
 264 40 l 2
 264 13 251 0 224 0 c 2
 150 0 l 2
 123 0 110 13 110 40 c 2
 110 568 l 1
 80 568 l 2
 53 568 40 581 40 608 c 2
 40 682 l 2
 40 709 53 722 80 722 c 2
EndSplineSet
EndChar

StartChar: pi
Encoding: 960 960 95
Width: 568
Flags: MW
HStem: 0 21G<126.5 140 140 214 340.5 354 354 428> 351 154<66.5 488 80 100 254 314 254 254 468 488 468 468>
VStem: 100 154<40 351> 314 154<39 40 40 351>
LayerCount: 2
Fore
SplineSet
80 505 m 2
 488 505 l 2
 515 505 528 492 528 465 c 2
 528 391 l 2
 528 364 515 351 488 351 c 2
 468 351 l 1
 468 40 l 2
 468 13 455 0 428 0 c 2
 354 0 l 2
 327 0 314 13 314 39 c 2
 314 351 l 1
 254 351 l 1
 254 39 l 2
 254 13 241 0 214 0 c 2
 140 0 l 2
 113 0 100 13 100 40 c 2
 100 351 l 1
 80 351 l 2
 53 351 40 364 40 391 c 2
 40 465 l 2
 40 492 53 505 80 505 c 2
EndSplineSet
EndChar

StartChar: integral
Encoding: 8747 8747 96
Width: 368
Flags: MW
HStem: -217 136<46.5 66 60 66 66 79.5 60 147> 658 136<289 303 303 308>
VStem: 20 241<-135 -121 -121 -107.5> 107 154<-39 616>
LayerCount: 2
Fore
SplineSet
107 -39 m 2xd0
 107 674 l 2
 107 750 154 794 222 794 c 2
 308 794 l 2
 335 794 348 781 348 754 c 2
 348 698 l 2xd0
 348 671 335 658 308 658 c 2
 303 658 l 2
 275 658 261 644 261 616 c 2
 261 -97 l 2
 261 -173 212 -217 147 -217 c 2
 60 -217 l 2
 33 -217 20 -204 20 -177 c 2
 20 -121 l 2xe0
 20 -94 33 -81 60 -81 c 2
 66 -81 l 2
 93 -81 107 -70 107 -39 c 2xd0
EndSplineSet
EndChar

StartChar: ordfeminine
Encoding: 170 170 97
Width: 271
Flags: MW
HStem: 434 186<76.5 92.5 76.5 93> 650 72<65.5 167 73 131>
VStem: 40 191<490 565 565 581.5> 149 82<450 460 503 551 551 551 605 626 626 634.5>
LayerCount: 2
Fore
SplineSet
73 722 m 2xd0
 167 722 l 2
 206 722 231 700 231 655 c 2
 231 460 l 2
 231 444 223 436 208 436 c 2
 159 436 l 1
 149 450 l 1xd0
 105 437 l 2
 100 436 95 434 91 434 c 0
 62 434 40 455 40 490 c 2
 40 565 l 2xe0
 40 598 62 620 91 620 c 0
 94 620 98 619 105 618 c 1
 149 605 l 1
 149 626 l 2
 149 643 147 650 131 650 c 2
 73 650 l 2
 58 650 50 658 50 673 c 2
 50 700 l 2
 50 715 58 722 73 722 c 2xd0
149 551 m 1
 137 551 l 2
 126 551 120 545 120 533 c 2
 120 521 l 2
 120 509 126 503 137 503 c 2
 149 503 l 1
 149 551 l 1
EndSplineSet
EndChar

StartChar: ordmasculine
Encoding: 186 186 98
Width: 287
Flags: MW
HStem: 436 21G<78.5 96 96 192> 702 20G<96 192 192 208.5>
VStem: 40 84<520 526 526 632> 164 83<526 632 632 638.5>
LayerCount: 2
Fore
SplineSet
192 436 m 2
 96 436 l 2
 61 436 40 457 40 492 c 2
 40 667 l 2
 40 702 61 722 96 722 c 2
 192 722 l 2
 225 722 247 702 247 667 c 2
 247 492 l 2
 247 457 225 436 192 436 c 2
164 526 m 2
 164 632 l 2
 164 645 157 650 149 650 c 2
 138 650 l 2
 131 650 124 644 124 632 c 2
 124 526 l 2
 124 514 129 508 138 508 c 2
 149 508 l 2
 159 508 164 514 164 526 c 2
EndSplineSet
EndChar

StartChar: grave
Encoding: 96 96 99
Width: 265
Flags: W
LayerCount: 2
Fore
SplineSet
49 682 m 2
 106 726 l 2
 118 735 128 733 135 720 c 2
 220 583 l 2
 227 572 226 561 218 554 c 1
 184 532 l 2
 173 525 164 526 156 535 c 2
 47 652 l 2
 37 663 38 673 49 682 c 2
EndSplineSet
EndChar

StartChar: circumflex
Encoding: 710 710 100
Width: 322
Flags: MW
HStem: 704 20G<124 198 198 205.5>
LayerCount: 2
Fore
SplineSet
124 724 m 2
 198 724 l 2
 213 724 217 718 221 710 c 2
 280 592 l 2
 284 584 282 571 274 567 c 2
 240 549 l 1
 229 542 220 547 213 556 c 2
 161 630 l 1
 109 556 l 1
 102 548 93 544 82 549 c 2
 48 567 l 2
 41 571 38 584 42 592 c 2
 101 710 l 2
 104 717 109 724 124 724 c 2
EndSplineSet
EndChar

StartChar: tilde
Encoding: 732 732 101
Width: 422
Flags: W
LayerCount: 2
Fore
SplineSet
43 602 m 2
 68 647 l 1
 92 687 168 709 233 660 c 1
 245 653 l 1
 260 642 270 642 275 653 c 1
 281 663 l 1
 290 676 295 679 307 679 c 2
 366 679 l 2
 381 679 387 667 379 652 c 2
 354 606 l 2
 330 563 253 544 189 592 c 1
 175 602 l 2
 162 611 152 611 147 600 c 1
 141 590 l 2
 133 577 127 574 115 574 c 2
 55 574 l 2
 42 574 35 587 43 602 c 2
EndSplineSet
EndChar

StartChar: macron
Encoding: 175 175 102
Width: 322
Flags: MW
HStem: 574 101<54.5 260 68 260>
LayerCount: 2
Fore
SplineSet
28 614 m 2
 28 635 l 2
 28 662 41 675 68 675 c 2
 260 675 l 2
 287 675 300 662 300 635 c 2
 300 614 l 2
 300 587 287 574 260 574 c 2
 68 574 l 2
 41 574 28 587 28 614 c 2
EndSplineSet
EndChar

StartChar: breve
Encoding: 728 728 103
Width: 322
Flags: MW
HStem: 568 77<146.5 175 146.5 203.5> 568 113<41 203.5>
LayerCount: 2
Fore
SplineSet
41 681 m 2x40
 94 681 l 2x40
 105 681 109 675 110 671 c 0
 115 654 132 645 161 645 c 0x80
 189 645 209 655 213 671 c 0
 214 675 219 681 228 681 c 2
 281 681 l 2
 291 681 296 676 296 665 c 0
 296 622 246 568 161 568 c 0
 80 568 26 621 26 664 c 0
 26 675 31 681 41 681 c 2x40
EndSplineSet
EndChar

StartChar: acute
Encoding: 180 180 104
Width: 265
Flags: W
LayerCount: 2
Fore
SplineSet
81 532 m 2
 47 554 l 2
 39 559 38 572 45 583 c 2
 130 720 l 2
 137 733 147 735 159 726 c 2
 216 682 l 2
 227 674 227 663 218 652 c 2
 109 535 l 2
 100 526 91 525 81 532 c 2
EndSplineSet
EndChar

StartChar: hungarumlaut
Encoding: 733 733 105
Width: 450
Flags: W
LayerCount: 2
Fore
SplineSet
81 532 m 2
 47 554 l 2
 39 559 38 572 45 583 c 2
 130 720 l 2
 137 733 147 735 159 726 c 2
 216 682 l 2
 227 674 227 663 218 652 c 2
 109 535 l 2
 100 526 91 525 81 532 c 2
266 532 m 2
 232 554 l 2
 224 559 223 572 230 583 c 2
 315 720 l 2
 322 733 332 735 344 726 c 2
 401 682 l 2
 412 674 412 663 403 652 c 2
 294 535 l 2
 285 526 276 525 266 532 c 2
EndSplineSet
EndChar

StartChar: caron
Encoding: 711 711 106
Width: 322
Flags: MW
HStem: 544 21G<116.5 124 124 198>
LayerCount: 2
Fore
SplineSet
48 701 m 2
 82 719 l 2
 93 724 104 720 109 712 c 2
 161 638 l 1
 213 712 l 2
 220 722 229 724 240 719 c 2
 274 701 l 2
 282 697 284 684 280 676 c 2
 221 558 l 2
 217 550 213 544 198 544 c 2
 124 544 l 2
 109 544 104 551 101 558 c 2
 42 676 l 2
 38 684 40 697 48 701 c 2
EndSplineSet
EndChar

StartChar: dotlessi
Encoding: 305 305 107
Width: 254
Flags: MW
HStem: 0 21G<76.5 90 90 164> 485 20G<90 164 164 177.5>
VStem: 50 154<40 465>
LayerCount: 2
Fore
SplineSet
50 40 m 2
 50 465 l 2
 50 492 63 505 90 505 c 2
 164 505 l 2
 191 505 204 492 204 465 c 2
 204 40 l 2
 204 13 191 0 164 0 c 2
 90 0 l 2
 63 0 50 13 50 40 c 2
EndSplineSet
EndChar

StartChar: cedilla
Encoding: 184 184 108
Width: 260
Flags: MW
HStem: -217 64<58 62 62 130 130 137 58 168> -103 60<71.5 167 78 167> -103 103<71.5 78 78 127>
LayerCount: 2
Fore
SplineSet
57 -78 m 2xc0
 69 0 l 1
 140 0 l 1xa0
 133 -43 l 1
 167 -43 l 2
 199 -43 220 -65 220 -96 c 2
 220 -163 l 2
 220 -195 197 -217 168 -217 c 2
 62 -217 l 2
 50 -217 40 -210 40 -197 c 2
 40 -174 l 2
 40 -160 46 -153 58 -153 c 2
 130 -153 l 2
 144 -153 151 -147 151 -135 c 2
 151 -120 l 2
 151 -108 140 -103 127 -103 c 2
 78 -103 l 2
 65 -103 54 -93 57 -78 c 2xc0
EndSplineSet
EndChar

StartChar: ogonek
Encoding: 731 731 109
Width: 258
Flags: MW
HStem: -217 72<76.5 193 144 193 193 194> -217 217<93 102 102 177 93 194>
LayerCount: 2
Fore
SplineSet
48 -105 m 2x80
 93 0 l 1
 177 0 l 1x40
 127 -113 l 2
 119 -130 125 -145 144 -145 c 2
 193 -145 l 2
 208 -145 218 -151 218 -166 c 2
 218 -197 l 2
 218 -210 206 -217 194 -217 c 2
 102 -217 l 2
 51 -217 26 -154 48 -105 c 2x80
EndSplineSet
EndChar

StartChar: Zcaron
Encoding: 381 381 110
Width: 419
Flags: MW
HStem: 0 136<46.5 359 157 359 157 359> 586 136<46.5 359 60 261> 722 28<201.5 209 209 233 201.5 359>
LayerCount: 2
Fore
SplineSet
60 722 m 2xc0
 359 722 l 2
 386 722 399 709 399 682 c 2
 399 544 l 2
 399 537 397 529 392 522 c 2
 157 136 l 1
 359 136 l 2
 386 136 399 123 399 96 c 2
 399 40 l 2
 399 13 386 0 359 0 c 2
 60 0 l 2
 33 0 20 13 20 40 c 2
 20 177 l 2
 20 182 22 191 25 196 c 2
 261 586 l 1
 60 586 l 2
 33 586 20 599 20 626 c 2
 20 682 l 2
 20 709 33 722 60 722 c 2xc0
82 845 m 2
 104 880 l 2
 111 891 122 886 131 882 c 2
 220 841 l 1
 309 882 l 2
 320 887 329 891 336 880 c 2
 358 845 l 2
 362 838 364 827 357 822 c 2
 263 761 l 2
 256 756 248 750 233 750 c 2
 209 750 l 2xa0
 194 750 182 758 177 761 c 2
 83 822 l 2
 80 825 78 828 78 832 c 0
 78 837 79 841 82 845 c 2
EndSplineSet
Position2: "'cpsp' Capital Spacing in Latin lookup 0 subtable" dx=7 dy=0 dh=14 dv=0
EndChar

StartChar: Zacute
Encoding: 377 377 111
Width: 419
Flags: MW
HStem: 0 136<46.5 359 157 359 157 359> 586 136<46.5 359 60 261>
LayerCount: 2
Fore
SplineSet
60 722 m 2
 359 722 l 2
 386 722 399 709 399 682 c 2
 399 544 l 2
 399 537 397 529 392 522 c 2
 157 136 l 1
 359 136 l 2
 386 136 399 123 399 96 c 2
 399 40 l 2
 399 13 386 0 359 0 c 2
 60 0 l 2
 33 0 20 13 20 40 c 2
 20 177 l 2
 20 182 22 191 25 196 c 2
 261 586 l 1
 60 586 l 2
 33 586 20 599 20 626 c 2
 20 682 l 2
 20 709 33 722 60 722 c 2
158 815 m 2
 299 886 l 2
 313 893 322 890 327 877 c 2
 349 820 l 2
 354 807 349 798 334 793 c 2
 181 751 l 1
 168 746 159 750 155 763 c 1
 144 790 l 2
 140 799 146 808 158 815 c 2
EndSplineSet
Position2: "'cpsp' Capital Spacing in Latin lookup 0 subtable" dx=7 dy=0 dh=14 dv=0
EndChar

StartChar: zdotaccent
Encoding: 380 380 112
Width: 392
Flags: MW
HStem: 0 136<46.5 332 187 332 187 332> 369 136<46.5 332 60 205> 574 141<141.5 235 155 235>
VStem: 115 160<614 675 600.5 688.5>
LayerCount: 2
Fore
SplineSet
60 505 m 2
 332 505 l 2
 359 505 372 492 372 465 c 2
 372 351 l 2
 372 342 367 331 364 328 c 2
 187 136 l 1
 332 136 l 2
 359 136 372 123 372 96 c 2
 372 40 l 2
 372 13 359 0 332 0 c 2
 60 0 l 2
 33 0 20 13 20 40 c 2
 20 155 l 2
 20 164 23 171 28 178 c 1
 205 369 l 1
 60 369 l 2
 33 369 20 382 20 409 c 2
 20 465 l 2
 20 492 33 505 60 505 c 2
115 614 m 2
 115 675 l 2
 115 702 128 715 155 715 c 2
 235 715 l 2
 262 715 275 702 275 675 c 2
 275 614 l 2
 275 587 262 574 235 574 c 2
 155 574 l 2
 128 574 115 587 115 614 c 2
EndSplineSet
EndChar

StartChar: zcaron
Encoding: 382 382 113
Width: 392
Flags: MW
HStem: 0 136<46.5 332 187 332 187 332> 369 136<46.5 332 60 205> 505 39<155.5 163 163 237>
LayerCount: 2
Fore
SplineSet
60 505 m 2xc0
 332 505 l 2
 359 505 372 492 372 465 c 2
 372 351 l 2
 372 342 367 331 364 328 c 2
 187 136 l 1
 332 136 l 2
 359 136 372 123 372 96 c 2
 372 40 l 2
 372 13 359 0 332 0 c 2
 60 0 l 2
 33 0 20 13 20 40 c 2
 20 155 l 2
 20 164 23 171 28 178 c 1
 205 369 l 1
 60 369 l 2
 33 369 20 382 20 409 c 2
 20 465 l 2
 20 492 33 505 60 505 c 2xc0
87 701 m 2
 121 719 l 2
 132 724 143 720 148 712 c 2
 200 638 l 1
 252 712 l 2
 259 722 268 724 279 719 c 2
 313 701 l 2
 321 697 323 684 319 676 c 2
 260 558 l 2
 256 550 252 544 237 544 c 2
 163 544 l 2xa0
 148 544 143 551 140 558 c 2
 81 676 l 2
 77 684 79 697 87 701 c 2
EndSplineSet
EndChar

StartChar: zacute
Encoding: 378 378 114
Width: 392
Flags: MW
HStem: 0 136<46.5 332 187 332 187 332> 369 136<46.5 332 60 205>
LayerCount: 2
Fore
SplineSet
60 505 m 2
 332 505 l 2
 359 505 372 492 372 465 c 2
 372 351 l 2
 372 342 367 331 364 328 c 2
 187 136 l 1
 332 136 l 2
 359 136 372 123 372 96 c 2
 372 40 l 2
 372 13 359 0 332 0 c 2
 60 0 l 2
 33 0 20 13 20 40 c 2
 20 155 l 2
 20 164 23 171 28 178 c 1
 205 369 l 1
 60 369 l 2
 33 369 20 382 20 409 c 2
 20 465 l 2
 20 492 33 505 60 505 c 2
179 532 m 2
 145 554 l 2
 137 559 136 572 143 583 c 2
 228 720 l 2
 235 733 245 735 257 726 c 2
 314 682 l 2
 325 674 325 663 316 652 c 2
 207 535 l 2
 198 526 189 525 179 532 c 2
EndSplineSet
EndChar

StartChar: Ydieresis
Encoding: 376 376 115
Width: 505
Flags: MW
HStem: 0 21G<202.5 216 216 290> 702 20G<47 132 132 140 394 459 459 470.5> 759 123<93 174 105 174 330 399>
VStem: 69 141<795 848 783 859.5> 176 154<40 285> 294 141<795 848 783 859.5>
LayerCount: 2
Fore
SplineSet
165 701 m 2xe8
 263 451 l 1
 361 701 l 2
 365 712 379 722 394 722 c 2
 459 722 l 2
 482 722 503 699 491 671 c 2
 330 285 l 1
 330 40 l 2
 330 13 317 0 290 0 c 2
 216 0 l 2
 189 0 176 13 176 40 c 2
 176 285 l 1
 14 671 l 2
 5 694 19 722 47 722 c 2
 132 722 l 2
 148 722 161 712 165 701 c 2xe8
294 795 m 2xf4
 294 848 l 2xf4
 294 871 306 882 330 882 c 2xe8
 399 882 l 2
 423 882 435 871 435 848 c 2
 435 795 l 2xf4
 435 771 423 759 399 759 c 2
 330 759 l 2xe8
 306 759 294 771 294 795 c 2xf4
69 795 m 2
 69 848 l 2
 69 871 81 882 105 882 c 2
 174 882 l 2
 198 882 210 871 210 848 c 2
 210 795 l 2
 210 771 198 759 174 759 c 2
 105 759 l 2
 81 759 69 771 69 795 c 2
EndSplineSet
Position2: "'cpsp' Capital Spacing in Latin lookup 0 subtable" dx=7 dy=0 dh=14 dv=0
EndChar

StartChar: Ycircumflex
Encoding: 374 374 116
Width: 505
Flags: MW
HStem: 0 21G<202.5 216 216 290> 702 20G<47 132 132 140 394 459 459 470.5> 872 20G<241 265 265 272.5>
VStem: 176 154<40 285>
LayerCount: 2
Fore
SplineSet
165 701 m 2
 263 451 l 1
 361 701 l 2
 365 712 379 722 394 722 c 2
 459 722 l 2
 482 722 503 699 491 671 c 2
 330 285 l 1
 330 40 l 2
 330 13 317 0 290 0 c 2
 216 0 l 2
 189 0 176 13 176 40 c 2
 176 285 l 1
 14 671 l 2
 5 694 19 722 47 722 c 2
 132 722 l 2
 148 722 161 712 165 701 c 2
241 892 m 2
 265 892 l 2
 280 892 287 886 295 881 c 2
 389 820 l 2
 397 815 395 804 390 797 c 2
 368 762 l 2
 361 751 352 755 341 760 c 2
 252 801 l 1
 163 760 l 2
 154 756 143 751 136 762 c 2
 113 798 l 2
 109 805 107 815 115 820 c 2
 209 881 l 2
 214 884 226 892 241 892 c 2
EndSplineSet
EndChar

StartChar: Yacute
Encoding: 221 221 117
Width: 505
Flags: MW
HStem: 0 21G<202.5 216 216 290> 702 20G<47 132 132 140 394 459 459 470.5>
VStem: 176 154<40 285>
LayerCount: 2
Fore
SplineSet
165 701 m 2
 263 451 l 1
 361 701 l 2
 365 712 379 722 394 722 c 2
 459 722 l 2
 482 722 503 699 491 671 c 2
 330 285 l 1
 330 40 l 2
 330 13 317 0 290 0 c 2
 216 0 l 2
 189 0 176 13 176 40 c 2
 176 285 l 1
 14 671 l 2
 5 694 19 722 47 722 c 2
 132 722 l 2
 148 722 161 712 165 701 c 2
202 815 m 2
 343 886 l 2
 357 893 366 890 371 877 c 2
 393 820 l 2
 398 807 393 798 378 793 c 2
 225 751 l 1
 212 746 203 750 199 763 c 1
 188 790 l 2
 184 799 190 808 202 815 c 2
EndSplineSet
Position2: "'cpsp' Capital Spacing in Latin lookup 0 subtable" dx=7 dy=0 dh=14 dv=0
EndChar

StartChar: ydieresis
Encoding: 255 255 118
Width: 424
Flags: MW
HStem: -217 21G<198.5 209 209 278> -20 20G<107.5 117 117 198> 485 20G<56 132 132 141.5 295 367 367 377.5> 574 123<53 134 65 134 290 359>
VStem: 29 141<610 663 598 674.5> 254 141<610 663 598 674.5>
LayerCount: 2
Fore
SplineSet
56 505 m 2
 132 505 l 2
 151 505 164 493 167 476 c 2
 213 126 l 1
 260 476 l 2
 263 493 278 505 295 505 c 2
 367 505 l 2
 388 505 408 488 404 463 c 2
 311 -187 l 2
 308 -207 297 -217 278 -217 c 2
 209 -217 l 2
 188 -217 167 -197 171 -173 c 2
 198 0 l 1
 117 0 l 2
 98 0 85 11 82 30 c 2
 20 462 l 2
 17 485 33 505 56 505 c 2
254 610 m 2
 254 663 l 2
 254 686 266 697 290 697 c 2
 359 697 l 2
 383 697 395 686 395 663 c 2
 395 610 l 2
 395 586 383 574 359 574 c 2
 290 574 l 2
 266 574 254 586 254 610 c 2
29 610 m 2
 29 663 l 2
 29 686 41 697 65 697 c 2
 134 697 l 2
 158 697 170 686 170 663 c 2
 170 610 l 2
 170 586 158 574 134 574 c 2
 65 574 l 2
 41 574 29 586 29 610 c 2
EndSplineSet
EndChar

StartChar: ycircumflex
Encoding: 375 375 119
Width: 424
Flags: MW
HStem: -217 21G<198.5 209 209 278> -20 20G<107.5 117 117 198> 485 20G<56 132 132 141.5 295 367 367 377.5> 704 20G<175 249 249 256.5>
LayerCount: 2
Fore
SplineSet
56 505 m 2
 132 505 l 2
 151 505 164 493 167 476 c 2
 213 126 l 1
 260 476 l 2
 263 493 278 505 295 505 c 2
 367 505 l 2
 388 505 408 488 404 463 c 2
 311 -187 l 2
 308 -207 297 -217 278 -217 c 2
 209 -217 l 2
 188 -217 167 -197 171 -173 c 2
 198 0 l 1
 117 0 l 2
 98 0 85 11 82 30 c 2
 20 462 l 2
 17 485 33 505 56 505 c 2
175 724 m 2
 249 724 l 2
 264 724 268 718 272 710 c 2
 331 592 l 2
 335 584 333 571 325 567 c 2
 291 549 l 1
 280 542 271 547 264 556 c 2
 212 630 l 1
 160 556 l 1
 153 548 144 544 133 549 c 2
 99 567 l 2
 92 571 89 584 93 592 c 2
 152 710 l 2
 155 717 160 724 175 724 c 2
EndSplineSet
EndChar

StartChar: yacute
Encoding: 253 253 120
Width: 424
Flags: MW
HStem: -217 21G<198.5 209 209 278> -20 20G<107.5 117 117 198> 485 20G<56 132 132 141.5 295 367 367 377.5>
LayerCount: 2
Fore
SplineSet
56 505 m 2
 132 505 l 2
 151 505 164 493 167 476 c 2
 213 126 l 1
 260 476 l 2
 263 493 278 505 295 505 c 2
 367 505 l 2
 388 505 408 488 404 463 c 2
 311 -187 l 2
 308 -207 297 -217 278 -217 c 2
 209 -217 l 2
 188 -217 167 -197 171 -173 c 2
 198 0 l 1
 117 0 l 2
 98 0 85 11 82 30 c 2
 20 462 l 2
 17 485 33 505 56 505 c 2
186 532 m 2
 152 554 l 2
 144 559 143 572 150 583 c 2
 235 720 l 2
 242 733 252 735 264 726 c 2
 321 682 l 2
 332 674 332 663 323 652 c 2
 214 535 l 2
 205 526 196 525 186 532 c 2
EndSplineSet
EndChar

StartChar: Wcircumflex
Encoding: 372 372 121
Width: 714
Flags: MW
HStem: 0 21G<104 114 114 265 438.5 448 448 600> 702 20G<56 128 128 138 314 400 400 409.5 586 658 658 668> 872 20G<346 370 370 377.5>
LayerCount: 2
Fore
SplineSet
412 33 m 2
 357 458 l 1
 302 33 l 2
 299 14 284 0 265 0 c 2
 114 0 l 2
 94 0 81 16 78 36 c 1
 20 686 l 1
 17 706 36 722 56 722 c 2
 128 722 l 2
 148 722 161 706 164 686 c 1
 208 151 l 1
 278 689 l 2
 281 708 295 722 314 722 c 2
 400 722 l 2
 419 722 433 708 436 689 c 2
 506 152 l 1
 550 686 l 1
 553 706 566 722 586 722 c 2
 658 722 l 2
 678 722 697 706 694 686 c 1
 636 36 l 1
 633 16 620 0 600 0 c 2
 448 0 l 2
 429 0 415 14 412 33 c 2
346 892 m 2
 370 892 l 2
 385 892 392 886 400 881 c 2
 494 820 l 2
 502 815 500 804 495 797 c 2
 473 762 l 2
 466 751 457 755 446 760 c 2
 357 801 l 1
 268 760 l 2
 259 756 248 751 241 762 c 2
 218 798 l 2
 214 805 212 815 220 820 c 2
 314 881 l 2
 319 884 331 892 346 892 c 2
EndSplineSet
EndChar

StartChar: wcircumflex
Encoding: 373 373 122
Width: 613
Flags: MW
HStem: 0 21G<91.5 100 100 242 363.5 371 371 514> 485 20G<51 134 134 142.5 276 339 339 347 480 563 563 571> 704 20G<269 343 343 350.5>
LayerCount: 2
Fore
SplineSet
341 23 m 1
 306 289 l 1
 273 23 l 1
 270 10 257 0 242 0 c 2
 100 0 l 2
 83 0 72 10 69 25 c 1
 20 480 l 2
 19 495 34 505 51 505 c 2
 134 505 l 2
 151 505 164 495 165 480 c 2
 199 134 l 1
 245 482 l 1
 248 495 259 505 276 505 c 2
 339 505 l 2
 355 505 366 495 369 482 c 1
 415 132 l 1
 449 480 l 2
 450 495 463 505 480 505 c 2
 563 505 l 2
 579 505 594 495 593 480 c 2
 544 25 l 1
 541 10 530 0 514 0 c 2
 371 0 l 2
 356 0 344 10 341 23 c 1
269 724 m 2
 343 724 l 2
 358 724 362 718 366 710 c 2
 425 592 l 2
 429 584 427 571 419 567 c 2
 385 549 l 1
 374 542 365 547 358 556 c 2
 306 630 l 1
 254 556 l 1
 247 548 238 544 227 549 c 2
 193 567 l 2
 186 571 183 584 187 592 c 2
 246 710 l 2
 249 717 254 724 269 724 c 2
EndSplineSet
EndChar

StartChar: Utilde
Encoding: 360 360 123
Width: 531
Flags: MW
HStem: 0 136<157 269 262 269 269 288.5 262 327> 702 20G<90 164 164 177.5 367 441 441 454.5>
VStem: 50 154<175.5 195 195 682> 327 154<0 153 195 682>
LayerCount: 2
Fore
SplineSet
50 154 m 2
 50 682 l 2
 50 709 63 722 90 722 c 2
 164 722 l 2
 191 722 204 709 204 682 c 2
 204 195 l 2
 204 156 223 136 262 136 c 2
 269 136 l 2
 308 136 327 156 327 195 c 2
 327 682 l 2
 327 709 340 722 367 722 c 2
 441 722 l 2
 468 722 481 709 481 682 c 2
 481 153 l 2
 481 63 419 0 327 0 c 2
 203 0 l 2
 111 0 50 62 50 154 c 2
97 797 m 2
 122 838 l 2
 147 879 215 888 287 852 c 2
 299 846 l 2
 315 838 321 835 329 846 c 2
 335 854 l 2
 344 867 349 870 361 870 c 2
 420 870 l 2
 435 870 442 858 433 843 c 2
 408 801 l 2
 383 758 315 753 243 788 c 2
 229 795 l 2
 214 802 208 804 201 793 c 1
 195 785 l 2
 186 773 181 769 169 769 c 2
 109 769 l 2
 96 769 89 782 97 797 c 2
EndSplineSet
EndChar

StartChar: Uring
Encoding: 366 366 124
Width: 531
Flags: MW
HStem: 0 136<157 269 262 269 269 288.5 262 327> 702 20G<90 164 164 177.5 367 441 441 454.5> 743 59<256 276 256 292> 872 58<256 276>
VStem: 50 154<175.5 195 195 682> 172 59<827 847 827 863> 301 58<827 847> 327 154<0 153 195 682>
LayerCount: 2
Fore
SplineSet
50 154 m 2xf9
 50 682 l 2
 50 709 63 722 90 722 c 2
 164 722 l 2
 191 722 204 709 204 682 c 2
 204 195 l 2
 204 156 223 136 262 136 c 2
 269 136 l 2
 308 136 327 156 327 195 c 2
 327 682 l 2
 327 709 340 722 367 722 c 2
 441 722 l 2
 468 722 481 709 481 682 c 2
 481 153 l 2
 481 63 419 0 327 0 c 2
 203 0 l 2
 111 0 50 62 50 154 c 2xf9
266 930 m 0
 318 930 359 889 359 837 c 0
 359 785 318 743 266 743 c 0
 214 743 172 785 172 837 c 0xf6
 172 889 214 930 266 930 c 0
266 872 m 0
 246 872 231 857 231 837 c 0
 231 817 246 802 266 802 c 0
 286 802 301 817 301 837 c 0
 301 857 286 872 266 872 c 0
EndSplineSet
Position2: "'cpsp' Capital Spacing in Latin lookup 0 subtable" dx=7 dy=0 dh=14 dv=0
EndChar

StartChar: Uogonek
Encoding: 370 370 125
Width: 531
Flags: MW
HStem: -217 72<211.5 328 279 328 328 329> 0 136<157 269 203 269 262 312 262 327> 702 20G<90 164 164 177.5 367 441 441 454.5>
VStem: 50 154<175.5 195 195 682> 327 154<0 153 195 682>
LayerCount: 2
Fore
SplineSet
183 -105 m 2
 228 0 l 1
 203 0 l 2
 111 0 50 62 50 154 c 2
 50 682 l 2
 50 709 63 722 90 722 c 2
 164 722 l 2
 191 722 204 709 204 682 c 2
 204 195 l 2
 204 156 223 136 262 136 c 2
 269 136 l 2
 308 136 327 156 327 195 c 2
 327 682 l 2
 327 709 340 722 367 722 c 2
 441 722 l 2
 468 722 481 709 481 682 c 2
 481 153 l 2
 481 63 419 0 327 0 c 2
 312 0 l 1
 262 -113 l 2
 254 -130 260 -145 279 -145 c 2
 328 -145 l 2
 343 -145 353 -151 353 -166 c 2
 353 -197 l 2
 353 -210 341 -217 329 -217 c 2
 237 -217 l 2
 186 -217 161 -154 183 -105 c 2
EndSplineSet
Position2: "'cpsp' Capital Spacing in Latin lookup 0 subtable" dx=7 dy=0 dh=14 dv=0
EndChar

StartChar: Umacron
Encoding: 362 362 126
Width: 531
Flags: MW
HStem: 0 136<157 269 262 269 269 288.5 262 327> 702 20G<90 164 164 177.5 367 441 441 454.5> 780 101<142.5 374 156 374>
VStem: 50 154<175.5 195 195 682> 327 154<0 153 195 682>
LayerCount: 2
Fore
SplineSet
50 154 m 2
 50 682 l 2
 50 709 63 722 90 722 c 2
 164 722 l 2
 191 722 204 709 204 682 c 2
 204 195 l 2
 204 156 223 136 262 136 c 2
 269 136 l 2
 308 136 327 156 327 195 c 2
 327 682 l 2
 327 709 340 722 367 722 c 2
 441 722 l 2
 468 722 481 709 481 682 c 2
 481 153 l 2
 481 63 419 0 327 0 c 2
 203 0 l 2
 111 0 50 62 50 154 c 2
116 820 m 2
 116 841 l 2
 116 868 129 881 156 881 c 2
 374 881 l 2
 401 881 414 868 414 841 c 2
 414 820 l 2
 414 793 401 780 374 780 c 2
 156 780 l 2
 129 780 116 793 116 820 c 2
EndSplineSet
Position2: "'cpsp' Capital Spacing in Latin lookup 0 subtable" dx=7 dy=0 dh=14 dv=0
EndChar

StartChar: Uhungarumlaut
Encoding: 368 368 127
Width: 531
Flags: MW
HStem: 0 136<157 269 262 269 269 288.5 262 327> 702 20G<90 164 164 177.5 367 441 441 454.5>
VStem: 50 154<175.5 195 195 682> 327 154<0 153 195 682>
LayerCount: 2
Fore
SplineSet
50 154 m 2
 50 682 l 2
 50 709 63 722 90 722 c 2
 164 722 l 2
 191 722 204 709 204 682 c 2
 204 195 l 2
 204 156 223 136 262 136 c 2
 269 136 l 2
 308 136 327 156 327 195 c 2
 327 682 l 2
 327 709 340 722 367 722 c 2
 441 722 l 2
 468 722 481 709 481 682 c 2
 481 153 l 2
 481 63 419 0 327 0 c 2
 203 0 l 2
 111 0 50 62 50 154 c 2
312 763 m 2
 301 790 l 2
 298 799 303 810 315 815 c 2
 456 886 l 2
 470 893 479 890 484 877 c 2
 506 820 l 1
 510 806 505 797 491 793 c 2
 338 751 l 2
 325 748 317 750 312 763 c 2
71 763 m 2
 60 790 l 2
 57 799 62 810 74 815 c 2
 215 886 l 2
 229 893 238 890 243 877 c 2
 265 820 l 1
 269 806 264 797 250 793 c 2
 97 751 l 2
 84 748 76 750 71 763 c 2
EndSplineSet
Position2: "'cpsp' Capital Spacing in Latin lookup 0 subtable" dx=7 dy=0 dh=14 dv=0
EndChar

StartChar: Ugrave
Encoding: 217 217 128
Width: 531
Flags: MW
HStem: 0 136<157 269 262 269 269 288.5 262 327> 702 20G<90 164 164 177.5 367 441 441 454.5>
VStem: 50 154<175.5 195 195 682> 327 154<0 153 195 682>
LayerCount: 2
Fore
SplineSet
50 154 m 2
 50 682 l 2
 50 709 63 722 90 722 c 2
 164 722 l 2
 191 722 204 709 204 682 c 2
 204 195 l 2
 204 156 223 136 262 136 c 2
 269 136 l 2
 308 136 327 156 327 195 c 2
 327 682 l 2
 327 709 340 722 367 722 c 2
 441 722 l 2
 468 722 481 709 481 682 c 2
 481 153 l 2
 481 63 419 0 327 0 c 2
 203 0 l 2
 111 0 50 62 50 154 c 2
144 820 m 2
 166 877 l 2
 171 890 181 893 194 886 c 2
 335 815 l 2
 343 811 352 800 348 789 c 2
 338 763 l 2
 333 751 325 747 312 751 c 2
 159 793 l 2
 144 798 139 807 144 820 c 2
EndSplineSet
Position2: "'cpsp' Capital Spacing in Latin lookup 0 subtable" dx=7 dy=0 dh=14 dv=0
EndChar

StartChar: Udieresis
Encoding: 220 220 129
Width: 531
Flags: MW
HStem: 0 136<157 269 262 269 269 288.5 262 327> 702 20G<90 164 164 177.5 367 441 441 454.5> 759 123<106 187 118 187 343 412>
VStem: 50 154<175.5 195 195 682> 82 141<795 848 783 859.5> 307 141<795 848 783 859.5> 327 154<0 153 195 682>
LayerCount: 2
Fore
SplineSet
50 154 m 2xf2
 50 682 l 2
 50 709 63 722 90 722 c 2
 164 722 l 2
 191 722 204 709 204 682 c 2
 204 195 l 2
 204 156 223 136 262 136 c 2
 269 136 l 2
 308 136 327 156 327 195 c 2
 327 682 l 2
 327 709 340 722 367 722 c 2
 441 722 l 2
 468 722 481 709 481 682 c 2
 481 153 l 2
 481 63 419 0 327 0 c 2
 203 0 l 2
 111 0 50 62 50 154 c 2xf2
307 795 m 2xec
 307 848 l 2
 307 871 319 882 343 882 c 2
 412 882 l 2
 436 882 448 871 448 848 c 2
 448 795 l 2
 448 771 436 759 412 759 c 2
 343 759 l 2
 319 759 307 771 307 795 c 2xec
82 795 m 2
 82 848 l 2
 82 871 94 882 118 882 c 2
 187 882 l 2
 211 882 223 871 223 848 c 2
 223 795 l 2
 223 771 211 759 187 759 c 2
 118 759 l 2
 94 759 82 771 82 795 c 2
EndSplineSet
Position2: "'cpsp' Capital Spacing in Latin lookup 0 subtable" dx=7 dy=0 dh=14 dv=0
EndChar

StartChar: Ucircumflex
Encoding: 219 219 130
Width: 531
Flags: MW
HStem: 0 136<157 269 262 269 269 288.5 262 327> 702 20G<90 164 164 177.5 367 441 441 454.5> 872 20G<254 278 278 285.5>
VStem: 50 154<175.5 195 195 682> 327 154<0 153 195 682>
LayerCount: 2
Fore
SplineSet
50 154 m 2
 50 682 l 2
 50 709 63 722 90 722 c 2
 164 722 l 2
 191 722 204 709 204 682 c 2
 204 195 l 2
 204 156 223 136 262 136 c 2
 269 136 l 2
 308 136 327 156 327 195 c 2
 327 682 l 2
 327 709 340 722 367 722 c 2
 441 722 l 2
 468 722 481 709 481 682 c 2
 481 153 l 2
 481 63 419 0 327 0 c 2
 203 0 l 2
 111 0 50 62 50 154 c 2
254 892 m 2
 278 892 l 2
 293 892 300 886 308 881 c 2
 402 820 l 2
 410 815 408 804 403 797 c 2
 381 762 l 2
 374 751 365 755 354 760 c 2
 265 801 l 1
 176 760 l 2
 167 756 156 751 149 762 c 2
 126 798 l 2
 122 805 120 815 128 820 c 2
 222 881 l 2
 227 884 239 892 254 892 c 2
EndSplineSet
Position2: "'cpsp' Capital Spacing in Latin lookup 0 subtable" dx=7 dy=0 dh=14 dv=0
EndChar

StartChar: Ubreve
Encoding: 364 364 131
Width: 531
Flags: MW
HStem: 0 136<157 269 262 269 269 288.5 262 327> 702 20G<90 164 164 177.5 367 441 441 454.5> 750 77<250.5 279 250.5 307.5> 750 113<145 307.5>
VStem: 50 154<175.5 195 195 682> 327 154<0 153 195 682>
LayerCount: 2
Fore
SplineSet
50 154 m 2xdc
 50 682 l 2
 50 709 63 722 90 722 c 2
 164 722 l 2
 191 722 204 709 204 682 c 2
 204 195 l 2
 204 156 223 136 262 136 c 2
 269 136 l 2
 308 136 327 156 327 195 c 2
 327 682 l 2
 327 709 340 722 367 722 c 2
 441 722 l 2
 468 722 481 709 481 682 c 2
 481 153 l 2
 481 63 419 0 327 0 c 2
 203 0 l 2
 111 0 50 62 50 154 c 2xdc
145 863 m 2
 198 863 l 2xdc
 209 863 213 857 214 853 c 0
 219 836 236 827 265 827 c 0xec
 293 827 313 837 317 853 c 0
 318 857 323 863 332 863 c 2
 385 863 l 2
 395 863 400 858 400 847 c 0
 400 804 350 750 265 750 c 0
 184 750 130 803 130 846 c 0
 130 857 135 863 145 863 c 2
EndSplineSet
EndChar

StartChar: Uacute
Encoding: 218 218 132
Width: 531
Flags: MW
HStem: 0 136<157 269 262 269 269 288.5 262 327> 702 20G<90 164 164 177.5 367 441 441 454.5>
VStem: 50 154<175.5 195 195 682> 327 154<0 153 195 682>
LayerCount: 2
Fore
SplineSet
50 154 m 2
 50 682 l 2
 50 709 63 722 90 722 c 2
 164 722 l 2
 191 722 204 709 204 682 c 2
 204 195 l 2
 204 156 223 136 262 136 c 2
 269 136 l 2
 308 136 327 156 327 195 c 2
 327 682 l 2
 327 709 340 722 367 722 c 2
 441 722 l 2
 468 722 481 709 481 682 c 2
 481 153 l 2
 481 63 419 0 327 0 c 2
 203 0 l 2
 111 0 50 62 50 154 c 2
218 815 m 2
 359 886 l 2
 373 893 382 890 387 877 c 2
 409 820 l 2
 414 807 409 798 394 793 c 2
 241 751 l 1
 228 746 219 750 215 763 c 1
 204 790 l 2
 200 799 206 808 218 815 c 2
EndSplineSet
Position2: "'cpsp' Capital Spacing in Latin lookup 0 subtable" dx=7 dy=0 dh=14 dv=0
EndChar

StartChar: utilde
Encoding: 361 361 133
Width: 468
Flags: MW
HStem: -20 20G<282 382 282 282> -3 21G<114.5 144.5> 485 20G<90 164 164 177.5 304 378 378 391.5>
VStem: 50 154<151.5 160 160 465> 264 154<24 36 133 465>
LayerCount: 2
Fore
SplineSet
418 465 m 2x78
 418 36 l 2
 418 16 402 0 382 0 c 2
 282 0 l 1xb8
 264 24 l 1
 167 1 l 2
 158 -2 149 -3 140 -3 c 0
 89 -3 50 35 50 95 c 2
 50 465 l 2
 50 492 63 505 90 505 c 2
 164 505 l 2
 191 505 204 492 204 465 c 2
 204 160 l 2
 204 143 216 133 231 133 c 2
 264 133 l 1
 264 465 l 2
 264 492 277 505 304 505 c 2
 378 505 l 2
 405 505 418 492 418 465 c 2x78
66 602 m 2
 91 647 l 1
 115 687 191 709 256 660 c 1
 268 653 l 1
 283 642 293 642 298 653 c 1
 304 663 l 1
 313 676 318 679 330 679 c 2
 389 679 l 2
 404 679 410 667 402 652 c 2
 377 606 l 2
 353 563 276 544 212 592 c 1
 198 602 l 2
 185 611 175 611 170 600 c 1
 164 590 l 2
 156 577 150 574 138 574 c 2
 78 574 l 2
 65 574 58 587 66 602 c 2
EndSplineSet
EndChar

StartChar: uring
Encoding: 367 367 134
Width: 468
Flags: MW
HStem: -20 20G<282 382 282 282> -3 21G<114.5 144.5> 485 20G<90 164 164 177.5 304 378 378 391.5> 568 59<224 244 224 260> 697 58<224 244>
VStem: 50 154<151.5 160 160 465> 140 64 264 63 264 154<24 36 133 465>
LayerCount: 2
Fore
SplineSet
418 465 m 2x7c80
 418 36 l 2
 418 16 402 0 382 0 c 2
 282 0 l 1xba80
 264 24 l 1
 167 1 l 2
 158 -2 149 -3 140 -3 c 0x7a80
 89 -3 50 35 50 95 c 2
 50 465 l 2
 50 492 63 505 90 505 c 2
 164 505 l 2
 191 505 204 492 204 465 c 2
 204 160 l 2
 204 143 216 133 231 133 c 2
 264 133 l 1
 264 465 l 2
 264 492 277 505 304 505 c 2
 378 505 l 2
 405 505 418 492 418 465 c 2x7c80
234 755 m 0
 286 755 327 714 327 662 c 0x7d
 327 610 286 568 234 568 c 0
 182 568 140 610 140 662 c 0
 140 714 182 755 234 755 c 0
234 697 m 0
 214 697 199 682 199 662 c 0
 199 642 214 627 234 627 c 0
 254 627 269 642 269 662 c 0
 269 682 254 697 234 697 c 0
EndSplineSet
EndChar

StartChar: uogonek
Encoding: 371 371 135
Width: 468
Flags: MW
HStem: -217 72<265.5 382 333 382 382 383> -20 20G<282 282 366 366 366 382> 485 20G<90 164 164 177.5 304 378 378 391.5>
VStem: 50 154<151.5 160 160 465> 264 154<24 36 133 465>
LayerCount: 2
Fore
SplineSet
237 -105 m 2
 282 0 l 1
 264 24 l 1
 167 1 l 2
 158 -2 149 -3 140 -3 c 0
 89 -3 50 35 50 95 c 2
 50 465 l 2
 50 492 63 505 90 505 c 2
 164 505 l 2
 191 505 204 492 204 465 c 2
 204 160 l 2
 204 143 216 133 231 133 c 2
 264 133 l 1
 264 465 l 2
 264 492 277 505 304 505 c 2
 378 505 l 2
 405 505 418 492 418 465 c 2
 418 36 l 2
 418 16 402 0 382 0 c 2
 366 0 l 1
 316 -113 l 2
 308 -130 314 -145 333 -145 c 2
 382 -145 l 2
 397 -145 407 -151 407 -166 c 2
 407 -197 l 2
 407 -210 395 -217 383 -217 c 2
 291 -217 l 2
 240 -217 215 -154 237 -105 c 2
EndSplineSet
EndChar

StartChar: umacron
Encoding: 363 363 136
Width: 468
Flags: MW
HStem: -20 20G<282 382 282 282> -3 21G<114.5 144.5> 485 20G<90 164 164 177.5 304 378 378 391.5> 574 101<124.5 330 138 330>
VStem: 50 154<151.5 160 160 465> 264 154<24 36 133 465>
LayerCount: 2
Fore
SplineSet
418 465 m 2x7c
 418 36 l 2
 418 16 402 0 382 0 c 2
 282 0 l 1xbc
 264 24 l 1
 167 1 l 2
 158 -2 149 -3 140 -3 c 0
 89 -3 50 35 50 95 c 2
 50 465 l 2
 50 492 63 505 90 505 c 2
 164 505 l 2
 191 505 204 492 204 465 c 2
 204 160 l 2
 204 143 216 133 231 133 c 2
 264 133 l 1
 264 465 l 2
 264 492 277 505 304 505 c 2
 378 505 l 2
 405 505 418 492 418 465 c 2x7c
98 614 m 2
 98 635 l 2
 98 662 111 675 138 675 c 2
 330 675 l 2
 357 675 370 662 370 635 c 2
 370 614 l 2
 370 587 357 574 330 574 c 2
 138 574 l 2
 111 574 98 587 98 614 c 2
EndSplineSet
EndChar

StartChar: uhungarumlaut
Encoding: 369 369 137
Width: 468
Flags: MW
HStem: -20 20G<282 382 282 282> -3 21G<114.5 144.5> 485 20G<90 164 164 177.5 304 378 378 391.5>
VStem: 50 154<151.5 160 160 465> 264 154<24 36 133 465>
LayerCount: 2
Fore
SplineSet
418 465 m 2x78
 418 36 l 2
 418 16 402 0 382 0 c 2
 282 0 l 1xb8
 264 24 l 1
 167 1 l 2
 158 -2 149 -3 140 -3 c 0
 89 -3 50 35 50 95 c 2
 50 465 l 2
 50 492 63 505 90 505 c 2
 164 505 l 2
 191 505 204 492 204 465 c 2
 204 160 l 2
 204 143 216 133 231 133 c 2
 264 133 l 1
 264 465 l 2
 264 492 277 505 304 505 c 2
 378 505 l 2
 405 505 418 492 418 465 c 2x78
296 532 m 2
 262 554 l 2
 254 559 253 572 260 583 c 2
 345 720 l 2
 352 733 362 735 374 726 c 2
 431 682 l 2
 442 674 442 663 433 652 c 2
 324 535 l 2
 315 526 306 525 296 532 c 2
111 532 m 2
 77 554 l 2
 69 559 68 572 75 583 c 2
 160 720 l 2
 167 733 177 735 189 726 c 2
 246 682 l 2
 257 674 257 663 248 652 c 2
 139 535 l 2
 130 526 121 525 111 532 c 2
EndSplineSet
EndChar

StartChar: ugrave
Encoding: 249 249 138
Width: 468
Flags: MW
HStem: -20 20G<282 382 282 282> -3 21G<114.5 144.5> 485 20G<90 164 164 177.5 304 378 378 391.5>
VStem: 50 154<151.5 160 160 465> 264 154<24 36 133 465>
LayerCount: 2
Fore
SplineSet
418 465 m 2x78
 418 36 l 2
 418 16 402 0 382 0 c 2
 282 0 l 1xb8
 264 24 l 1
 167 1 l 2
 158 -2 149 -3 140 -3 c 0
 89 -3 50 35 50 95 c 2
 50 465 l 2
 50 492 63 505 90 505 c 2
 164 505 l 2
 191 505 204 492 204 465 c 2
 204 160 l 2
 204 143 216 133 231 133 c 2
 264 133 l 1
 264 465 l 2
 264 492 277 505 304 505 c 2
 378 505 l 2
 405 505 418 492 418 465 c 2x78
134 682 m 2
 191 726 l 2
 203 735 213 733 220 720 c 2
 305 583 l 2
 312 572 311 561 303 554 c 1
 269 532 l 2
 258 525 249 526 241 535 c 2
 132 652 l 2
 122 663 123 673 134 682 c 2
EndSplineSet
EndChar

StartChar: udieresis
Encoding: 252 252 139
Width: 468
Flags: MW
HStem: -20 20G<282 382 282 282> -3 21G<114.5 144.5> 485 20G<90 164 164 177.5 304 378 378 391.5> 574 123<77 158 89 158 314 383>
VStem: 50 154<151.5 160 160 465> 264 154<24 36 133 465> 278 140
LayerCount: 2
Fore
SplineSet
418 465 m 2x7c
 418 36 l 2
 418 16 402 0 382 0 c 2
 282 0 l 1xbc
 264 24 l 1
 167 1 l 2
 158 -2 149 -3 140 -3 c 0
 89 -3 50 35 50 95 c 2
 50 465 l 2
 50 492 63 505 90 505 c 2
 164 505 l 2
 191 505 204 492 204 465 c 2
 204 160 l 2
 204 143 216 133 231 133 c 2
 264 133 l 1
 264 465 l 2
 264 492 277 505 304 505 c 2
 378 505 l 2
 405 505 418 492 418 465 c 2x7c
278 610 m 2x7a
 278 663 l 2
 278 686 290 697 314 697 c 2
 383 697 l 2
 407 697 419 686 419 663 c 2
 419 610 l 2
 419 586 407 574 383 574 c 2
 314 574 l 2
 290 574 278 586 278 610 c 2x7a
53 610 m 2
 53 663 l 2
 53 686 65 697 89 697 c 2
 158 697 l 2
 182 697 194 686 194 663 c 2
 194 610 l 2
 194 586 182 574 158 574 c 2
 89 574 l 2
 65 574 53 586 53 610 c 2
EndSplineSet
EndChar

StartChar: ucircumflex
Encoding: 251 251 140
Width: 468
Flags: MW
HStem: -20 20G<282 382 282 282> -3 21G<114.5 144.5> 485 20G<90 164 164 177.5 304 378 378 391.5> 704 20G<197 271 271 278.5>
VStem: 50 154<151.5 160 160 465> 264 154<24 36 133 465>
LayerCount: 2
Fore
SplineSet
418 465 m 2x7c
 418 36 l 2
 418 16 402 0 382 0 c 2
 282 0 l 1xbc
 264 24 l 1
 167 1 l 2
 158 -2 149 -3 140 -3 c 0
 89 -3 50 35 50 95 c 2
 50 465 l 2
 50 492 63 505 90 505 c 2
 164 505 l 2
 191 505 204 492 204 465 c 2
 204 160 l 2
 204 143 216 133 231 133 c 2
 264 133 l 1
 264 465 l 2
 264 492 277 505 304 505 c 2
 378 505 l 2
 405 505 418 492 418 465 c 2x7c
197 724 m 2
 271 724 l 2
 286 724 290 718 294 710 c 2
 353 592 l 2
 357 584 355 571 347 567 c 2
 313 549 l 1
 302 542 293 547 286 556 c 2
 234 630 l 1
 182 556 l 1
 175 548 166 544 155 549 c 2
 121 567 l 2
 114 571 111 584 115 592 c 2
 174 710 l 2
 177 717 182 724 197 724 c 2
EndSplineSet
EndChar

StartChar: ubreve
Encoding: 365 365 141
Width: 468
Flags: MW
HStem: -20 20G<282 382 282 282> -3 21G<114.5 144.5> 485 20G<90 164 164 177.5 304 378 378 391.5> 568 77<219.5 248 219.5 276.5> 568 113<114 276.5>
VStem: 50 154<151.5 160 160 465> 264 154<24 36 133 465>
LayerCount: 2
Fore
SplineSet
418 465 m 2x76
 418 36 l 2
 418 16 402 0 382 0 c 2
 282 0 l 1xae
 264 24 l 1
 167 1 l 2
 158 -2 149 -3 140 -3 c 0
 89 -3 50 35 50 95 c 2
 50 465 l 2
 50 492 63 505 90 505 c 2
 164 505 l 2
 191 505 204 492 204 465 c 2
 204 160 l 2
 204 143 216 133 231 133 c 2
 264 133 l 1
 264 465 l 2
 264 492 277 505 304 505 c 2
 378 505 l 2
 405 505 418 492 418 465 c 2x76
114 681 m 2
 167 681 l 2x6e
 178 681 182 675 183 671 c 0
 188 654 205 645 234 645 c 0x76
 262 645 282 655 286 671 c 0
 287 675 292 681 301 681 c 2
 354 681 l 2
 364 681 369 676 369 665 c 0
 369 622 319 568 234 568 c 0
 153 568 99 621 99 664 c 0
 99 675 104 681 114 681 c 2
EndSplineSet
EndChar

StartChar: uacute
Encoding: 250 250 142
Width: 468
Flags: MW
HStem: -20 20G<282 382 282 282> -3 21G<114.5 144.5> 485 20G<90 164 164 177.5 304 378 378 391.5>
VStem: 50 154<151.5 160 160 465> 264 154<24 36 133 465>
LayerCount: 2
Fore
SplineSet
418 465 m 2x78
 418 36 l 2
 418 16 402 0 382 0 c 2
 282 0 l 1xb8
 264 24 l 1
 167 1 l 2
 158 -2 149 -3 140 -3 c 0
 89 -3 50 35 50 95 c 2
 50 465 l 2
 50 492 63 505 90 505 c 2
 164 505 l 2
 191 505 204 492 204 465 c 2
 204 160 l 2
 204 143 216 133 231 133 c 2
 264 133 l 1
 264 465 l 2
 264 492 277 505 304 505 c 2
 378 505 l 2
 405 505 418 492 418 465 c 2x78
207 532 m 2
 173 554 l 2
 165 559 164 572 171 583 c 2
 256 720 l 2
 263 733 273 735 285 726 c 2
 342 682 l 2
 353 674 353 663 344 652 c 2
 235 535 l 2
 226 526 217 525 207 532 c 2
EndSplineSet
EndChar

StartChar: Tbar
Encoding: 358 358 143
Width: 479
Flags: MW
HStem: 0 21G<188.5 202 202 276> 231 136<70.5 162 84 162 316 394> 586 136<37.5 428 51 162 316 316 316 428>
VStem: 162 154<40 231 367 586>
LayerCount: 2
Fore
SplineSet
44 271 m 2
 44 327 l 2
 44 354 57 367 84 367 c 2
 162 367 l 1
 162 586 l 1
 51 586 l 2
 24 586 11 599 11 626 c 2
 11 682 l 2
 11 709 24 722 51 722 c 2
 428 722 l 2
 455 722 468 709 468 682 c 2
 468 626 l 2
 468 599 455 586 428 586 c 2
 316 586 l 1
 316 367 l 1
 394 367 l 2
 421 367 434 354 434 327 c 2
 434 271 l 2
 434 244 421 231 394 231 c 2
 316 231 l 1
 316 40 l 2
 316 13 303 0 276 0 c 2
 202 0 l 2
 175 0 162 13 162 40 c 2
 162 231 l 1
 84 231 l 2
 57 231 44 244 44 271 c 2
EndSplineSet
EndChar

StartChar: Tcaron
Encoding: 356 356 144
Width: 479
Flags: MW
HStem: 0 21G<188.5 202 202 276> 586 136<37.5 428 51 162 316 316 316 428> 722 28<220.5 228 228 252 220.5 428>
VStem: 162 154<40 586>
LayerCount: 2
Fore
SplineSet
162 40 m 2xd0
 162 586 l 1
 51 586 l 2
 24 586 11 599 11 626 c 2
 11 682 l 2
 11 709 24 722 51 722 c 2
 428 722 l 2
 455 722 468 709 468 682 c 2
 468 626 l 2
 468 599 455 586 428 586 c 2
 316 586 l 1
 316 40 l 2
 316 13 303 0 276 0 c 2
 202 0 l 2
 175 0 162 13 162 40 c 2xd0
101 845 m 2
 123 880 l 2
 130 891 141 886 150 882 c 2
 239 841 l 1
 328 882 l 2
 339 887 348 891 355 880 c 2
 377 845 l 2
 381 838 383 827 376 822 c 2
 282 761 l 2
 275 756 267 750 252 750 c 2
 228 750 l 2xb0
 213 750 201 758 196 761 c 2
 102 822 l 2
 99 825 97 828 97 832 c 0
 97 837 98 841 101 845 c 2
EndSplineSet
Position2: "'cpsp' Capital Spacing in Latin lookup 0 subtable" dx=7 dy=0 dh=14 dv=0
EndChar

StartChar: tbar
Encoding: 359 359 145
Width: 328
Flags: MW
HStem: 0 136<157 277 272 277 272 277> 203 121<56.5 76 70 76 230 258> 369 136<56.5 76 70 76 230 258> 630 20G<116 190 190 203.5>
VStem: 76 154<164 178 178 203 164 203 324 369 505 610> 76 241<26.5 203 26.5 203>
LayerCount: 2
Fore
SplineSet
76 324 m 1xf8
 76 369 l 1
 70 369 l 2
 43 369 30 382 30 409 c 2
 30 465 l 2
 30 492 43 505 70 505 c 2
 76 505 l 1
 76 610 l 2
 76 637 89 650 116 650 c 2
 190 650 l 2
 217 650 230 637 230 610 c 2
 230 505 l 1
 258 505 l 2
 285 505 298 492 298 465 c 2
 298 409 l 2
 298 382 285 369 258 369 c 2
 230 369 l 1
 230 324 l 1
 258 324 l 2
 285 324 298 311 298 284 c 2
 298 243 l 2
 298 216 285 203 258 203 c 2
 230 203 l 1
 230 178 l 2xf8
 230 150 244 136 272 136 c 2
 277 136 l 2
 304 136 317 123 317 96 c 2
 317 40 l 2xf4
 317 13 304 0 277 0 c 2
 191 0 l 2
 123 0 76 44 76 120 c 2
 76 203 l 1
 70 203 l 2
 43 203 30 216 30 243 c 2
 30 284 l 2
 30 311 43 324 70 324 c 2
 76 324 l 1xf8
EndSplineSet
EndChar

StartChar: tcaron
Encoding: 357 357 146
Width: 373
Flags: MW
HStem: 0 136<157 277 272 277 272 277> 369 136<56.5 76 70 76 230 258> 774 20G<262 327 327 336.5>
VStem: 76 241<26.5 369> 226 137<690 758 653 768>
LayerCount: 2
Fore
SplineSet
76 120 m 2xf0
 76 369 l 1
 70 369 l 2
 43 369 30 382 30 409 c 2
 30 465 l 2
 30 492 43 505 70 505 c 2
 76 505 l 1
 76 610 l 2
 76 637 89 650 116 650 c 2
 190 650 l 2
 217 650 230 637 230 610 c 2
 230 505 l 1
 258 505 l 2
 285 505 298 492 298 465 c 2
 298 409 l 2
 298 382 285 369 258 369 c 2
 230 369 l 1
 230 178 l 2
 230 150 244 136 272 136 c 2
 277 136 l 2
 304 136 317 123 317 96 c 2
 317 40 l 2
 317 13 304 0 277 0 c 2
 191 0 l 2
 123 0 76 44 76 120 c 2xf0
226 690 m 2xe8
 226 758 l 2
 226 778 243 794 262 794 c 2
 327 794 l 2
 346 794 363 778 363 758 c 2
 363 653 l 1
 337 578 l 2
 330 558 320 541 301 541 c 2
 259 541 l 1
 275 653 l 1
 262 653 l 2
 243 653 226 670 226 690 c 2xe8
EndSplineSet
EndChar

StartChar: Scircumflex
Encoding: 348 348 147
Width: 412
Flags: MW
HStem: 0 136<64.5 172 78 172 172 194 78 239> 586 136<215.5 236 236 316> 872 20G<195 219 219 226.5>
VStem: 20 154<500.5 514 514 521 500.5 569 500.5 614.5> 238 154<201 208 208 221.5>
LayerCount: 2
Fore
SplineSet
211 264 m 2
 74 366 l 2
 41 390 20 424 20 475 c 2
 20 569 l 2
 20 660 83 722 173 722 c 2
 316 722 l 2
 343 722 356 709 356 682 c 2
 356 626 l 2
 356 599 343 586 316 586 c 2
 236 586 l 2
 195 586 174 564 174 521 c 2
 174 514 l 2
 174 487 184 470 201 458 c 2
 338 356 l 2
 371 332 392 298 392 247 c 2
 392 153 l 2
 392 63 330 0 239 0 c 2
 78 0 l 2
 51 0 38 13 38 40 c 2
 38 96 l 2
 38 123 51 136 78 136 c 2
 172 136 l 2
 216 136 238 158 238 201 c 2
 238 208 l 2
 238 235 228 252 211 264 c 2
195 892 m 2
 219 892 l 2
 234 892 241 886 249 881 c 2
 343 820 l 2
 351 815 349 804 344 797 c 2
 322 762 l 2
 315 751 306 755 295 760 c 2
 206 801 l 1
 117 760 l 2
 108 756 97 751 90 762 c 2
 67 798 l 2
 63 805 61 815 69 820 c 2
 163 881 l 2
 168 884 180 892 195 892 c 2
EndSplineSet
EndChar

StartChar: Scedilla
Encoding: 350 350 148
Width: 412
Flags: MW
HStem: -217 64<134 138 138 206 206 213 134 244> -103 60<147.5 243 154 243> 0 136<64.5 172 78 145 78 216 78 239> 586 136<215.5 236 236 316>
VStem: 20 154<500.5 514 514 521 500.5 569 500.5 614.5> 227 69<-135 -120 -120 -114> 227 165
LayerCount: 2
Fore
SplineSet
133 -78 m 2xfc
 145 0 l 1
 78 0 l 2
 51 0 38 13 38 40 c 2
 38 96 l 2
 38 123 51 136 78 136 c 2
 172 136 l 2
 216 136 238 158 238 201 c 2
 238 208 l 2
 238 235 228 252 211 264 c 2
 74 366 l 2
 41 390 20 424 20 475 c 2
 20 569 l 2
 20 660 83 722 173 722 c 2
 316 722 l 2
 343 722 356 709 356 682 c 2
 356 626 l 2
 356 599 343 586 316 586 c 2
 236 586 l 2
 195 586 174 564 174 521 c 2
 174 514 l 2
 174 487 184 470 201 458 c 2
 338 356 l 2
 371 332 392 298 392 247 c 2
 392 153 l 2xfa
 392 63 330 0 239 0 c 2
 216 0 l 1
 209 -43 l 1
 243 -43 l 2
 275 -43 296 -65 296 -96 c 2
 296 -163 l 2
 296 -195 273 -217 244 -217 c 2
 138 -217 l 2
 126 -217 116 -210 116 -197 c 2
 116 -174 l 2
 116 -160 122 -153 134 -153 c 2
 206 -153 l 2
 220 -153 227 -147 227 -135 c 2
 227 -120 l 2
 227 -108 216 -103 203 -103 c 2
 154 -103 l 2
 141 -103 130 -93 133 -78 c 2xfc
EndSplineSet
Position2: "'cpsp' Capital Spacing in Latin lookup 0 subtable" dx=7 dy=0 dh=14 dv=0
EndChar

StartChar: Scaron
Encoding: 352 352 149
Width: 412
Flags: MW
HStem: 0 136<64.5 172 78 172 172 194 78 239> 586 136<215.5 236 236 316> 722 28<188.5 196 196 220 188.5 316>
VStem: 20 154<500.5 514 514 521 500.5 569 500.5 614.5> 238 154<201 208 208 221.5>
LayerCount: 2
Fore
SplineSet
211 264 m 2xd8
 74 366 l 2
 41 390 20 424 20 475 c 2
 20 569 l 2
 20 660 83 722 173 722 c 2
 316 722 l 2
 343 722 356 709 356 682 c 2
 356 626 l 2
 356 599 343 586 316 586 c 2
 236 586 l 2
 195 586 174 564 174 521 c 2
 174 514 l 2
 174 487 184 470 201 458 c 2
 338 356 l 2
 371 332 392 298 392 247 c 2
 392 153 l 2
 392 63 330 0 239 0 c 2
 78 0 l 2
 51 0 38 13 38 40 c 2
 38 96 l 2
 38 123 51 136 78 136 c 2
 172 136 l 2
 216 136 238 158 238 201 c 2
 238 208 l 2
 238 235 228 252 211 264 c 2xd8
69 845 m 2
 91 880 l 2
 98 891 109 886 118 882 c 2
 207 841 l 1
 296 882 l 2
 307 887 316 891 323 880 c 2
 345 845 l 2
 349 838 351 827 344 822 c 2
 250 761 l 2
 243 756 235 750 220 750 c 2
 196 750 l 2xb8
 181 750 169 758 164 761 c 2
 70 822 l 2
 67 825 65 828 65 832 c 0
 65 837 66 841 69 845 c 2
EndSplineSet
Position2: "'cpsp' Capital Spacing in Latin lookup 0 subtable" dx=7 dy=0 dh=14 dv=0
EndChar

StartChar: Sacute
Encoding: 346 346 150
Width: 412
Flags: MW
HStem: 0 136<64.5 172 78 172 172 194 78 239> 586 136<215.5 236 236 316>
VStem: 20 154<500.5 514 514 521 500.5 569 500.5 614.5> 238 154<201 208 208 221.5>
LayerCount: 2
Fore
SplineSet
211 264 m 2
 74 366 l 2
 41 390 20 424 20 475 c 2
 20 569 l 2
 20 660 83 722 173 722 c 2
 316 722 l 2
 343 722 356 709 356 682 c 2
 356 626 l 2
 356 599 343 586 316 586 c 2
 236 586 l 2
 195 586 174 564 174 521 c 2
 174 514 l 2
 174 487 184 470 201 458 c 2
 338 356 l 2
 371 332 392 298 392 247 c 2
 392 153 l 2
 392 63 330 0 239 0 c 2
 78 0 l 2
 51 0 38 13 38 40 c 2
 38 96 l 2
 38 123 51 136 78 136 c 2
 172 136 l 2
 216 136 238 158 238 201 c 2
 238 208 l 2
 238 235 228 252 211 264 c 2
138 815 m 2
 279 886 l 2
 293 893 302 890 307 877 c 2
 329 820 l 2
 334 807 329 798 314 793 c 2
 161 751 l 1
 148 746 139 750 135 763 c 1
 124 790 l 2
 120 799 126 808 138 815 c 2
EndSplineSet
Position2: "'cpsp' Capital Spacing in Latin lookup 0 subtable" dx=7 dy=0 dh=14 dv=0
EndChar

StartChar: scircumflex
Encoding: 349 349 151
Width: 374
Flags: MW
HStem: 0 136<74.5 172 88 172 172 177.5 88 247> 369 136<196.5 202 202 286> 704 20G<150 224 224 231.5>
LayerCount: 2
Fore
SplineSet
181 170 m 2
 73 258 l 2
 46 281 30 300 30 335 c 2
 30 407 l 2
 30 467 68 505 128 505 c 2
 286 505 l 2
 313 505 326 492 326 465 c 2
 326 409 l 2
 326 382 313 369 286 369 c 2
 202 369 l 2
 191 369 184 360 184 352 c 2
 184 351 l 2
 184 342 188 340 193 336 c 2
 301 247 l 2
 329 224 344 205 344 170 c 2
 344 98 l 2
 344 38 306 0 247 0 c 2
 88 0 l 2
 61 0 48 13 48 40 c 2
 48 96 l 2
 48 123 61 136 88 136 c 2
 172 136 l 2
 183 136 190 145 190 154 c 2
 190 155 l 2
 190 160 187 165 181 170 c 2
150 724 m 2
 224 724 l 2
 239 724 243 718 247 710 c 2
 306 592 l 2
 310 584 308 571 300 567 c 2
 266 549 l 1
 255 542 246 547 239 556 c 2
 187 630 l 1
 135 556 l 1
 128 548 119 544 108 549 c 2
 74 567 l 2
 67 571 64 584 68 592 c 2
 127 710 l 2
 130 717 135 724 150 724 c 2
EndSplineSet
EndChar

StartChar: scedilla
Encoding: 351 351 152
Width: 374
Flags: MW
HStem: -217 64<130 134 134 202 202 209 130 240> -103 60<143.5 239 150 239> 0 136<74.5 172 88 141 88 212 88 247> 369 136<196.5 202 202 286>
LayerCount: 2
Fore
SplineSet
129 -78 m 2
 141 0 l 1
 88 0 l 2
 61 0 48 13 48 40 c 2
 48 96 l 2
 48 123 61 136 88 136 c 2
 172 136 l 2
 183 136 190 145 190 154 c 2
 190 155 l 2
 190 160 187 165 181 170 c 2
 73 258 l 2
 46 281 30 300 30 335 c 2
 30 407 l 2
 30 467 68 505 128 505 c 2
 286 505 l 2
 313 505 326 492 326 465 c 2
 326 409 l 2
 326 382 313 369 286 369 c 2
 202 369 l 2
 191 369 184 360 184 352 c 2
 184 351 l 2
 184 342 188 340 193 336 c 2
 301 247 l 2
 329 224 344 205 344 170 c 2
 344 98 l 2
 344 38 306 0 247 0 c 2
 212 0 l 1
 205 -43 l 1
 239 -43 l 2
 271 -43 292 -65 292 -96 c 2
 292 -163 l 2
 292 -195 269 -217 240 -217 c 2
 134 -217 l 2
 122 -217 112 -210 112 -197 c 2
 112 -174 l 2
 112 -160 118 -153 130 -153 c 2
 202 -153 l 2
 216 -153 223 -147 223 -135 c 2
 223 -120 l 2
 223 -108 212 -103 199 -103 c 2
 150 -103 l 2
 137 -103 126 -93 129 -78 c 2
EndSplineSet
EndChar

StartChar: scaron
Encoding: 353 353 153
Width: 374
Flags: MW
HStem: 0 136<74.5 172 88 172 172 177.5 88 247> 369 136<196.5 202 202 286> 505 39<136.5 144 144 218>
LayerCount: 2
Fore
SplineSet
181 170 m 2xc0
 73 258 l 2
 46 281 30 300 30 335 c 2
 30 407 l 2
 30 467 68 505 128 505 c 2
 286 505 l 2
 313 505 326 492 326 465 c 2
 326 409 l 2
 326 382 313 369 286 369 c 2
 202 369 l 2
 191 369 184 360 184 352 c 2
 184 351 l 2
 184 342 188 340 193 336 c 2
 301 247 l 2
 329 224 344 205 344 170 c 2
 344 98 l 2
 344 38 306 0 247 0 c 2
 88 0 l 2
 61 0 48 13 48 40 c 2
 48 96 l 2
 48 123 61 136 88 136 c 2
 172 136 l 2
 183 136 190 145 190 154 c 2
 190 155 l 2
 190 160 187 165 181 170 c 2xc0
68 701 m 2
 102 719 l 2
 113 724 124 720 129 712 c 2
 181 638 l 1
 233 712 l 2
 240 722 249 724 260 719 c 2
 294 701 l 2
 302 697 304 684 300 676 c 2
 241 558 l 2
 237 550 233 544 218 544 c 2
 144 544 l 2xa0
 129 544 124 551 121 558 c 2
 62 676 l 2
 58 684 60 697 68 701 c 2
EndSplineSet
EndChar

StartChar: sacute
Encoding: 347 347 154
Width: 374
Flags: MW
HStem: 0 136<74.5 172 88 172 172 177.5 88 247> 369 136<196.5 202 202 286>
LayerCount: 2
Fore
SplineSet
181 170 m 2
 73 258 l 2
 46 281 30 300 30 335 c 2
 30 407 l 2
 30 467 68 505 128 505 c 2
 286 505 l 2
 313 505 326 492 326 465 c 2
 326 409 l 2
 326 382 313 369 286 369 c 2
 202 369 l 2
 191 369 184 360 184 352 c 2
 184 351 l 2
 184 342 188 340 193 336 c 2
 301 247 l 2
 329 224 344 205 344 170 c 2
 344 98 l 2
 344 38 306 0 247 0 c 2
 88 0 l 2
 61 0 48 13 48 40 c 2
 48 96 l 2
 48 123 61 136 88 136 c 2
 172 136 l 2
 183 136 190 145 190 154 c 2
 190 155 l 2
 190 160 187 165 181 170 c 2
158 532 m 2
 124 554 l 2
 116 559 115 572 122 583 c 2
 207 720 l 2
 214 733 224 735 236 726 c 2
 293 682 l 2
 304 674 304 663 295 652 c 2
 186 535 l 2
 177 526 168 525 158 532 c 2
EndSplineSet
EndChar

StartChar: Rcaron
Encoding: 344 344 155
Width: 507
Flags: MW
HStem: 0 21G<77.5 91 91 164 347 359 359 437> 433 153<218.5 224 224 237 237 241 218.5 259> 586 136<218.5 224 224 241> 722 28<228.5 236 236 260 228.5 304>
VStem: 50 154<40 41 41 297 433 568> 303 154<499 521 521 542.5>
LayerCount: 2
Fore
SplineSet
89 722 m 2xac
 304 722 l 2
 395 722 457 659 457 570 c 2
 457 467 l 2
 457 419 432 366 375 339 c 1
 399 316 418 273 429 234 c 1
 476 45 l 1
 483 22 468 0 437 0 c 2
 359 0 l 2
 335 0 324 10 320 27 c 2
 266 267 l 2
 262 284 246 297 227 297 c 2
 204 297 l 1
 204 41 l 2
 204 14 191 0 164 0 c 2
 91 0 l 2
 64 0 50 13 50 40 c 2
 50 682 l 2
 50 709 63 722 89 722 c 2xac
109 845 m 2
 131 880 l 2
 138 891 149 886 158 882 c 2
 247 841 l 1
 336 882 l 2
 347 887 356 891 363 880 c 2
 385 845 l 2
 389 838 391 827 384 822 c 2
 290 761 l 2
 283 756 275 750 260 750 c 2
 236 750 l 2xdc
 221 750 209 758 204 761 c 2
 110 822 l 2
 107 825 105 828 105 832 c 0
 105 837 106 841 109 845 c 2
241 586 m 2
 224 586 l 2
 213 586 204 577 204 568 c 2
 204 433 l 1
 237 433 l 2
 281 433 303 455 303 499 c 2
 303 521 l 2
 303 564 282 586 241 586 c 2
EndSplineSet
Position2: "'cpsp' Capital Spacing in Latin lookup 0 subtable" dx=7 dy=0 dh=14 dv=0
EndChar

StartChar: Racute
Encoding: 340 340 156
Width: 507
Flags: MW
HStem: 0 21G<77.5 91 91 164 347 359 359 437> 586 136<218.5 224 224 241>
VStem: 50 154<40 41 41 297 433 568> 303 154<499 521 521 542.5>
LayerCount: 2
Fore
SplineSet
89 722 m 2
 304 722 l 2
 395 722 457 659 457 570 c 2
 457 467 l 2
 457 419 432 366 375 339 c 1
 399 316 418 273 429 234 c 1
 476 45 l 1
 483 22 468 0 437 0 c 2
 359 0 l 2
 335 0 324 10 320 27 c 2
 266 267 l 2
 262 284 246 297 227 297 c 2
 204 297 l 1
 204 41 l 2
 204 14 191 0 164 0 c 2
 91 0 l 2
 64 0 50 13 50 40 c 2
 50 682 l 2
 50 709 63 722 89 722 c 2
189 815 m 2
 330 886 l 2
 344 893 353 890 358 877 c 2
 380 820 l 2
 385 807 380 798 365 793 c 2
 212 751 l 1
 199 746 190 750 186 763 c 1
 175 790 l 2
 171 799 177 808 189 815 c 2
241 586 m 2
 224 586 l 2
 213 586 204 577 204 568 c 2
 204 433 l 1
 237 433 l 2
 281 433 303 455 303 499 c 2
 303 521 l 2
 303 564 282 586 241 586 c 2
EndSplineSet
Position2: "'cpsp' Capital Spacing in Latin lookup 0 subtable" dx=7 dy=0 dh=14 dv=0
EndChar

StartChar: rcaron
Encoding: 345 345 157
Width: 324
Flags: MW
HStem: 0 21G<76.5 90 90 164> 505 39<134.5 142 142 185 185 185>
VStem: 50 154<40 354>
LayerCount: 2
Fore
SplineSet
277 354 m 2
 204 354 l 1
 204 40 l 2
 204 13 191 0 164 0 c 2
 90 0 l 2
 63 0 50 13 50 40 c 2
 50 465 l 2
 50 492 63 505 90 505 c 2
 185 505 l 1
 204 463 l 1
 255 501 l 2
 274 514 313 507 313 472 c 2
 313 390 l 2
 313 369 298 354 277 354 c 2
66 701 m 2
 100 719 l 2
 111 724 122 720 127 712 c 2
 179 638 l 1
 231 712 l 2
 238 722 247 724 258 719 c 2
 292 701 l 2
 300 697 302 684 298 676 c 2
 239 558 l 2
 235 550 231 544 216 544 c 2
 142 544 l 2
 127 544 122 551 119 558 c 2
 60 676 l 2
 56 684 58 697 66 701 c 2
EndSplineSet
EndChar

StartChar: racute
Encoding: 341 341 158
Width: 324
Flags: MW
HStem: 0 21G<76.5 90 90 164> 485 20G<90 185 185 185>
VStem: 50 154<40 354>
LayerCount: 2
Fore
SplineSet
277 354 m 2
 204 354 l 1
 204 40 l 2
 204 13 191 0 164 0 c 2
 90 0 l 2
 63 0 50 13 50 40 c 2
 50 465 l 2
 50 492 63 505 90 505 c 2
 185 505 l 1
 204 463 l 1
 255 501 l 2
 274 514 313 507 313 472 c 2
 313 390 l 2
 313 369 298 354 277 354 c 2
142 532 m 2
 108 554 l 2
 100 559 99 572 106 583 c 2
 191 720 l 2
 198 733 208 735 220 726 c 2
 277 682 l 2
 288 674 288 663 279 652 c 2
 170 535 l 2
 161 526 152 525 142 532 c 2
EndSplineSet
EndChar

StartChar: Otilde
Encoding: 213 213 159
Width: 511
Flags: MW
HStem: 0 136<147 259 252 259 259 278.5 252 317> 586 136<232 251 251 259>
VStem: 40 154<175.5 195 195 527> 317 154<0 153 195 527 527 546.5>
LayerCount: 2
Fore
SplineSet
471 569 m 2
 471 153 l 2
 471 63 409 0 317 0 c 2
 193 0 l 2
 101 0 40 62 40 154 c 2
 40 569 l 2
 40 660 103 722 194 722 c 2
 318 722 l 2
 409 722 471 660 471 569 c 2
317 195 m 2
 317 527 l 2
 317 566 298 586 259 586 c 2
 251 586 l 2
 213 586 194 566 194 527 c 2
 194 195 l 2
 194 156 213 136 252 136 c 2
 259 136 l 2
 298 136 317 156 317 195 c 2
87 797 m 2
 112 838 l 2
 137 879 205 888 277 852 c 2
 289 846 l 2
 305 838 311 835 319 846 c 2
 325 854 l 2
 334 867 339 870 351 870 c 2
 410 870 l 2
 425 870 432 858 423 843 c 2
 398 801 l 2
 373 758 305 753 233 788 c 2
 219 795 l 2
 204 802 198 804 191 793 c 1
 185 785 l 2
 176 773 171 769 159 769 c 2
 99 769 l 2
 86 769 79 782 87 797 c 2
EndSplineSet
Position2: "'cpsp' Capital Spacing in Latin lookup 0 subtable" dx=7 dy=0 dh=14 dv=0
EndChar

StartChar: Omacron
Encoding: 332 332 160
Width: 511
Flags: MW
HStem: 0 136<147 259 252 259 259 278.5 252 317> 586 136<232 251 251 259> 780 101<132.5 364 146 364>
VStem: 40 154<175.5 195 195 527> 317 154<0 153 195 527 527 546.5>
LayerCount: 2
Fore
SplineSet
471 569 m 2
 471 153 l 2
 471 63 409 0 317 0 c 2
 193 0 l 2
 101 0 40 62 40 154 c 2
 40 569 l 2
 40 660 103 722 194 722 c 2
 318 722 l 2
 409 722 471 660 471 569 c 2
317 195 m 2
 317 527 l 2
 317 566 298 586 259 586 c 2
 251 586 l 2
 213 586 194 566 194 527 c 2
 194 195 l 2
 194 156 213 136 252 136 c 2
 259 136 l 2
 298 136 317 156 317 195 c 2
106 820 m 2
 106 841 l 2
 106 868 119 881 146 881 c 2
 364 881 l 2
 391 881 404 868 404 841 c 2
 404 820 l 2
 404 793 391 780 364 780 c 2
 146 780 l 2
 119 780 106 793 106 820 c 2
EndSplineSet
Position2: "'cpsp' Capital Spacing in Latin lookup 0 subtable" dx=7 dy=0 dh=14 dv=0
EndChar

StartChar: Ohungarumlaut
Encoding: 336 336 161
Width: 511
Flags: MW
HStem: 0 136<147 259 252 259 259 278.5 252 317> 586 136<232 251 251 259>
VStem: 40 154<175.5 195 195 527> 317 154<0 153 195 527 527 546.5>
LayerCount: 2
Fore
SplineSet
471 569 m 2
 471 153 l 2
 471 63 409 0 317 0 c 2
 193 0 l 2
 101 0 40 62 40 154 c 2
 40 569 l 2
 40 660 103 722 194 722 c 2
 318 722 l 2
 409 722 471 660 471 569 c 2
317 195 m 2
 317 527 l 2
 317 566 298 586 259 586 c 2
 251 586 l 2
 213 586 194 566 194 527 c 2
 194 195 l 2
 194 156 213 136 252 136 c 2
 259 136 l 2
 298 136 317 156 317 195 c 2
66 763 m 2
 55 790 l 2
 52 799 57 810 69 815 c 2
 210 886 l 2
 224 893 233 890 238 877 c 2
 260 820 l 1
 264 806 259 797 245 793 c 2
 92 751 l 2
 79 748 71 750 66 763 c 2
307 763 m 2
 296 790 l 2
 293 799 298 810 310 815 c 2
 451 886 l 2
 465 893 474 890 479 877 c 2
 501 820 l 1
 505 806 500 797 486 793 c 2
 333 751 l 2
 320 748 312 750 307 763 c 2
EndSplineSet
Position2: "'cpsp' Capital Spacing in Latin lookup 0 subtable" dx=7 dy=0 dh=14 dv=0
EndChar

StartChar: Ograve
Encoding: 210 210 162
Width: 511
Flags: MW
HStem: 0 136<147 259 252 259 259 278.5 252 317> 586 136<232 251 251 259>
VStem: 40 154<175.5 195 195 527> 317 154<0 153 195 527 527 546.5>
LayerCount: 2
Fore
SplineSet
471 569 m 2
 471 153 l 2
 471 63 409 0 317 0 c 2
 193 0 l 2
 101 0 40 62 40 154 c 2
 40 569 l 2
 40 660 103 722 194 722 c 2
 318 722 l 2
 409 722 471 660 471 569 c 2
317 195 m 2
 317 527 l 2
 317 566 298 586 259 586 c 2
 251 586 l 2
 213 586 194 566 194 527 c 2
 194 195 l 2
 194 156 213 136 252 136 c 2
 259 136 l 2
 298 136 317 156 317 195 c 2
151 820 m 2
 173 877 l 2
 178 890 188 893 201 886 c 2
 342 815 l 2
 350 811 359 800 355 789 c 2
 345 763 l 2
 340 751 332 747 319 751 c 2
 166 793 l 2
 151 798 146 807 151 820 c 2
EndSplineSet
Position2: "'cpsp' Capital Spacing in Latin lookup 0 subtable" dx=7 dy=0 dh=14 dv=0
EndChar

StartChar: Odieresis
Encoding: 214 214 163
Width: 511
Flags: MW
HStem: 0 136<147 259 252 259 259 278.5 252 317> 586 136<232 251 251 259> 759 123<96 177 108 177 333 402>
VStem: 40 154<175.5 195 195 527> 72 141<795 848 783 859.5> 297 141<795 848 783 859.5> 317 154<0 153 195 527 527 546.5>
LayerCount: 2
Fore
SplineSet
471 569 m 2xf2
 471 153 l 2
 471 63 409 0 317 0 c 2
 193 0 l 2
 101 0 40 62 40 154 c 2
 40 569 l 2
 40 660 103 722 194 722 c 2
 318 722 l 2
 409 722 471 660 471 569 c 2xf2
317 195 m 2
 317 527 l 2
 317 566 298 586 259 586 c 2
 251 586 l 2
 213 586 194 566 194 527 c 2
 194 195 l 2
 194 156 213 136 252 136 c 2
 259 136 l 2
 298 136 317 156 317 195 c 2
72 795 m 2xec
 72 848 l 2
 72 871 84 882 108 882 c 2
 177 882 l 2
 201 882 213 871 213 848 c 2
 213 795 l 2
 213 771 201 759 177 759 c 2
 108 759 l 2
 84 759 72 771 72 795 c 2xec
297 795 m 2
 297 848 l 2
 297 871 309 882 333 882 c 2
 402 882 l 2
 426 882 438 871 438 848 c 2
 438 795 l 2
 438 771 426 759 402 759 c 2
 333 759 l 2
 309 759 297 771 297 795 c 2
EndSplineSet
Position2: "'cpsp' Capital Spacing in Latin lookup 0 subtable" dx=7 dy=0 dh=14 dv=0
EndChar

StartChar: Ocircumflex
Encoding: 212 212 164
Width: 511
Flags: MW
HStem: 0 136<147 259 252 259 259 278.5 252 317> 586 136<232 251 251 259> 872 20G<244 268 268 275.5>
VStem: 40 154<175.5 195 195 527> 317 154<0 153 195 527 527 546.5>
LayerCount: 2
Fore
SplineSet
471 569 m 2
 471 153 l 2
 471 63 409 0 317 0 c 2
 193 0 l 2
 101 0 40 62 40 154 c 2
 40 569 l 2
 40 660 103 722 194 722 c 2
 318 722 l 2
 409 722 471 660 471 569 c 2
317 195 m 2
 317 527 l 2
 317 566 298 586 259 586 c 2
 251 586 l 2
 213 586 194 566 194 527 c 2
 194 195 l 2
 194 156 213 136 252 136 c 2
 259 136 l 2
 298 136 317 156 317 195 c 2
244 892 m 2
 268 892 l 2
 283 892 290 886 298 881 c 2
 392 820 l 2
 400 815 398 804 393 797 c 2
 371 762 l 2
 364 751 355 755 344 760 c 2
 255 801 l 1
 166 760 l 2
 157 756 146 751 139 762 c 2
 116 798 l 2
 112 805 110 815 118 820 c 2
 212 881 l 2
 217 884 229 892 244 892 c 2
EndSplineSet
Position2: "'cpsp' Capital Spacing in Latin lookup 0 subtable" dx=7 dy=0 dh=14 dv=0
EndChar

StartChar: Obreve
Encoding: 334 334 165
Width: 511
Flags: MW
HStem: 0 136<147 259 252 259 259 278.5 252 317> 586 136<232 251 251 259> 750 77<240.5 269 240.5 297.5> 750 113<135 297.5>
VStem: 40 154<175.5 195 195 527> 317 154<0 153 195 527 527 546.5>
LayerCount: 2
Fore
SplineSet
471 569 m 2xdc
 471 153 l 2
 471 63 409 0 317 0 c 2
 193 0 l 2
 101 0 40 62 40 154 c 2
 40 569 l 2
 40 660 103 722 194 722 c 2
 318 722 l 2
 409 722 471 660 471 569 c 2xdc
317 195 m 2
 317 527 l 2
 317 566 298 586 259 586 c 2
 251 586 l 2
 213 586 194 566 194 527 c 2
 194 195 l 2
 194 156 213 136 252 136 c 2
 259 136 l 2
 298 136 317 156 317 195 c 2
135 863 m 2
 188 863 l 2xdc
 199 863 203 857 204 853 c 0
 209 836 226 827 255 827 c 0xec
 283 827 303 837 307 853 c 0
 308 857 313 863 322 863 c 2
 375 863 l 2
 385 863 390 858 390 847 c 0
 390 804 340 750 255 750 c 0
 174 750 120 803 120 846 c 0
 120 857 125 863 135 863 c 2
EndSplineSet
EndChar

StartChar: Oacute
Encoding: 211 211 166
Width: 511
Flags: MW
HStem: 0 136<147 259 252 259 259 278.5 252 317> 586 136<232 251 251 259>
VStem: 40 154<175.5 195 195 527> 317 154<0 153 195 527 527 546.5>
LayerCount: 2
Fore
SplineSet
471 569 m 2
 471 153 l 2
 471 63 409 0 317 0 c 2
 193 0 l 2
 101 0 40 62 40 154 c 2
 40 569 l 2
 40 660 103 722 194 722 c 2
 318 722 l 2
 409 722 471 660 471 569 c 2
317 195 m 2
 317 527 l 2
 317 566 298 586 259 586 c 2
 251 586 l 2
 213 586 194 566 194 527 c 2
 194 195 l 2
 194 156 213 136 252 136 c 2
 259 136 l 2
 298 136 317 156 317 195 c 2
182 815 m 2
 323 886 l 2
 337 893 346 890 351 877 c 2
 373 820 l 2
 378 807 373 798 358 793 c 2
 205 751 l 1
 192 746 183 750 179 763 c 1
 168 790 l 2
 164 799 170 808 182 815 c 2
EndSplineSet
Position2: "'cpsp' Capital Spacing in Latin lookup 0 subtable" dx=7 dy=0 dh=14 dv=0
EndChar

StartChar: otilde
Encoding: 245 245 167
Width: 485
Flags: MW
HStem: 0 21G<118 148 148 337> 485 20G<148 337 337 367>
VStem: 50 154<164.5 178 178 327 164.5 407> 281 154<178 327 327 340.5>
LayerCount: 2
Fore
SplineSet
337 0 m 2
 148 0 l 2
 88 0 50 38 50 98 c 2
 50 407 l 2
 50 467 88 505 148 505 c 2
 337 505 l 2
 397 505 435 467 435 407 c 2
 435 98 l 2
 435 38 397 0 337 0 c 2
74 602 m 2
 99 647 l 1
 123 687 199 709 264 660 c 1
 276 653 l 1
 291 642 301 642 306 653 c 1
 312 663 l 1
 321 676 326 679 338 679 c 2
 397 679 l 2
 412 679 418 667 410 652 c 2
 385 606 l 2
 361 563 284 544 220 592 c 1
 206 602 l 2
 193 611 183 611 178 600 c 1
 172 590 l 2
 164 577 158 574 146 574 c 2
 86 574 l 2
 73 574 66 587 74 602 c 2
281 178 m 2
 281 327 l 2
 281 354 264 369 244 369 c 2
 240 369 l 2
 220 369 204 354 204 327 c 2
 204 178 l 2
 204 151 220 136 240 136 c 2
 244 136 l 2
 264 136 281 151 281 178 c 2
EndSplineSet
EndChar

StartChar: omacron
Encoding: 333 333 168
Width: 485
Flags: MW
HStem: 0 21G<118 148 148 337> 485 20G<148 337 337 367> 574 101<132.5 338 146 338>
VStem: 50 154<164.5 178 178 327 164.5 407> 281 154<178 327 327 340.5>
LayerCount: 2
Fore
SplineSet
337 0 m 2
 148 0 l 2
 88 0 50 38 50 98 c 2
 50 407 l 2
 50 467 88 505 148 505 c 2
 337 505 l 2
 397 505 435 467 435 407 c 2
 435 98 l 2
 435 38 397 0 337 0 c 2
106 614 m 2
 106 635 l 2
 106 662 119 675 146 675 c 2
 338 675 l 2
 365 675 378 662 378 635 c 2
 378 614 l 2
 378 587 365 574 338 574 c 2
 146 574 l 2
 119 574 106 587 106 614 c 2
281 178 m 2
 281 327 l 2
 281 354 264 369 244 369 c 2
 240 369 l 2
 220 369 204 354 204 327 c 2
 204 178 l 2
 204 151 220 136 240 136 c 2
 244 136 l 2
 264 136 281 151 281 178 c 2
EndSplineSet
EndChar

StartChar: ohungarumlaut
Encoding: 337 337 169
Width: 485
Flags: MW
HStem: 0 21G<118 148 148 337> 485 20G<148 337 337 367>
VStem: 50 154<164.5 178 178 327 164.5 407> 281 154<178 327 327 340.5>
LayerCount: 2
Fore
SplineSet
337 0 m 2
 148 0 l 2
 88 0 50 38 50 98 c 2
 50 407 l 2
 50 467 88 505 148 505 c 2
 337 505 l 2
 397 505 435 467 435 407 c 2
 435 98 l 2
 435 38 397 0 337 0 c 2
305 532 m 2
 271 554 l 2
 263 559 262 572 269 583 c 2
 354 720 l 2
 361 733 371 735 383 726 c 2
 440 682 l 2
 451 674 451 663 442 652 c 2
 333 535 l 2
 324 526 315 525 305 532 c 2
120 532 m 2
 86 554 l 2
 78 559 77 572 84 583 c 2
 169 720 l 2
 176 733 186 735 198 726 c 2
 255 682 l 2
 266 674 266 663 257 652 c 2
 148 535 l 2
 139 526 130 525 120 532 c 2
281 178 m 2
 281 327 l 2
 281 354 264 369 244 369 c 2
 240 369 l 2
 220 369 204 354 204 327 c 2
 204 178 l 2
 204 151 220 136 240 136 c 2
 244 136 l 2
 264 136 281 151 281 178 c 2
EndSplineSet
EndChar

StartChar: ograve
Encoding: 242 242 170
Width: 485
Flags: MW
HStem: 0 21G<118 148 148 337> 485 20G<148 337 337 367>
VStem: 50 154<164.5 178 178 327 164.5 407> 281 154<178 327 327 340.5>
LayerCount: 2
Fore
SplineSet
337 0 m 2
 148 0 l 2
 88 0 50 38 50 98 c 2
 50 407 l 2
 50 467 88 505 148 505 c 2
 337 505 l 2
 397 505 435 467 435 407 c 2
 435 98 l 2
 435 38 397 0 337 0 c 2
157 682 m 2
 214 726 l 2
 226 735 236 733 243 720 c 2
 328 583 l 2
 335 572 334 561 326 554 c 1
 292 532 l 2
 281 525 272 526 264 535 c 2
 155 652 l 2
 145 663 146 673 157 682 c 2
281 178 m 2
 281 327 l 2
 281 354 264 369 244 369 c 2
 240 369 l 2
 220 369 204 354 204 327 c 2
 204 178 l 2
 204 151 220 136 240 136 c 2
 244 136 l 2
 264 136 281 151 281 178 c 2
EndSplineSet
EndChar

StartChar: odieresis
Encoding: 246 246 171
Width: 485
Flags: MW
HStem: 0 21G<118 148 148 337> 485 20G<148 337 337 367> 574 123<82 163 94 163 319 388>
VStem: 50 154<164.5 178 178 327 164.5 407> 281 154<178 327 327 340.5>
LayerCount: 2
Fore
SplineSet
337 0 m 2
 148 0 l 2
 88 0 50 38 50 98 c 2
 50 407 l 2
 50 467 88 505 148 505 c 2
 337 505 l 2
 397 505 435 467 435 407 c 2
 435 98 l 2
 435 38 397 0 337 0 c 2
281 178 m 2
 281 327 l 2
 281 354 264 369 244 369 c 2
 240 369 l 2
 220 369 204 354 204 327 c 2
 204 178 l 2
 204 151 220 136 240 136 c 2
 244 136 l 2
 264 136 281 151 281 178 c 2
58 610 m 2
 58 663 l 2
 58 686 70 697 94 697 c 2
 163 697 l 2
 187 697 199 686 199 663 c 2
 199 610 l 2
 199 586 187 574 163 574 c 2
 94 574 l 2
 70 574 58 586 58 610 c 2
283 610 m 2
 283 663 l 2
 283 686 295 697 319 697 c 2
 388 697 l 2
 412 697 424 686 424 663 c 2
 424 610 l 2
 424 586 412 574 388 574 c 2
 319 574 l 2
 295 574 283 586 283 610 c 2
EndSplineSet
EndChar

StartChar: ocircumflex
Encoding: 244 244 172
Width: 485
Flags: MW
HStem: 0 21G<118 148 148 337> 485 20G<148 337 337 367> 704 20G<205 279 279 286.5>
VStem: 50 154<164.5 178 178 327 164.5 407> 281 154<178 327 327 340.5>
LayerCount: 2
Fore
SplineSet
337 0 m 2
 148 0 l 2
 88 0 50 38 50 98 c 2
 50 407 l 2
 50 467 88 505 148 505 c 2
 337 505 l 2
 397 505 435 467 435 407 c 2
 435 98 l 2
 435 38 397 0 337 0 c 2
205 724 m 2
 279 724 l 2
 294 724 298 718 302 710 c 2
 361 592 l 2
 365 584 363 571 355 567 c 2
 321 549 l 1
 310 542 301 547 294 556 c 2
 242 630 l 1
 190 556 l 1
 183 548 174 544 163 549 c 2
 129 567 l 2
 122 571 119 584 123 592 c 2
 182 710 l 2
 185 717 190 724 205 724 c 2
281 178 m 2
 281 327 l 2
 281 354 264 369 244 369 c 2
 240 369 l 2
 220 369 204 354 204 327 c 2
 204 178 l 2
 204 151 220 136 240 136 c 2
 244 136 l 2
 264 136 281 151 281 178 c 2
EndSplineSet
EndChar

StartChar: obreve
Encoding: 335 335 173
Width: 485
Flags: MW
HStem: 0 21G<118 148 148 337> 485 20G<148 337 337 367> 568 77<227.5 256 227.5 284.5> 568 113<122 284.5>
VStem: 50 154<164.5 178 178 327 164.5 407> 281 154<178 327 327 340.5>
LayerCount: 2
Fore
SplineSet
337 0 m 2xdc
 148 0 l 2
 88 0 50 38 50 98 c 2
 50 407 l 2
 50 467 88 505 148 505 c 2
 337 505 l 2
 397 505 435 467 435 407 c 2
 435 98 l 2
 435 38 397 0 337 0 c 2xdc
122 681 m 2
 175 681 l 2xdc
 186 681 190 675 191 671 c 0
 196 654 213 645 242 645 c 0xec
 270 645 290 655 294 671 c 0
 295 675 300 681 309 681 c 2
 362 681 l 2
 372 681 377 676 377 665 c 0
 377 622 327 568 242 568 c 0
 161 568 107 621 107 664 c 0
 107 675 112 681 122 681 c 2
281 178 m 2
 281 327 l 2
 281 354 264 369 244 369 c 2
 240 369 l 2
 220 369 204 354 204 327 c 2
 204 178 l 2
 204 151 220 136 240 136 c 2
 244 136 l 2
 264 136 281 151 281 178 c 2
EndSplineSet
EndChar

StartChar: oacute
Encoding: 243 243 174
Width: 485
Flags: MW
HStem: 0 21G<118 148 148 337> 485 20G<148 337 337 367>
VStem: 50 154<164.5 178 178 327 164.5 407> 281 154<178 327 327 340.5>
LayerCount: 2
Fore
SplineSet
337 0 m 2
 148 0 l 2
 88 0 50 38 50 98 c 2
 50 407 l 2
 50 467 88 505 148 505 c 2
 337 505 l 2
 397 505 435 467 435 407 c 2
 435 98 l 2
 435 38 397 0 337 0 c 2
215 532 m 2
 181 554 l 2
 173 559 172 572 179 583 c 2
 264 720 l 2
 271 733 281 735 293 726 c 2
 350 682 l 2
 361 674 361 663 352 652 c 2
 243 535 l 2
 234 526 225 525 215 532 c 2
281 178 m 2
 281 327 l 2
 281 354 264 369 244 369 c 2
 240 369 l 2
 220 369 204 354 204 327 c 2
 204 178 l 2
 204 151 220 136 240 136 c 2
 244 136 l 2
 264 136 281 151 281 178 c 2
EndSplineSet
EndChar

StartChar: Ntilde
Encoding: 209 209 175
Width: 548
Flags: MW
HStem: 0 21G<76.5 90 90 148 322.5 336 336 458> 702 20G<90 213 213 225.5 400 458 458 471.5>
VStem: 50 138<40 505> 360 138<217 682>
LayerCount: 2
Fore
SplineSet
254 692 m 2
 360 217 l 1
 360 682 l 2
 360 709 373 722 400 722 c 2
 458 722 l 2
 485 722 498 709 498 682 c 2
 498 40 l 2
 498 13 485 0 458 0 c 2
 336 0 l 2
 309 0 298 14 294 30 c 2
 188 505 l 1
 188 40 l 2
 188 13 175 0 148 0 c 2
 90 0 l 2
 63 0 50 13 50 40 c 2
 50 682 l 2
 50 709 63 722 90 722 c 2
 213 722 l 2
 238 722 250 708 254 692 c 2
121 797 m 2
 146 838 l 2
 171 879 239 888 311 852 c 2
 323 846 l 2
 339 838 345 835 353 846 c 2
 359 854 l 2
 368 867 373 870 385 870 c 2
 444 870 l 2
 459 870 466 858 457 843 c 2
 432 801 l 2
 407 758 339 753 267 788 c 2
 253 795 l 2
 238 802 232 804 225 793 c 1
 219 785 l 2
 210 773 205 769 193 769 c 2
 133 769 l 2
 120 769 113 782 121 797 c 2
EndSplineSet
Position2: "'cpsp' Capital Spacing in Latin lookup 0 subtable" dx=7 dy=0 dh=14 dv=0
EndChar

StartChar: Eng
Encoding: 330 330 176
Width: 548
Flags: MW
HStem: -182 21G<355 397 355 355> -20 20G<76.5 90 90 148 322.5 336 336 410 498 498> 702 20G<90 213 213 225.5 400 458 458 471.5>
VStem: 50 138<40 505> 360 138<217 682 0 695.5>
LayerCount: 2
Fore
SplineSet
254 692 m 2
 360 217 l 1
 360 682 l 2
 360 709 373 722 400 722 c 2
 458 722 l 2
 485 722 498 709 498 682 c 2
 498 0 l 1
 433 -145 l 2
 424 -164 416 -182 397 -182 c 2
 355 -182 l 1
 410 0 l 1
 336 0 l 2
 309 0 298 14 294 30 c 2
 188 505 l 1
 188 40 l 2
 188 13 175 0 148 0 c 2
 90 0 l 2
 63 0 50 13 50 40 c 2
 50 682 l 2
 50 709 63 722 90 722 c 2
 213 722 l 2
 238 722 250 708 254 692 c 2
EndSplineSet
EndChar

StartChar: Ncaron
Encoding: 327 327 177
Width: 548
Flags: MW
HStem: 0 21G<76.5 90 90 148 322.5 336 336 458> 702 20G<90 213 213 225.5 400 458 458 471.5>
VStem: 50 138<40 505> 360 138<217 682>
LayerCount: 2
Fore
SplineSet
254 692 m 2
 360 217 l 1
 360 682 l 2
 360 709 373 722 400 722 c 2
 458 722 l 2
 485 722 498 709 498 682 c 2
 498 40 l 2
 498 13 485 0 458 0 c 2
 336 0 l 2
 309 0 298 14 294 30 c 2
 188 505 l 1
 188 40 l 2
 188 13 175 0 148 0 c 2
 90 0 l 2
 63 0 50 13 50 40 c 2
 50 682 l 2
 50 709 63 722 90 722 c 2
 213 722 l 2
 238 722 250 708 254 692 c 2
154 845 m 2
 176 880 l 2
 183 891 194 886 203 882 c 2
 292 841 l 1
 381 882 l 2
 392 887 401 891 408 880 c 2
 430 845 l 2
 434 838 436 827 429 822 c 2
 335 761 l 2
 328 756 320 750 305 750 c 2
 281 750 l 2
 266 750 254 758 249 761 c 2
 155 822 l 2
 152 825 150 828 150 832 c 0
 150 837 151 841 154 845 c 2
EndSplineSet
Position2: "'cpsp' Capital Spacing in Latin lookup 0 subtable" dx=7 dy=0 dh=14 dv=0
EndChar

StartChar: Nacute
Encoding: 323 323 178
Width: 548
Flags: MW
HStem: 0 21G<76.5 90 90 148 322.5 336 336 458> 702 20G<90 213 213 225.5 400 458 458 471.5>
VStem: 50 138<40 505> 360 138<217 682>
LayerCount: 2
Fore
SplineSet
254 692 m 2
 360 217 l 1
 360 682 l 2
 360 709 373 722 400 722 c 2
 458 722 l 2
 485 722 498 709 498 682 c 2
 498 40 l 2
 498 13 485 0 458 0 c 2
 336 0 l 2
 309 0 298 14 294 30 c 2
 188 505 l 1
 188 40 l 2
 188 13 175 0 148 0 c 2
 90 0 l 2
 63 0 50 13 50 40 c 2
 50 682 l 2
 50 709 63 722 90 722 c 2
 213 722 l 2
 238 722 250 708 254 692 c 2
210 815 m 2
 351 886 l 2
 365 893 374 890 379 877 c 2
 401 820 l 2
 406 807 401 798 386 793 c 2
 233 751 l 1
 220 746 211 750 207 763 c 1
 196 790 l 2
 192 799 198 808 210 815 c 2
EndSplineSet
Position2: "'cpsp' Capital Spacing in Latin lookup 0 subtable" dx=7 dy=0 dh=14 dv=0
EndChar

StartChar: ntilde
Encoding: 241 241 179
Width: 468
Flags: MW
HStem: 0 21G<76.5 90 90 164 290.5 304 304 378> 485 20G<86 186 186 186>
VStem: 50 154<40 372> 264 154<40 345 345 353.5>
LayerCount: 2
Fore
SplineSet
50 40 m 2
 50 469 l 2
 50 489 66 505 86 505 c 2
 186 505 l 1
 204 481 l 1
 301 504 l 2
 310 507 319 508 328 508 c 0
 379 508 418 470 418 410 c 2
 418 40 l 2
 418 13 405 0 378 0 c 2
 304 0 l 2
 277 0 264 13 264 40 c 2
 264 345 l 2
 264 362 252 372 236 372 c 2
 204 372 l 1
 204 40 l 2
 204 13 191 0 164 0 c 2
 90 0 l 2
 63 0 50 13 50 40 c 2
70 602 m 2
 95 647 l 1
 119 687 195 709 260 660 c 1
 272 653 l 1
 287 642 297 642 302 653 c 1
 308 663 l 1
 317 676 322 679 334 679 c 2
 393 679 l 2
 408 679 414 667 406 652 c 2
 381 606 l 2
 357 563 280 544 216 592 c 1
 202 602 l 2
 189 611 179 611 174 600 c 1
 168 590 l 2
 160 577 154 574 142 574 c 2
 82 574 l 2
 69 574 62 587 70 602 c 2
EndSplineSet
EndChar

StartChar: eng
Encoding: 331 331 180
Width: 468
Flags: MW
HStem: -182 21G<275 317 275 275> -20 20G<76.5 90 90 164 290.5 304 304 330 418 418> 485 20G<86 186 186 186> 488 20G<323.5 353.5>
VStem: 50 154<40 372> 264 154<40 345 345 353.5>
LayerCount: 2
Fore
SplineSet
50 40 m 2xdc
 50 469 l 2
 50 489 66 505 86 505 c 2
 186 505 l 1xec
 204 481 l 1
 301 504 l 2
 310 507 319 508 328 508 c 0
 379 508 418 470 418 410 c 2
 418 0 l 1
 353 -145 l 2
 344 -164 336 -182 317 -182 c 2
 275 -182 l 1
 330 0 l 1
 304 0 l 2
 277 0 264 13 264 40 c 2
 264 345 l 2
 264 362 252 372 236 372 c 2
 204 372 l 1
 204 40 l 2
 204 13 191 0 164 0 c 2
 90 0 l 2
 63 0 50 13 50 40 c 2xdc
EndSplineSet
EndChar

StartChar: napostrophe
Encoding: 329 329 181
Width: 468
Flags: MW
HStem: 0 21G<76.5 90 90 164 290.5 304 304 378> 485 20G<86 186 186 186> 774 20G<86 151 151 160.5>
VStem: 50 137<690 758 653 768> 50 154<40 372> 264 154<40 345 345 353.5>
LayerCount: 2
Fore
SplineSet
50 40 m 2xec
 50 469 l 2
 50 489 66 505 86 505 c 2
 186 505 l 1
 204 481 l 1
 301 504 l 2
 310 507 319 508 328 508 c 0
 379 508 418 470 418 410 c 2
 418 40 l 2
 418 13 405 0 378 0 c 2
 304 0 l 2
 277 0 264 13 264 40 c 2
 264 345 l 2
 264 362 252 372 236 372 c 2
 204 372 l 1
 204 40 l 2
 204 13 191 0 164 0 c 2
 90 0 l 2
 63 0 50 13 50 40 c 2xec
50 690 m 2
 50 758 l 2
 50 778 67 794 86 794 c 2
 151 794 l 2
 170 794 187 778 187 758 c 2
 187 653 l 1xf4
 161 578 l 2
 154 558 144 541 125 541 c 2
 83 541 l 1
 99 653 l 1
 86 653 l 2
 67 653 50 670 50 690 c 2
EndSplineSet
EndChar

StartChar: ncaron
Encoding: 328 328 182
Width: 468
Flags: MW
HStem: 0 21G<76.5 90 90 164 290.5 304 304 378> 485 20G<86 186 186 186> 508 36
VStem: 50 154<40 372> 264 154<40 345 345 353.5>
LayerCount: 2
Fore
SplineSet
50 40 m 2
 50 469 l 2
 50 489 66 505 86 505 c 2
 186 505 l 1
 204 481 l 1
 301 504 l 2
 310 507 319 508 328 508 c 0
 379 508 418 470 418 410 c 2
 418 40 l 2
 418 13 405 0 378 0 c 2
 304 0 l 2
 277 0 264 13 264 40 c 2
 264 345 l 2
 264 362 252 372 236 372 c 2
 204 372 l 1
 204 40 l 2
 204 13 191 0 164 0 c 2
 90 0 l 2
 63 0 50 13 50 40 c 2
117 701 m 2
 151 719 l 2
 162 724 173 720 178 712 c 2
 230 638 l 1
 282 712 l 2
 289 722 298 724 309 719 c 2
 343 701 l 2
 351 697 353 684 349 676 c 2
 290 558 l 2
 286 550 282 544 267 544 c 2
 193 544 l 2
 178 544 173 551 170 558 c 2
 111 676 l 2
 107 684 109 697 117 701 c 2
EndSplineSet
EndChar

StartChar: nacute
Encoding: 324 324 183
Width: 468
Flags: MW
HStem: 0 21G<76.5 90 90 164 290.5 304 304 378> 485 20G<86 186 186 186>
VStem: 50 154<40 372> 264 154<40 345 345 353.5>
LayerCount: 2
Fore
SplineSet
50 40 m 2
 50 469 l 2
 50 489 66 505 86 505 c 2
 186 505 l 1
 204 481 l 1
 301 504 l 2
 310 507 319 508 328 508 c 0
 379 508 418 470 418 410 c 2
 418 40 l 2
 418 13 405 0 378 0 c 2
 304 0 l 2
 277 0 264 13 264 40 c 2
 264 345 l 2
 264 362 252 372 236 372 c 2
 204 372 l 1
 204 40 l 2
 204 13 191 0 164 0 c 2
 90 0 l 2
 63 0 50 13 50 40 c 2
215 532 m 2
 181 554 l 2
 173 559 172 572 179 583 c 2
 264 720 l 2
 271 733 281 735 293 726 c 2
 350 682 l 2
 361 674 361 663 352 652 c 2
 243 535 l 2
 234 526 225 525 215 532 c 2
EndSplineSet
EndChar

StartChar: Ldot
Encoding: 319 319 184
Width: 570
Flags: MW
HStem: 0 136<76.5 358 223 358 223 358> 324 141<425.5 524 435 524> 702 20G<90 164 164 177.5>
VStem: 50 154<149.5 155 155 682> 399 161<361 429 351 439>
LayerCount: 2
Fore
SplineSet
204 682 m 2
 204 155 l 2
 204 144 212 136 223 136 c 2
 358 136 l 2
 385 136 398 123 398 96 c 2
 398 40 l 2
 398 13 385 0 358 0 c 2
 90 0 l 2
 63 0 50 13 50 40 c 2
 50 682 l 2
 50 709 63 722 90 722 c 2
 164 722 l 2
 191 722 204 709 204 682 c 2
399 361 m 2
 399 429 l 2
 399 449 416 465 435 465 c 2
 524 465 l 2
 543 465 560 449 560 429 c 2
 560 361 l 2
 560 341 543 324 524 324 c 2
 435 324 l 2
 416 324 399 341 399 361 c 2
EndSplineSet
EndChar

StartChar: Lcaron
Encoding: 317 317 185
Width: 409
Flags: MW
HStem: 0 136<76.5 358 223 358 223 358> 702 20G<90 164 164 177.5> 774 20G<276 341 341 350.5>
VStem: 50 154<149.5 155 155 682> 240 137<690 758 653 768>
LayerCount: 2
Fore
SplineSet
204 682 m 2
 204 155 l 2
 204 144 212 136 223 136 c 2
 358 136 l 2
 385 136 398 123 398 96 c 2
 398 40 l 2
 398 13 385 0 358 0 c 2
 90 0 l 2
 63 0 50 13 50 40 c 2
 50 682 l 2
 50 709 63 722 90 722 c 2
 164 722 l 2
 191 722 204 709 204 682 c 2
240 690 m 2
 240 758 l 2
 240 778 257 794 276 794 c 2
 341 794 l 2
 360 794 377 778 377 758 c 2
 377 653 l 1
 351 578 l 2
 344 558 334 541 315 541 c 2
 273 541 l 1
 289 653 l 1
 276 653 l 2
 257 653 240 670 240 690 c 2
EndSplineSet
Position2: "'cpsp' Capital Spacing in Latin lookup 0 subtable" dx=7 dy=0 dh=14 dv=0
EndChar

StartChar: Lacute
Encoding: 313 313 186
Width: 409
Flags: MW
HStem: 0 136<76.5 358 223 358 223 358> 702 20G<90 164 164 177.5>
VStem: 50 154<149.5 155 155 682>
LayerCount: 2
Fore
SplineSet
204 682 m 2
 204 155 l 2
 204 144 212 136 223 136 c 2
 358 136 l 2
 385 136 398 123 398 96 c 2
 398 40 l 2
 398 13 385 0 358 0 c 2
 90 0 l 2
 63 0 50 13 50 40 c 2
 50 682 l 2
 50 709 63 722 90 722 c 2
 164 722 l 2
 191 722 204 709 204 682 c 2
121 815 m 2
 262 886 l 2
 276 893 285 890 290 877 c 2
 312 820 l 2
 317 807 312 798 297 793 c 2
 144 751 l 1
 131 746 122 750 118 763 c 1
 107 790 l 2
 103 799 109 808 121 815 c 2
EndSplineSet
Position2: "'cpsp' Capital Spacing in Latin lookup 0 subtable" dx=7 dy=0 dh=14 dv=0
EndChar

StartChar: ldot
Encoding: 320 320 187
Width: 428
Flags: MW
HStem: 0 21G<76.5 90 90 164> 325 141<284.5 383 294 383> 774 20G<90 164 164 177.5>
VStem: 50 154<40 754> 258 161<362 430 352 440>
LayerCount: 2
Fore
SplineSet
90 794 m 2
 164 794 l 2
 191 794 204 781 204 754 c 2
 204 40 l 2
 204 13 191 0 164 0 c 2
 90 0 l 2
 63 0 50 13 50 40 c 2
 50 754 l 2
 50 781 63 794 90 794 c 2
258 362 m 2
 258 430 l 2
 258 450 275 466 294 466 c 2
 383 466 l 2
 402 466 419 450 419 430 c 2
 419 362 l 2
 419 342 402 325 383 325 c 2
 294 325 l 2
 275 325 258 342 258 362 c 2
EndSplineSet
EndChar

StartChar: lcaron
Encoding: 318 318 188
Width: 376
Flags: MW
HStem: 0 21G<76.5 90 90 164> 774 20G<90 164 164 177.5 265 330 330 339.5>
VStem: 50 154<40 754> 229 137<690 758 653 768>
LayerCount: 2
Fore
SplineSet
90 794 m 2
 164 794 l 2
 191 794 204 781 204 754 c 2
 204 40 l 2
 204 13 191 0 164 0 c 2
 90 0 l 2
 63 0 50 13 50 40 c 2
 50 754 l 2
 50 781 63 794 90 794 c 2
229 690 m 2
 229 758 l 2
 229 778 246 794 265 794 c 2
 330 794 l 2
 349 794 366 778 366 758 c 2
 366 653 l 1
 340 578 l 2
 333 558 323 541 304 541 c 2
 262 541 l 1
 278 653 l 1
 265 653 l 2
 246 653 229 670 229 690 c 2
EndSplineSet
EndChar

StartChar: lacute
Encoding: 314 314 189
Width: 254
Flags: MW
HStem: 0 21G<76.5 90 90 164>
VStem: 50 154<40 754>
LayerCount: 2
Fore
SplineSet
90 794 m 2
 164 794 l 2
 191 794 204 781 204 754 c 2
 204 40 l 2
 204 13 191 0 164 0 c 2
 90 0 l 2
 63 0 50 13 50 40 c 2
 50 754 l 2
 50 781 63 794 90 794 c 2
71 889 m 2
 212 960 l 2
 226 967 235 964 240 951 c 2
 262 894 l 2
 267 881 262 872 247 867 c 2
 94 825 l 1
 81 820 72 824 68 837 c 1
 57 864 l 2
 53 873 59 882 71 889 c 2
EndSplineSet
EndChar

StartChar: Jcircumflex
Encoding: 308 308 190
Width: 355
Flags: MW
HStem: 0 136<37.5 99 51 99 99 116.5 51 189> 702 20G<191 265 265 278.5> 872 20G<214 238 238 245.5>
VStem: 151 154<188 682>
LayerCount: 2
Fore
SplineSet
151 188 m 2
 151 682 l 2
 151 709 164 722 191 722 c 2
 265 722 l 2
 292 722 305 709 305 682 c 2
 305 116 l 2
 305 47 258 0 189 0 c 2
 51 0 l 2
 24 0 11 13 11 40 c 2
 11 96 l 2
 11 123 24 136 51 136 c 2
 99 136 l 2
 134 136 151 153 151 188 c 2
214 892 m 2
 238 892 l 2
 253 892 260 886 268 881 c 2
 362 820 l 2
 370 815 368 804 363 797 c 2
 341 762 l 2
 334 751 325 755 314 760 c 2
 225 801 l 1
 136 760 l 2
 127 756 116 751 109 762 c 2
 86 798 l 2
 82 805 80 815 88 820 c 2
 182 881 l 2
 187 884 199 892 214 892 c 2
EndSplineSet
EndChar

StartChar: jcircumflex
Encoding: 309 309 191
Width: 254
Flags: MW
HStem: -217 21G<6.5 20 20 80> 485 20G<93 167 167 180.5> 704 20G<90 164 164 171.5>
VStem: -20 227<-134.5 -121 -121 -107.5> 53 154<-45 465>
LayerCount: 2
Fore
SplineSet
53 -45 m 2xe8
 53 465 l 2xe8
 53 492 66 505 93 505 c 2
 167 505 l 2
 194 505 207 492 207 465 c 2
 207 -100 l 2
 207 -169 150 -217 80 -217 c 2
 20 -217 l 2
 -7 -217 -20 -204 -20 -177 c 2
 -20 -121 l 2xf0
 -20 -94 -7 -81 16 -81 c 2
 18 -81 l 2
 37 -81 53 -65 53 -45 c 2xe8
90 724 m 2
 164 724 l 2
 179 724 183 718 187 710 c 2
 246 592 l 2
 250 584 248 571 240 567 c 2
 206 549 l 1
 195 542 186 547 179 556 c 2
 127 630 l 1
 75 556 l 1
 68 548 59 544 48 549 c 2
 14 567 l 2
 7 571 4 584 8 592 c 2
 67 710 l 2
 70 717 75 724 90 724 c 2
EndSplineSet
EndChar

StartChar: dollar
Encoding: 36 36 192
Width: 459
Flags: MW
HStem: -108 244<183.5 197 197 202.5 108 259> 0 136<94.5 181 108 157> 586 136<256.5 333 299 333 299 333> 586 244<256.5 259 259 272.5 197 278 197 333>
VStem: 50 159<489.5 503 503 527 489.5 589 489.5 628.5> 157 142<-68 0 0 0 722 790> 250 159<196 220 220 233.5>
LayerCount: 2
Fore
SplineSet
197 830 m 2x94
 259 830 l 2x9a
 286 830 299 817 299 790 c 2
 299 722 l 1xa4
 333 722 l 2
 360 722 373 709 373 682 c 2
 373 626 l 2
 373 599 360 586 333 586 c 2
 278 586 l 2
 235 586 209 570 209 527 c 2
 209 503 l 2
 209 476 220 456 236 447 c 2
 355 379 l 2
 390 360 409 321 409 270 c 2
 409 134 l 2xaa
 409 56 356 11 307 3 c 0
 304 3 300 2 299 2 c 1
 299 -68 l 2
 299 -95 286 -108 259 -108 c 2
 197 -108 l 2xa4
 170 -108 157 -95 157 -68 c 2
 157 0 l 1
 108 0 l 2x64
 81 0 68 13 68 40 c 2
 68 96 l 2
 68 123 81 136 108 136 c 2
 181 136 l 2
 224 136 250 153 250 196 c 2
 250 220 l 2
 250 247 238 267 223 276 c 2
 104 344 l 2
 71 363 50 402 50 453 c 2
 50 589 l 2xaa
 50 668 103 706 144 717 c 0
 148 718 152 720 157 720 c 1
 157 790 l 2
 157 817 170 830 197 830 c 2x94
EndSplineSet
EndChar

StartChar: percent
Encoding: 37 37 193
Width: 598
Flags: MW
HStem: 0 21G<60.5 74 74 148 369.5 388 388 501> 702 20G<97 210 210 228 450 523 523 536.5>
VStem: 39 94<511.5 521 521 611 511.5 663> 175 94<521 611 611 619.5> 328 94<100.5 109 109 203> 464 94<109 203 203 211>
LayerCount: 2
Fore
SplineSet
46 40 m 2
 399 682 l 2
 412 706 423 722 450 722 c 2
 523 722 l 2
 550 722 565 706 552 682 c 2
 200 40 l 2
 187 16 175 0 148 0 c 2
 74 0 l 2
 47 0 33 16 46 40 c 2
97 722 m 2
 210 722 l 2
 246 722 269 698 269 663 c 2
 269 510 l 2
 269 455 217 409 164 409 c 2
 97 409 l 2
 62 409 39 432 39 467 c 2
 39 663 l 2
 39 698 62 722 97 722 c 2
433 313 m 2
 500 313 l 2
 535 313 558 290 558 255 c 2
 558 59 l 2
 558 24 536 0 501 0 c 2
 388 0 l 2
 351 0 328 23 328 59 c 2
 328 212 l 2
 328 267 380 313 433 313 c 2
446 225 m 2
 441 225 l 2
 424 225 422 219 422 203 c 2
 422 109 l 2
 422 92 424 87 441 87 c 2
 446 87 l 2
 461 87 464 92 464 109 c 2
 464 203 l 2
 464 219 461 225 446 225 c 2
155 635 m 2
 154 635 l 2
 135 635 133 628 133 611 c 2
 133 521 l 2
 133 502 135 497 154 497 c 2
 155 497 l 2
 171 497 175 502 175 521 c 2
 175 611 l 2
 175 628 171 635 155 635 c 2
EndSplineSet
Ligature2: "Ligature Substitution lookup 5 subtable" zero fraction zero
Ligature2: "Ligature Substitution lookup 5 subtable" zero slash zero
EndChar

StartChar: ampersand
Encoding: 38 38 194
Width: 546
Flags: MW
HStem: 0 136<146 284 241 284 241 398> 297 136<239.5 284 261 284 438 466> 587 135<226.5 243 243 340>
VStem: 40 154<168 182 182 195 195 232 168 235.5 537 538> 284 154<136 297 433 482>
LayerCount: 2
Fore
SplineSet
438 297 m 1
 438 40 l 2
 438 13 425 0 398 0 c 2
 190 0 l 2
 102 0 40 63 40 151 c 2
 40 195 l 2
 40 276 83 337 147 366 c 1
 83 394 40 454 40 537 c 2
 40 570 l 2
 40 659 103 722 193 722 c 2
 340 722 l 2
 367 722 380 709 380 682 c 2
 380 627 l 2
 380 600 367 587 340 587 c 2
 243 587 l 2
 210 587 194 571 194 538 c 2
 194 500 l 2
 194 459 218 433 261 433 c 2
 284 433 l 1
 284 482 l 2
 284 509 297 522 324 522 c 2
 398 522 l 2
 425 522 438 509 438 482 c 2
 438 433 l 1
 466 433 l 2
 493 433 506 420 506 393 c 2
 506 337 l 2
 506 310 493 297 466 297 c 2
 438 297 l 1
284 297 m 1
 261 297 l 2
 218 297 194 272 194 232 c 2
 194 182 l 2
 194 154 212 136 241 136 c 2
 284 136 l 1
 284 297 l 1
EndSplineSet
EndChar

StartChar: quotesingle
Encoding: 39 39 195
Width: 256
Flags: MW
HStem: 490 232<91.5 105 105 151>
LayerCount: 2
Fore
SplineSet
151 490 m 2
 105 490 l 2
 78 490 68 503 65 530 c 2
 50 682 l 2
 47 709 63 722 90 722 c 2
 166 722 l 2
 193 722 209 709 206 682 c 2
 191 530 l 2
 188 503 178 490 151 490 c 2
EndSplineSet
EndChar

StartChar: parenleft
Encoding: 40 40 196
Width: 321
Flags: MW
HStem: -145 136<154.5 262 246 261> 689 136<232 246 246 261>
VStem: 50 154<19 33 33 647>
LayerCount: 2
Fore
SplineSet
193 825 m 2
 261 825 l 2
 288 825 301 812 301 785 c 2
 301 729 l 2
 301 702 288 689 261 689 c 2
 246 689 l 2
 218 689 204 675 204 647 c 2
 204 33 l 2
 204 5 218 -9 246 -9 c 2
 262 -9 l 2
 288 -9 301 -22 301 -49 c 2
 301 -105 l 2
 301 -132 288 -145 261 -145 c 2
 194 -145 l 2
 115 -145 50 -82 50 -1 c 2
 50 681 l 2
 50 762 113 825 193 825 c 2
EndSplineSet
EndChar

StartChar: parenright
Encoding: 41 41 197
Width: 311
Flags: MW
HStem: -145 136<59 60 60 75 75 89 59 127> 689 136<46.5 128 60 75>
VStem: 117 154<33 647 647 661>
LayerCount: 2
Fore
SplineSet
60 825 m 2
 128 825 l 2
 208 825 271 762 271 681 c 2
 271 -1 l 2
 271 -82 208 -145 127 -145 c 2
 60 -145 l 2
 33 -145 20 -132 20 -105 c 2
 20 -49 l 2
 20 -22 33 -9 59 -9 c 2
 75 -9 l 2
 103 -9 117 5 117 33 c 2
 117 647 l 2
 117 675 103 689 75 689 c 2
 60 689 l 2
 33 689 20 702 20 729 c 2
 20 785 l 2
 20 812 33 825 60 825 c 2
EndSplineSet
EndChar

StartChar: asterisk
Encoding: 42 42 198
Width: 474
Flags: MW
HStem: 702 20G<196 279 279 288.5>
LayerCount: 2
Fore
SplineSet
196 722 m 2
 279 722 l 2
 298 722 307 708 303 689 c 2
 279 588 l 1
 370 642 l 2
 382 650 401 645 406 630 c 2
 433 552 l 2
 438 537 429 519 412 516 c 1
 303 508 l 1
 386 440 l 2
 401 428 399 411 383 399 c 2
 323 353 l 2
 310 342 286 345 279 364 c 1
 237 462 l 1
 195 364 l 1
 187 348 166 340 151 352 c 2
 92 400 l 2
 77 412 76 429 89 440 c 2
 168 509 l 1
 64 519 l 1
 45 522 35 535 42 552 c 2
 69 629 l 2
 76 649 93 648 108 640 c 2
 195 587 l 1
 172 691 l 2
 168 710 180 722 196 722 c 2
EndSplineSet
EndChar

StartChar: plus
Encoding: 43 43 199
Width: 457
Flags: MW
HStem: 54 21G<187.5 201 201 257> 185 136<56.5 161 70 161 297 387> 426 20G<201 257 257 270.5>
VStem: 161 136<94 185 80.5 185 321 406>
LayerCount: 2
Fore
SplineSet
201 446 m 2
 257 446 l 2
 284 446 297 433 297 406 c 2
 297 321 l 1
 387 321 l 2
 414 321 427 307 427 280 c 2
 427 225 l 2
 427 198 414 185 387 185 c 2
 297 185 l 1
 297 94 l 2
 297 67 284 54 257 54 c 2
 201 54 l 2
 174 54 161 67 161 94 c 2
 161 185 l 1
 70 185 l 2
 43 185 30 198 30 225 c 2
 30 281 l 2
 30 308 43 321 70 321 c 2
 161 321 l 1
 161 406 l 2
 161 433 174 446 201 446 c 2
EndSplineSet
EndChar

StartChar: comma
Encoding: 44 44 200
Width: 211
Flags: MW
HStem: -182 21G<38 80 38 38> 0 141<46.5 145 56 93 56 181>
VStem: 20 161<37 105 0 115>
LayerCount: 2
Fore
SplineSet
20 37 m 2
 20 105 l 2
 20 125 37 141 56 141 c 2
 145 141 l 2
 164 141 181 125 181 105 c 2
 181 0 l 1
 116 -145 l 2
 107 -164 99 -182 80 -182 c 2
 38 -182 l 1
 93 0 l 1
 56 0 l 2
 37 0 20 17 20 37 c 2
EndSplineSet
EndChar

StartChar: hyphen
Encoding: 45 45 201
AltUni2: 0000ad.ffffffff.0
Width: 278
Flags: MW
HStem: 201 136<46.5 218 60 218>
VStem: 20 238<241 297 227.5 310.5>
LayerCount: 2
Fore
SplineSet
20 241 m 2
 20 297 l 2
 20 324 33 337 60 337 c 2
 218 337 l 2
 245 337 258 324 258 297 c 2
 258 241 l 2
 258 214 245 201 218 201 c 2
 60 201 l 2
 33 201 20 214 20 241 c 2
EndSplineSet
EndChar

StartChar: period
Encoding: 46 46 202
Width: 221
Flags: MW
HStem: 0 141<56.5 155 66 155>
VStem: 30 161<37 105 27 115>
LayerCount: 2
Fore
SplineSet
30 37 m 2
 30 105 l 2
 30 125 47 141 66 141 c 2
 155 141 l 2
 174 141 191 125 191 105 c 2
 191 37 l 2
 191 17 174 0 155 0 c 2
 66 0 l 2
 47 0 30 17 30 37 c 2
EndSplineSet
EndChar

StartChar: slash
Encoding: 47 47 203
Width: 391
Flags: MW
HStem: -145 21G<-2.5 11 11 72> 774 20G<287 348 348 361.5>
LayerCount: 2
Fore
SplineSet
-17 -105 m 2
 236 754 l 2
 244 781 261 794 287 794 c 2
 348 794 l 2
 375 794 385 781 377 754 c 2
 124 -105 l 2
 116 -132 99 -145 72 -145 c 2
 11 -145 l 2
 -16 -145 -25 -132 -17 -105 c 2
EndSplineSet
EndChar

StartChar: zero
Encoding: 48 48 204
Width: 483
Flags: MW
HStem: 0 136<107 244 241 244 244 258 241 345> 586 136<225.5 241 241 243>
VStem: 40 154<168.5 183 183 539> 289 154<183 539 539 553.5>
LayerCount: 2
Fore
SplineSet
137 722 m 2
 345 722 l 2
 405 722 443 684 443 624 c 2
 443 98 l 2
 443 38 406 0 345 0 c 2
 137 0 l 2
 77 0 40 38 40 98 c 2
 40 624 l 2
 40 684 77 722 137 722 c 2
243 586 m 2
 241 586 l 2
 210 586 194 568 194 539 c 2
 194 183 l 2
 194 154 210 136 241 136 c 2
 244 136 l 2
 272 136 289 154 289 183 c 2
 289 539 l 2
 289 568 272 586 243 586 c 2
EndSplineSet
EndChar

StartChar: one
Encoding: 49 49 205
Width: 483
Flags: MW
HStem: 0 21G<267.5 281 281 355> 464 136<123 124 124 241> 702 20G<281 355 355 368.5>
VStem: 241 154<40 464 464 464 600 682>
LayerCount: 2
Fore
SplineSet
281 722 m 2
 355 722 l 2
 382 722 395 709 395 682 c 2
 395 40 l 2
 395 13 382 0 355 0 c 2
 281 0 l 2
 254 0 241 13 241 40 c 2
 241 464 l 1
 124 464 l 2
 97 464 83 477 83 504 c 2
 83 560 l 2
 83 587 96 600 123 600 c 2
 241 600 l 1
 241 682 l 2
 241 709 254 722 281 722 c 2
EndSplineSet
EndChar

StartChar: two
Encoding: 50 50 206
Width: 483
Flags: MW
HStem: 0 136<85 370 194 370 194 370> 586 136<105.5 293 119 205>
VStem: 274 154<492 517 517 538.5>
LayerCount: 2
Fore
SplineSet
119 722 m 2
 293 722 l 2
 373 722 428 667 428 588 c 2
 428 458 l 2
 428 423 419 403 396 376 c 2
 194 136 l 1
 370 136 l 2
 397 136 410 123 410 96 c 2
 410 40 l 2
 410 13 397 0 370 0 c 2
 99 0 l 2
 71 0 57 14 57 42 c 2
 57 177 l 2
 57 185 60 193 65 200 c 2
 258 450 l 2
 269 465 274 473 274 492 c 2
 274 517 l 2
 274 560 248 586 205 586 c 2
 119 586 l 2
 92 586 79 599 79 626 c 2
 79 682 l 2
 79 709 92 722 119 722 c 2
EndSplineSet
EndChar

StartChar: three
Encoding: 51 51 207
Width: 483
Flags: MW
HStem: 0 136<85.5 198 99 198 198 212.5 99 246> 297 136<121.5 178 135 178> 586 136<85.5 246 99 196>
VStem: 245 154<182 193 108 232 108 251.5 496 537 537 538 538 553.5>
LayerCount: 2
Fore
SplineSet
99 722 m 2
 246 722 l 2
 337 722 399 659 399 570 c 2
 399 538 l 2
 399 454 356 394 292 366 c 1
 356 337 399 277 399 193 c 2
 399 153 l 2
 399 63 337 0 246 0 c 2
 99 0 l 2
 72 0 59 13 59 39 c 2
 59 97 l 2
 59 123 72 136 99 136 c 2
 198 136 l 2
 227 136 245 154 245 182 c 2
 245 232 l 2
 245 271 221 297 178 297 c 2
 135 297 l 2
 108 297 95 311 95 338 c 2
 95 393 l 2
 95 420 108 433 135 433 c 2
 178 433 l 2
 221 433 245 453 245 494 c 2
 245 537 l 2
 245 570 229 586 196 586 c 2
 99 586 l 2
 72 586 59 599 59 626 c 2
 59 682 l 2
 59 709 72 722 99 722 c 2
EndSplineSet
EndChar

StartChar: four
Encoding: 52 52 208
Width: 483
Flags: MW
HStem: 0 21G<279.5 293 293 350> 143 136<49.5 253 160 253 160 253 390 426> 702 20G<177 350 350 363.5>
VStem: 253 137<40 143 26.5 143 279 591 591 591>
LayerCount: 2
Fore
SplineSet
177 722 m 2
 350 722 l 2
 377 722 390 709 390 682 c 2
 390 279 l 1
 426 279 l 2
 453 279 466 263 466 243 c 2
 466 183 l 2
 466 156 453 143 426 143 c 2
 390 143 l 1
 390 40 l 2
 390 13 377 0 350 0 c 2
 293 0 l 2
 266 0 253 13 253 40 c 2
 253 143 l 1
 63 143 l 2
 36 143 23 156 23 183 c 2
 23 272 l 2
 23 284 25 296 28 307 c 2
 140 692 l 2
 145 711 154 722 177 722 c 2
253 279 m 1
 253 591 l 1
 160 279 l 1
 253 279 l 1
EndSplineSet
EndChar

StartChar: five
Encoding: 53 53 209
Width: 483
Flags: MW
HStem: 0 136<99.5 197 113 197 197 214.5 113 295> 316 136<99.5 278 113 278> 586 136<241.5 249 249 372 372 373>
VStem: 73 154<452 564 452 682 452 695.5> 258 154<197 247 247 268.5>
LayerCount: 2
Fore
SplineSet
113 722 m 2
 372 722 l 2
 399 722 412 709 412 682 c 2
 412 626 l 2
 412 599 399 586 373 586 c 2
 249 586 l 2
 234 586 227 579 227 564 c 2
 227 452 l 1
 278 452 l 2
 358 452 412 398 412 318 c 2
 412 117 l 2
 412 53 360 0 295 0 c 2
 113 0 l 2
 86 0 73 13 73 40 c 2
 73 96 l 2
 73 123 86 136 113 136 c 2
 197 136 l 2
 232 136 258 164 258 197 c 2
 258 247 l 2
 258 290 231 316 188 316 c 2
 113 316 l 2
 86 316 73 330 73 357 c 2
 73 682 l 2
 73 709 86 722 113 722 c 2
EndSplineSet
EndChar

StartChar: six
Encoding: 54 54 210
Width: 483
Flags: MW
HStem: 0 136<118 253 238 253 253 262.5 238 339> 586 136<227 238 238 361>
VStem: 51 154<158.5 170 170 311 420 552> 283 154<168 280 280 290.5>
LayerCount: 2
Fore
SplineSet
148 722 m 2
 361 722 l 2
 388 722 401 709 401 682 c 2
 401 625 l 2
 401 599 388 586 361 586 c 2
 238 586 l 2
 216 586 205 575 205 552 c 2
 205 420 l 1
 297 439 l 2
 309 442 331 447 340 447 c 0
 399 447 437 408 437 348 c 2
 437 98 l 2
 437 38 400 0 339 0 c 2
 148 0 l 2
 88 0 51 38 51 98 c 2
 51 624 l 2
 51 684 88 722 148 722 c 2
252 311 m 2
 205 311 l 1
 205 170 l 2
 205 147 216 136 238 136 c 2
 253 136 l 2
 272 136 283 147 283 168 c 2
 283 280 l 2
 283 301 273 311 252 311 c 2
EndSplineSet
EndChar

StartChar: seven
Encoding: 55 55 211
Width: 483
Flags: MW
HStem: 0 21G<133 149 149 213> 568 154<79.5 398 93 287>
LayerCount: 2
Fore
SplineSet
93 722 m 2
 398 722 l 2
 425 722 438 708 438 681 c 2
 438 592 l 2
 438 576 437 563 432 548 c 2
 253 27 l 2
 248 11 237 0 213 0 c 2
 149 0 l 2
 117 0 101 25 109 48 c 2
 287 568 l 1
 93 568 l 2
 66 568 53 582 53 609 c 2
 53 682 l 2
 53 709 66 722 93 722 c 2
EndSplineSet
EndChar

StartChar: eight
Encoding: 56 56 212
Width: 483
Flags: MW
HStem: 0 136<140.5 249 234 249 249 263.5 234 297> 297 136<227.5 242 240 242> 586 136<219.5 236 236 247>
VStem: 33 154<168 182 182 193 193 232 168 235> 296 154<182 193 108 232 108 251.5 499 537 537 538 538 553.5>
LayerCount: 2
Fore
SplineSet
186 722 m 2
 297 722 l 2
 388 722 450 659 450 570 c 2
 450 538 l 2
 450 454 407 394 343 366 c 1
 407 337 450 277 450 193 c 2
 450 153 l 2
 450 63 388 0 297 0 c 2
 186 0 l 2
 95 0 33 63 33 153 c 2
 33 193 l 2
 33 277 76 337 140 366 c 1
 76 394 33 454 33 538 c 2
 33 570 l 2
 33 659 96 722 186 722 c 2
241 297 m 2
 240 297 l 2
 215 297 187 271 187 232 c 2
 187 182 l 2
 187 154 205 136 234 136 c 2
 249 136 l 2
 278 136 296 154 296 182 c 2
 296 232 l 2
 296 271 268 297 241 297 c 2
247 586 m 2
 236 586 l 2
 203 586 187 570 187 537 c 2
 187 499 l 2
 187 458 214 433 241 433 c 2
 242 433 l 2
 269 433 296 458 296 499 c 2
 296 537 l 2
 296 570 280 586 247 586 c 2
EndSplineSet
EndChar

StartChar: nine
Encoding: 57 57 213
Width: 483
Flags: MW
HStem: 0 136<108.5 245 122 245 245 256 122 335> 586 136<220.5 230 230 245>
VStem: 46 154<404.5 415 415 554 404.5 624> 278 154<170 275 275 275 384 552 552 563.5>
LayerCount: 2
Fore
SplineSet
335 0 m 2
 122 0 l 2
 95 0 82 13 82 40 c 2
 82 97 l 2
 82 123 95 136 122 136 c 2
 245 136 l 2
 267 136 278 147 278 170 c 2
 278 275 l 1
 186 256 l 2
 174 253 152 248 143 248 c 0
 84 248 46 287 46 347 c 2
 46 624 l 2
 46 684 83 722 144 722 c 2
 335 722 l 2
 395 722 432 684 432 624 c 2
 432 98 l 2
 432 38 395 0 335 0 c 2
231 384 m 2
 278 384 l 1
 278 552 l 2
 278 575 267 586 245 586 c 2
 230 586 l 2
 211 586 200 575 200 554 c 2
 200 415 l 2
 200 394 210 384 231 384 c 2
EndSplineSet
EndChar

StartChar: colon
Encoding: 58 58 214
Width: 221
Flags: MW
HStem: 0 141<56.5 155 66 155> 364 141<56.5 155 66 155>
VStem: 30 161<37 105 27 115 401 469>
LayerCount: 2
Fore
SplineSet
66 505 m 2
 155 505 l 2
 174 505 191 489 191 469 c 2
 191 401 l 2
 191 381 174 364 155 364 c 2
 66 364 l 2
 47 364 30 381 30 401 c 2
 30 469 l 2
 30 489 47 505 66 505 c 2
66 141 m 2
 155 141 l 2
 174 141 191 125 191 105 c 2
 191 37 l 2
 191 17 174 0 155 0 c 2
 66 0 l 2
 47 0 30 17 30 37 c 2
 30 105 l 2
 30 125 47 141 66 141 c 2
EndSplineSet
EndChar

StartChar: semicolon
Encoding: 59 59 215
Width: 211
Flags: MW
HStem: -182 21G<38 80 38 38> 0 141<46.5 145 56 93 56 181> 364 141<46.5 145 56 145>
VStem: 20 161<37 105 0 115 401 469>
LayerCount: 2
Fore
SplineSet
20 37 m 2
 20 105 l 2
 20 125 37 141 56 141 c 2
 145 141 l 2
 164 141 181 125 181 105 c 2
 181 0 l 1
 116 -145 l 2
 107 -164 99 -182 80 -182 c 2
 38 -182 l 1
 93 0 l 1
 56 0 l 2
 37 0 20 17 20 37 c 2
56 505 m 2
 145 505 l 2
 164 505 181 489 181 469 c 2
 181 401 l 2
 181 381 164 364 145 364 c 2
 56 364 l 2
 37 364 20 381 20 401 c 2
 20 469 l 2
 20 489 37 505 56 505 c 2
EndSplineSet
EndChar

StartChar: less
Encoding: 60 60 216
Width: 386
Flags: W
LayerCount: 2
Fore
SplineSet
255 21 m 2
 48 186 l 2
 36 196 30 207 30 218 c 2
 30 282 l 2
 30 294 39 305 48 312 c 2
 255 482 l 2
 276 499 294 497 311 476 c 2
 345 435 l 2
 362 414 360 396 339 379 c 2
 177 251 l 1
 339 124 l 2
 360 107 362 89 345 68 c 2
 311 27 l 2
 294 6 276 4 255 21 c 2
EndSplineSet
EndChar

StartChar: equal
Encoding: 61 61 217
Width: 457
Flags: MW
HStem: 73 136<56.5 387 70 387> 297 136<56.5 387 70 387>
LayerCount: 2
Fore
SplineSet
70 433 m 2
 387 433 l 2
 414 433 427 420 427 393 c 2
 427 337 l 2
 427 310 414 297 387 297 c 2
 70 297 l 2
 43 297 30 310 30 337 c 2
 30 393 l 2
 30 420 43 433 70 433 c 2
70 209 m 2
 387 209 l 2
 414 209 427 196 427 169 c 2
 427 113 l 2
 427 86 414 73 387 73 c 2
 70 73 l 2
 43 73 30 86 30 113 c 2
 30 169 l 2
 30 196 43 209 70 209 c 2
EndSplineSet
EndChar

StartChar: greater
Encoding: 62 62 218
Width: 386
Flags: W
LayerCount: 2
Fore
SplineSet
41 435 m 2
 75 476 l 2
 92 497 110 499 131 482 c 2
 338 312 l 2
 347 304 356 294 356 282 c 2
 356 218 l 2
 356 207 350 196 338 186 c 2
 131 21 l 2
 110 4 92 6 75 27 c 2
 41 68 l 2
 24 89 26 107 47 124 c 2
 209 251 l 1
 47 379 l 2
 26 395 24 414 41 435 c 2
EndSplineSet
EndChar

StartChar: question
Encoding: 63 63 219
Width: 448
Flags: MW
HStem: 0 131<133.5 227 147 227> 586 136<76 265 91 175>
VStem: 110 154<277 280 263.5 319 263.5 344.5> 244 154<520 527 527 547.5>
LayerCount: 2
Fore
SplineSet
91 722 m 2xd0
 265 722 l 2
 345 722 398 668 398 588 c 2
 398 481 l 2xd0
 398 430 377 395 344 372 c 2
 291 336 l 1
 273 325 264 306 264 280 c 2
 264 277 l 2
 264 250 251 237 225 237 c 2
 150 237 l 2
 123 237 110 250 110 277 c 2
 110 319 l 2xe0
 110 370 132 405 164 428 c 1
 217 464 l 2
 235 476 244 495 244 520 c 2
 244 527 l 2
 244 568 218 586 175 586 c 2
 89 586 l 2
 63 586 50 599 50 626 c 2
 50 682 l 2
 50 709 64 722 91 722 c 2xd0
147 131 m 2
 227 131 l 2
 254 131 267 118 267 91 c 2
 267 39 l 2
 267 13 254 0 227 0 c 2
 147 0 l 2
 120 0 107 13 107 39 c 2
 107 91 l 2
 107 118 120 131 147 131 c 2
EndSplineSet
EndChar

StartChar: Omega
Encoding: 937 937 220
AltUni2: 002126.ffffffff.0
Width: 723
Flags: MW
HStem: 0 136<79 81 81 156 156 163 79 291 569 644> 586 136<237.5 255 255 469>
VStem: 40 154<453.5 475 475 524 453.5 604 453.5 637.5> 177 154<158 270 270 270> 394 154<150 157 157 270 150 364> 529 154<475 524 524 541.5>
LayerCount: 2
Fore
SplineSet
157 722 m 2xe8
 566 722 l 2
 631 722 683 669 683 605 c 2
 683 403 l 2xe4
 683 322 627 270 550 270 c 2
 548 270 l 1
 548 157 l 2xe8
 548 143 555 136 569 136 c 2
 644 136 l 2
 670 136 683 123 683 96 c 2
 683 40 l 2xe4
 683 13 670 0 644 0 c 2
 434 0 l 2
 407 0 394 13 394 40 c 2
 394 364 l 2xe8
 394 392 407 406 434 406 c 2
 459 406 l 2
 502 406 529 432 529 475 c 2
 529 524 l 2
 529 559 504 586 469 586 c 2
 255 586 l 2
 220 586 194 559 194 524 c 2
 194 475 l 2xe4
 194 432 221 406 264 406 c 2
 292 406 l 2
 318 406 331 392 331 364 c 2
 331 40 l 2xd8
 331 13 318 0 291 0 c 2
 81 0 l 2
 54 0 40 13 40 39 c 2
 40 96 l 2xe8
 40 120 54 136 79 136 c 2
 156 136 l 2
 170 136 177 143 177 158 c 2
 177 270 l 1xd8
 174 270 l 2
 94 270 40 324 40 404 c 2
 40 604 l 2
 40 671 92 722 157 722 c 2xe8
EndSplineSet
EndChar

StartChar: ae
Encoding: 230 230 221
Width: 654
Flags: MW
HStem: 0 115<114.5 240 219 240 240 247.5 219 283> 0 136<378 538 452 538 452 538> 369 136<95.5 283 109 213>
VStem: 50 143<130.5 138 138 177 130.5 227 130.5 257> 255 154<159.5 173 173 181 159.5 208 159.5 208 298 328 328 343.5> 471 143<310 349 349 355.5>
CounterMasks: 1 1c
LayerCount: 2
Fore
SplineSet
109 505 m 2xbc
 283 505 l 2
 306 505 321 500 336 492 c 1
 351 501 368 505 389 505 c 2
 516 505 l 2
 576 505 614 467 614 407 c 2
 614 279 l 2
 614 218 576 181 516 181 c 2
 409 181 l 1
 409 173 l 2
 409 146 424 136 452 136 c 2
 538 136 l 2x7c
 565 136 578 123 578 96 c 2
 578 40 l 2
 578 13 565 0 538 0 c 2
 389 0 l 2
 367 0 349 4 336 13 c 1
 322 4 304 0 283 0 c 2
 140 0 l 2
 89 0 50 38 50 98 c 2
 50 227 l 2
 50 287 89 325 140 325 c 0
 148 325 153 325 168 321 c 2
 255 298 l 1
 255 328 l 2
 255 359 242 369 213 369 c 2
 109 369 l 2
 82 369 69 382 69 409 c 2
 69 465 l 2
 69 492 82 505 109 505 c 2xbc
255 208 m 1
 224 208 l 2
 203 208 193 198 193 177 c 2
 193 138 l 2
 193 123 202 115 219 115 c 2
 240 115 l 2xbc
 255 115 255 119 255 138 c 2
 255 208 l 1
448 374 m 2
 435 374 l 2
 422 374 409 364 409 349 c 2
 409 271 l 1
 454 285 l 2
 466 289 471 299 471 310 c 2
 471 349 l 2
 471 362 459 374 448 374 c 2
EndSplineSet
EndChar

StartChar: oslash
Encoding: 248 248 222
Width: 490
Flags: MW
HStem: -144 21G<65 78 78 149> -20 20G<225 338 225 225> 485 20G<149 264 264 264> 629 20G<338 411 411 424>
VStem: 51 154<164.5 178 178 327 164.5 407> 282 154<178 327 327 340.5>
LayerCount: 2
Fore
SplineSet
338 649 m 2
 411 649 l 2
 437 649 445 636 436 609 c 2
 395 490 l 1
 429 464 436 444 436 391 c 2
 436 97 l 2
 436 37 398 0 338 0 c 2
 225 0 l 1
 185 -116 l 2
 177 -139 166 -144 149 -144 c 2
 78 -144 l 2
 52 -144 44 -131 53 -104 c 2
 94 14 l 1
 65 33 51 61 51 98 c 2
 51 407 l 2
 51 467 89 505 149 505 c 2
 264 505 l 1
 305 624 l 2
 312 643 321 649 338 649 c 2
205 327 m 2
 205 178 l 2
 205 151 221 136 241 136 c 2
 245 136 l 2
 265 136 282 151 282 178 c 2
 282 327 l 2
 282 354 265 369 245 369 c 2
 241 369 l 2
 221 369 205 354 205 327 c 2
EndSplineSet
EndChar

StartChar: questiondown
Encoding: 191 191 223
Width: 448
Flags: MW
HStem: -217 136<143 359 273 357> 374 131<207.5 301 221 301>
VStem: 50 154<-42.5 -22 -22 -15 -42.5 24 -42.5 49.5> 184 154<225 228 160.5 241.5>
LayerCount: 2
Fore
SplineSet
357 -217 m 2xe0
 183 -217 l 2
 103 -217 50 -163 50 -83 c 2
 50 24 l 2xe0
 50 75 71 110 104 133 c 2
 157 169 l 1
 175 180 184 199 184 225 c 2
 184 228 l 2
 184 255 197 268 223 268 c 2
 298 268 l 2
 325 268 338 255 338 228 c 2
 338 186 l 2xd0
 338 135 316 100 284 77 c 1
 231 41 l 2
 213 29 204 10 204 -15 c 2
 204 -22 l 2
 204 -63 230 -81 273 -81 c 2
 359 -81 l 2
 385 -81 398 -94 398 -121 c 2
 398 -177 l 2
 398 -204 384 -217 357 -217 c 2xe0
301 374 m 2
 221 374 l 2
 194 374 181 387 181 414 c 2
 181 466 l 2
 181 492 194 505 221 505 c 2
 301 505 l 2
 328 505 341 492 341 466 c 2
 341 414 l 2
 341 387 328 374 301 374 c 2
EndSplineSet
EndChar

StartChar: exclamdown
Encoding: 161 161 224
Width: 340
Flags: MW
HStem: -217 21G<119.5 133 133 207> 374 131<116.5 210 130 210>
VStem: 93 154<-177 228>
LayerCount: 2
Fore
SplineSet
93 -177 m 2
 93 228 l 2
 93 255 106 268 133 268 c 2
 207 268 l 2
 234 268 247 255 247 228 c 2
 247 -177 l 2
 247 -204 234 -217 207 -217 c 2
 133 -217 l 2
 106 -217 93 -204 93 -177 c 2
90 414 m 2
 90 465 l 2
 90 492 103 505 130 505 c 2
 210 505 l 2
 237 505 250 492 250 465 c 2
 250 414 l 2
 250 387 237 374 210 374 c 2
 130 374 l 2
 103 374 90 387 90 414 c 2
EndSplineSet
EndChar

StartChar: logicalnot
Encoding: 172 172 225
Width: 467
Flags: MW
HStem: 54 21G<327.5 341 341 397> 180 136<56.5 397 70 301>
VStem: 301 136<94 180 180 180>
LayerCount: 2
Fore
SplineSet
70 316 m 2
 397 316 l 2
 424 316 437 303 437 276 c 2
 437 94 l 2
 437 67 424 54 397 54 c 2
 341 54 l 2
 314 54 301 67 301 94 c 2
 301 180 l 1
 70 180 l 2
 43 180 30 193 30 220 c 2
 30 276 l 2
 30 303 43 316 70 316 c 2
EndSplineSet
EndChar

StartChar: radical
Encoding: 8730 8730 226
Width: 501
Flags: MW
HStem: 0 21G<146.5 156 156 347> 369 136<-28.5 163 -15 69> 702 20G<375 446 446 455.5>
LayerCount: 2
Fore
SplineSet
-15 505 m 2
 163 505 l 2
 182 505 198 495 203 474 c 1
 255 126 l 1
 340 692 l 1
 344 709 359 722 375 722 c 2
 446 722 l 2
 465 722 485 705 481 681 c 2
 381 30 l 2
 378 10 366 0 347 0 c 2
 156 0 l 2
 137 0 124 13 121 30 c 2
 69 369 l 1
 -15 369 l 2
 -42 369 -55 382 -55 408 c 2
 -55 465 l 2
 -55 492 -42 505 -15 505 c 2
EndSplineSet
EndChar

StartChar: florin
Encoding: 402 402 227
Width: 368
Flags: MW
HStem: -217 136<46.5 66 60 66 66 79.5 60 147> 281 136<63.5 107 77 107 261 291> 658 136<289 303 303 308>
VStem: 20 241<-135 -121 -121 -107.5> 107 154<-39 281 417 616> 107 241<417 698 684.5 698 698 712>
LayerCount: 2
Fore
SplineSet
222 794 m 2xe8
 308 794 l 2
 335 794 348 781 348 754 c 2
 348 698 l 2xe4
 348 671 335 658 308 658 c 2
 303 658 l 2
 275 658 261 644 261 616 c 2
 261 417 l 1
 291 417 l 2
 318 417 331 404 331 377 c 2
 331 321 l 2
 331 294 318 281 291 281 c 2
 261 281 l 1
 261 -97 l 2
 261 -173 212 -217 147 -217 c 2
 60 -217 l 2
 33 -217 20 -204 20 -177 c 2
 20 -121 l 2xf0
 20 -94 33 -81 60 -81 c 2
 66 -81 l 2
 93 -81 107 -70 107 -39 c 2
 107 281 l 1
 77 281 l 2
 50 281 37 294 37 321 c 2
 37 377 l 2
 37 404 50 417 77 417 c 2
 107 417 l 1
 107 674 l 2
 107 750 154 794 222 794 c 2xe8
EndSplineSet
EndChar

StartChar: approxequal
Encoding: 8776 8776 228
Width: 557
Flags: W
LayerCount: 2
Fore
SplineSet
45 326 m 2
 80 389 l 2
 112 447 221 475 310 408 c 1
 325 397 l 2
 346 382 360 382 368 397 c 2
 376 411 l 2
 388 430 396 433 411 433 c 2
 494 433 l 2
 513 433 523 416 512 396 c 2
 477 332 l 2
 445 274 336 246 247 313 c 1
 228 327 l 2
 211 340 198 339 189 324 c 2
 181 310 l 2
 170 291 161 288 146 288 c 2
 62 288 l 2
 43 288 34 307 45 326 c 2
45 111 m 2
 80 174 l 2
 112 232 221 260 310 193 c 1
 325 182 l 2
 346 167 360 167 368 182 c 2
 376 196 l 2
 388 215 396 218 411 218 c 2
 494 218 l 2
 513 218 523 201 512 181 c 2
 477 117 l 2
 445 59 336 31 247 98 c 1
 228 112 l 2
 211 125 198 124 189 109 c 2
 181 95 l 2
 170 76 161 73 146 73 c 2
 62 73 l 2
 43 73 34 92 45 111 c 2
EndSplineSet
EndChar

StartChar: Delta
Encoding: 916 916 229
AltUni2: 002206.ffffffff.0
Width: 531
Flags: MW
HStem: 0 136<47 344 180 344 180 477> 702 20G<171 361 361 370.5>
LayerCount: 2
Fore
SplineSet
171 722 m 2
 361 722 l 2
 380 722 393 709 396 692 c 2
 511 43 l 2
 515 20 496 0 477 0 c 2
 57 0 l 2
 37 0 17 16 21 40 c 2
 136 692 l 2
 139 708 152 722 171 722 c 2
344 136 m 1
 262 596 l 1
 180 136 l 1
 344 136 l 1
EndSplineSet
EndChar

StartChar: guillemotleft
Encoding: 171 171 230
Width: 577
Flags: W
LayerCount: 2
Fore
SplineSet
503 584 m 2
 536 550 l 2
 555 531 549 513 530 494 c 2
 391 361 l 1
 529 228 l 2
 548 209 555 192 535 172 c 2
 503 139 l 2
 484 120 466 114 447 133 c 2
 284 296 l 2
 273 307 266 317 266 328 c 2
 266 392 l 2
 266 404 275 413 284 422 c 2
 447 590 l 2
 466 609 484 603 503 584 c 2
267 584 m 1
 300 550 l 2
 319 531 313 511 294 494 c 2
 155 361 l 1
 293 228 l 2
 312 211 319 192 299 172 c 2
 269 141 l 2
 250 122 230 114 211 133 c 2
 48 296 l 2
 37 307 30 317 30 328 c 2
 30 392 l 2
 30 404 39 413 48 422 c 2
 211 590 l 2
 230 609 250 603 267 584 c 1
EndSplineSet
EndChar

StartChar: guillemotright
Encoding: 187 187 231
Width: 577
Flags: W
LayerCount: 2
Fore
SplineSet
50 550 m 2
 83 584 l 2
 102 603 120 609 139 590 c 2
 302 422 l 2
 311 413 320 404 320 392 c 2
 320 328 l 2
 320 317 313 307 302 296 c 2
 139 133 l 2
 120 114 102 120 83 139 c 2
 51 172 l 2
 31 192 38 209 57 228 c 2
 195 361 l 1
 56 494 l 2
 37 513 31 531 50 550 c 2
286 550 m 2
 319 584 l 1
 336 603 356 609 375 590 c 2
 538 422 l 2
 547 413 556 404 556 392 c 2
 556 328 l 2
 556 317 549 307 538 296 c 2
 375 133 l 2
 356 114 336 122 317 141 c 2
 287 172 l 2
 267 192 274 211 293 228 c 2
 431 361 l 1
 292 494 l 2
 273 511 267 531 286 550 c 2
EndSplineSet
EndChar

StartChar: ellipsis
Encoding: 8230 8230 232
Width: 845
Flags: MW
HStem: 0 141<56.5 155 66 155 378 467 690 779>
VStem: 30 161<37 105 27 115> 342 161<37 105 27 115> 654 161<37 105 27 115>
CounterMasks: 1 70
LayerCount: 2
Fore
SplineSet
30 37 m 2
 30 105 l 2
 30 125 47 141 66 141 c 2
 155 141 l 2
 174 141 191 125 191 105 c 2
 191 37 l 2
 191 17 174 0 155 0 c 2
 66 0 l 2
 47 0 30 17 30 37 c 2
654 37 m 2
 654 105 l 2
 654 125 671 141 690 141 c 2
 779 141 l 2
 798 141 815 125 815 105 c 2
 815 37 l 2
 815 17 798 0 779 0 c 2
 690 0 l 2
 671 0 654 17 654 37 c 2
342 37 m 2
 342 105 l 2
 342 125 359 141 378 141 c 2
 467 141 l 2
 486 141 503 125 503 105 c 2
 503 37 l 2
 503 17 486 0 467 0 c 2
 378 0 l 2
 359 0 342 17 342 37 c 2
EndSplineSet
EndChar

StartChar: OE
Encoding: 338 338 233
Width: 685
Flags: MW
HStem: 0 136<147 317 252 317 489 625> 297 136<471 581 471 581> 586 136<232 251 251 317 483.5 490 490 625>
VStem: 40 154<175.5 195 195 527> 317 154<148.5 154 154 297 433 567>
LayerCount: 2
Fore
SplineSet
194 722 m 2
 625 722 l 2
 652 722 665 709 665 682 c 2
 665 626 l 2
 665 599 652 586 625 586 c 2
 490 586 l 2
 477 586 471 580 471 567 c 2
 471 433 l 1
 581 433 l 2
 607 433 620 420 620 393 c 2
 620 337 l 2
 620 310 607 297 581 297 c 2
 471 297 l 1
 471 154 l 2
 471 143 478 136 489 136 c 2
 625 136 l 2
 652 136 665 123 665 96 c 2
 665 40 l 2
 665 13 652 0 625 0 c 2
 193 0 l 2
 101 0 40 62 40 154 c 2
 40 569 l 2
 40 660 103 722 194 722 c 2
317 586 m 1
 251 586 l 2
 213 586 194 566 194 527 c 2
 194 195 l 2
 194 156 213 136 252 136 c 2
 317 136 l 1
 317 586 l 1
EndSplineSet
Position2: "'cpsp' Capital Spacing in Latin lookup 0 subtable" dx=7 dy=0 dh=14 dv=0
EndChar

StartChar: oe
Encoding: 339 339 234
Width: 680
Flags: MW
HStem: 0 136<118 244 240 244 244 254 240 300 478 564> 369 136<230 240 240 244>
VStem: 50 154<164.5 178 178 327 164.5 407> 281 154<178 181 159.5 271 271 327 327 340.5> 497 143<310 349 349 355.5>
LayerCount: 2
Fore
SplineSet
148 505 m 2
 300 505 l 2
 323 505 348 500 363 492 c 1
 378 501 395 505 416 505 c 2
 542 505 l 2
 602 505 640 468 640 407 c 2
 640 279 l 2
 640 218 602 181 542 181 c 2
 435 181 l 1
 435 173 l 2
 435 146 450 136 478 136 c 2
 564 136 l 2
 591 136 604 123 604 96 c 2
 604 40 l 2
 604 13 591 0 564 0 c 2
 416 0 l 2
 394 0 376 4 363 13 c 1
 350 5 323 0 300 0 c 2
 148 0 l 2
 88 0 50 38 50 98 c 2
 50 407 l 2
 50 467 88 505 148 505 c 2
244 369 m 2
 240 369 l 2
 220 369 204 354 204 327 c 2
 204 178 l 2
 204 151 220 136 240 136 c 2
 244 136 l 2
 264 136 281 151 281 178 c 2
 281 327 l 2
 281 354 264 369 244 369 c 2
474 374 m 2
 461 374 l 2
 448 374 435 364 435 349 c 2
 435 271 l 1
 480 285 l 2
 492 289 497 299 497 310 c 2
 497 349 l 2
 497 362 485 374 474 374 c 2
EndSplineSet
EndChar

StartChar: endash
Encoding: 8211 8211 235
Width: 430
Flags: MW
HStem: 201 136<46.5 370 60 370>
LayerCount: 2
Fore
SplineSet
20 241 m 2
 20 297 l 2
 20 324 33 337 60 337 c 2
 370 337 l 2
 397 337 410 324 410 297 c 2
 410 241 l 2
 410 214 397 201 370 201 c 2
 60 201 l 2
 33 201 20 214 20 241 c 2
EndSplineSet
EndChar

StartChar: emdash
Encoding: 8212 8212 236
Width: 573
Flags: MW
HStem: 201 136<46.5 513 60 513>
LayerCount: 2
Fore
SplineSet
20 241 m 2
 20 297 l 2
 20 324 33 337 60 337 c 2
 513 337 l 2
 540 337 553 324 553 297 c 2
 553 241 l 2
 553 214 540 201 513 201 c 2
 60 201 l 2
 33 201 20 214 20 241 c 2
EndSplineSet
EndChar

StartChar: quotedblleft
Encoding: 8220 8220 237
Width: 414
Flags: MW
HStem: 527 141<30 66 118 155 30 155 321 358> 830 20G<131 173 173 173 334 376 376 376>
VStem: 30 161<563 631 553 668 553 668> 233 161<563 631 553 668 553 668>
LayerCount: 2
Fore
SplineSet
358 527 m 2
 269 527 l 2
 250 527 233 543 233 563 c 2
 233 668 l 1
 298 813 l 2
 307 834 315 850 334 850 c 2
 376 850 l 1
 321 668 l 1
 358 668 l 2
 377 668 394 651 394 631 c 2
 394 563 l 2
 394 543 377 527 358 527 c 2
155 527 m 2
 66 527 l 2
 47 527 30 543 30 563 c 2
 30 668 l 1
 95 813 l 2
 103 832 112 850 131 850 c 2
 173 850 l 1
 118 668 l 1
 155 668 l 2
 174 668 191 651 191 631 c 2
 191 563 l 2
 191 543 174 527 155 527 c 2
EndSplineSet
EndChar

StartChar: quotedblright
Encoding: 8221 8221 238
Width: 414
Flags: MW
HStem: 471 21G<38 80 38 38 241 241 241 283> 653 141<46.5 145 56 93 56 181 56 259 259 296>
VStem: 20 161<690 758 653 768> 223 161<690 758 653 768>
LayerCount: 2
Fore
SplineSet
56 794 m 2
 145 794 l 2
 164 794 181 778 181 758 c 2
 181 653 l 1
 116 508 l 2
 107 487 99 471 80 471 c 2
 38 471 l 1
 93 653 l 1
 56 653 l 2
 37 653 20 670 20 690 c 2
 20 758 l 2
 20 778 37 794 56 794 c 2
259 794 m 2
 348 794 l 2
 367 794 384 778 384 758 c 2
 384 653 l 1
 319 508 l 2
 311 489 302 471 283 471 c 2
 241 471 l 1
 296 653 l 1
 259 653 l 2
 240 653 223 670 223 690 c 2
 223 758 l 2
 223 778 240 794 259 794 c 2
EndSplineSet
EndChar

StartChar: quoteleft
Encoding: 8216 8216 239
Width: 211
Flags: MW
HStem: 527 141<30 66 118 155 30 155> 830 20G<131 173 173 173>
VStem: 30 161<563 631 553 668 553 668>
LayerCount: 2
Fore
SplineSet
191 631 m 2
 191 563 l 2
 191 543 174 527 155 527 c 2
 66 527 l 2
 47 527 30 543 30 563 c 2
 30 668 l 1
 95 813 l 2
 104 832 112 850 131 850 c 2
 173 850 l 1
 118 668 l 1
 155 668 l 2
 174 668 191 651 191 631 c 2
EndSplineSet
EndChar

StartChar: quoteright
Encoding: 8217 8217 240
Width: 211
Flags: MW
HStem: 471 21G<38 80 38 38> 653 141<46.5 145 56 93 56 181>
VStem: 20 161<690 758 653 768>
LayerCount: 2
Fore
SplineSet
20 690 m 2
 20 758 l 2
 20 778 37 794 56 794 c 2
 145 794 l 2
 164 794 181 778 181 758 c 2
 181 653 l 1
 116 508 l 2
 107 489 99 471 80 471 c 2
 38 471 l 1
 93 653 l 1
 56 653 l 2
 37 653 20 670 20 690 c 2
EndSplineSet
EndChar

StartChar: divide
Encoding: 247 247 241
Width: 457
Flags: MW
HStem: 0 141<177.5 276 187 276> 185 136<56.5 387 70 387> 364 141<177.5 276 187 276>
VStem: 151 161<37 105 27 115 401 469>
LayerCount: 2
Fore
SplineSet
70 321 m 2
 387 321 l 2
 414 321 427 307 427 280 c 2
 427 225 l 2
 427 198 414 185 387 185 c 2
 70 185 l 2
 43 185 30 198 30 225 c 2
 30 281 l 2
 30 308 43 321 70 321 c 2
187 141 m 2
 276 141 l 2
 295 141 312 125 312 105 c 2
 312 37 l 2
 312 17 295 0 276 0 c 2
 187 0 l 2
 168 0 151 17 151 37 c 2
 151 105 l 2
 151 125 168 141 187 141 c 2
187 505 m 2
 276 505 l 2
 295 505 312 489 312 469 c 2
 312 401 l 2
 312 381 295 364 276 364 c 2
 187 364 l 2
 168 364 151 381 151 401 c 2
 151 469 l 2
 151 489 168 505 187 505 c 2
EndSplineSet
EndChar

StartChar: lozenge
Encoding: 9674 9674 242
Width: 509
Flags: MW
HStem: -217 21G<150.5 159 159 349> 702 20G<159 349 349 358.5>
LayerCount: 2
Fore
SplineSet
159 722 m 2
 349 722 l 2
 368 722 379 706 384 683 c 2
 462 310 l 2
 470 271 473 238 462 193 c 1
 384 -178 l 2
 379 -201 368 -217 349 -217 c 2
 159 -217 l 2
 142 -217 129 -201 124 -178 c 2
 47 193 l 2
 38 238 37 263 45 302 c 2
 124 683 l 2
 129 706 142 722 159 722 c 2
324 253 m 1
 250 588 l 1
 178 254 l 1
 250 -83 l 1
 324 253 l 1
EndSplineSet
EndChar

StartChar: fraction
Encoding: 8260 8260 243
Width: 538
Flags: MW
HStem: 0 21G<30.5 44 44 118> 702 20G<420 493 493 506.5>
LayerCount: 2
Fore
SplineSet
16 40 m 2
 369 682 l 2
 382 706 393 722 420 722 c 2
 493 722 l 2
 520 722 535 706 522 682 c 2
 170 40 l 2
 157 16 145 0 118 0 c 2
 44 0 l 2
 17 0 3 16 16 40 c 2
EndSplineSet
EndChar

StartChar: currency
Encoding: 164 164 244
Width: 522
Flags: W
LayerCount: 2
Fore
SplineSet
79 140 m 2
 45 174 l 1
 36 185 38 198 49 209 c 2
 108 268 l 1
 106 269 l 1
 58 317 57 383 106 431 c 2
 108 433 l 1
 50 491 l 2
 39 502 36 516 47 527 c 2
 81 561 l 2
 92 572 108 572 117 563 c 2
 177 503 l 1
 178 505 l 1
 229 554 292 553 340 505 c 2
 342 503 l 1
 402 561 l 1
 411 572 425 576 436 565 c 2
 470 530 l 2
 482 519 482 505 473 494 c 1
 412 433 l 1
 412 432 l 1
 461 384 463 320 415 271 c 2
 412 268 l 1
 473 206 l 2
 482 197 482 182 471 170 c 2
 437 136 l 2
 426 125 413 128 402 139 c 2
 342 199 l 1
 341 197 l 1
 301 155 228 147 180 197 c 1
 177 199 l 1
 115 138 l 2
 108 131 94 125 79 140 c 2
193 322 m 2
 231 284 l 2
 240 275 249 271 259 271 c 0
 270 271 280 276 289 285 c 2
 325 320 l 2
 335 330 340 340 340 351 c 0
 340 362 336 371 327 380 c 2
 288 419 l 2
 280 427 270 431 259 431 c 0
 248 431 238 426 229 416 c 2
 195 382 l 2
 176 363 173 341 193 322 c 2
EndSplineSet
EndChar

StartChar: guilsinglleft
Encoding: 8249 8249 245
Width: 341
Flags: W
LayerCount: 2
Fore
SplineSet
267 584 m 1
 299 551 l 2
 318 532 312 514 293 495 c 2
 154 361 l 1
 293 228 l 2
 312 209 319 192 299 172 c 2
 267 139 l 1
 250 120 230 114 211 133 c 2
 48 296 l 2
 37 307 30 317 30 328 c 2
 30 392 l 2
 30 404 39 413 48 422 c 2
 211 590 l 2
 230 609 250 603 267 584 c 1
EndSplineSet
EndChar

StartChar: guilsinglright
Encoding: 8250 8250 246
Width: 341
Flags: W
LayerCount: 2
Fore
SplineSet
51 551 m 2
 83 584 l 1
 100 603 120 609 139 590 c 2
 302 422 l 2
 311 413 320 404 320 392 c 2
 320 328 l 2
 320 317 313 307 302 296 c 2
 139 133 l 2
 120 114 100 120 83 139 c 1
 51 172 l 2
 31 192 38 209 57 228 c 2
 196 361 l 1
 57 495 l 2
 38 514 32 532 51 551 c 2
EndSplineSet
EndChar

StartChar: fi
Encoding: 64257 64257 247
Width: 534
Flags: MW
HStem: 0 21G<128.5 142 142 216 362.5 376 376 450> 369 136<56.5 102 70 102 256 336> 658 136<284 298 298 443>
VStem: 102 154<40 369 505 616> 336 154<40 369 369 369>
LayerCount: 2
Fore
SplineSet
227 794 m 2
 443 794 l 2
 470 794 483 781 483 754 c 2
 483 698 l 2
 483 671 470 658 443 658 c 2
 298 658 l 2
 270 658 256 644 256 616 c 2
 256 505 l 1
 450 505 l 2
 477 505 490 492 490 465 c 2
 490 40 l 2
 490 13 477 0 450 0 c 2
 376 0 l 2
 349 0 336 13 336 40 c 2
 336 369 l 1
 256 369 l 1
 256 40 l 2
 256 13 243 0 216 0 c 2
 142 0 l 2
 115 0 102 13 102 40 c 2
 102 369 l 1
 70 369 l 2
 43 369 30 382 30 408 c 2
 30 466 l 2
 30 492 43 505 70 505 c 2
 102 505 l 1
 102 674 l 2
 102 750 160 794 227 794 c 2
EndSplineSet
Ligature2: "'liga' Standard Ligatures in Latin lookup 1 subtable" f i
EndChar

StartChar: fl
Encoding: 64258 64258 248
Width: 520
Flags: MW
HStem: 0 21G<128.5 142 142 216 362.5 376 376 450> 369 136<56.5 102 70 102 256 261> 658 136<284 298 298 336>
VStem: 102 154<40 369 505 616> 336 154<40 658 658 658>
LayerCount: 2
Fore
SplineSet
261 369 m 2
 256 369 l 1
 256 40 l 2
 256 13 243 0 216 0 c 2
 142 0 l 2
 115 0 102 13 102 40 c 2
 102 369 l 1
 70 369 l 2
 43 369 30 382 30 408 c 2
 30 466 l 2
 30 492 43 505 70 505 c 2
 102 505 l 1
 102 674 l 2
 102 750 160 794 227 794 c 2
 453 794 l 2
 478 794 490 781 490 754 c 2
 490 40 l 2
 490 13 477 0 450 0 c 2
 376 0 l 2
 349 0 336 13 336 40 c 2
 336 658 l 1
 298 658 l 2
 270 658 256 644 256 616 c 2
 256 505 l 1
 261 505 l 2
 288 505 301 492 301 465 c 2
 301 409 l 2
 301 382 288 369 261 369 c 2
EndSplineSet
Ligature2: "'liga' Standard Ligatures in Latin lookup 2 subtable" f l
EndChar

StartChar: daggerdbl
Encoding: 8225 8225 249
Width: 479
Flags: MW
HStem: -217 21G<198.5 212 212 266> 35 136<37.5 172 51 172 306 428 51 306> 437 136<37 172 51 172 51 172 306 427 51 306> 805 20G<212 267 267 280>
VStem: 172 134<-177 35 171 437 573 784>
LayerCount: 2
Fore
SplineSet
212 825 m 2
 267 825 l 2
 293 825 306 811 306 784 c 2
 306 573 l 1
 428 573 l 2
 455 573 468 560 468 533 c 2
 468 477 l 2
 468 450 454 437 427 437 c 2
 306 437 l 1
 306 171 l 1
 428 171 l 2
 455 171 468 157 468 130 c 2
 468 75 l 2
 468 48 455 35 428 35 c 2
 306 35 l 1
 306 -177 l 2
 306 -204 293 -217 266 -217 c 2
 212 -217 l 2
 185 -217 172 -204 172 -177 c 2
 172 35 l 1
 51 35 l 2
 24 35 11 48 11 74 c 2
 11 131 l 2
 11 158 24 171 51 171 c 2
 172 171 l 1
 172 437 l 1
 50 437 l 2
 24 437 11 450 11 476 c 2
 11 533 l 2
 11 560 24 573 51 573 c 2
 172 573 l 1
 172 785 l 2
 172 812 185 825 212 825 c 2
EndSplineSet
EndChar

StartChar: periodcentered
Encoding: 183 183 250
Width: 221
Flags: MW
HStem: 276 141<56.5 155 66 155>
VStem: 30 161<313 381 303 391>
LayerCount: 2
Fore
SplineSet
30 313 m 2
 30 381 l 2
 30 401 47 417 66 417 c 2
 155 417 l 2
 174 417 191 401 191 381 c 2
 191 313 l 2
 191 293 174 276 155 276 c 2
 66 276 l 2
 47 276 30 293 30 313 c 2
EndSplineSet
EndChar

StartChar: quotesinglbase
Encoding: 8218 8218 251
Width: 211
Flags: MW
HStem: -182 21G<38 80 38 38> 0 141<46.5 145 56 93 56 181>
VStem: 20 161<37 105 0 115>
LayerCount: 2
Fore
SplineSet
20 37 m 2
 20 105 l 2
 20 125 37 141 56 141 c 2
 145 141 l 2
 164 141 181 125 181 105 c 2
 181 0 l 1
 116 -145 l 2
 107 -164 99 -182 80 -182 c 2
 38 -182 l 1
 93 0 l 1
 56 0 l 2
 37 0 20 17 20 37 c 2
EndSplineSet
EndChar

StartChar: quotedblbase
Encoding: 8222 8222 252
Width: 404
Flags: MW
HStem: -182 21G<38 80 38 38 241 241 241 283> 0 141<46.5 145 56 93 56 181 56 259 259 296>
VStem: 20 161<37 105 0 115> 223 161<37 105 0 115>
LayerCount: 2
Fore
SplineSet
56 141 m 2
 145 141 l 2
 164 141 181 125 181 105 c 2
 181 0 l 1
 116 -145 l 2
 107 -166 99 -182 80 -182 c 2
 38 -182 l 1
 93 0 l 1
 56 0 l 2
 37 0 20 17 20 37 c 2
 20 105 l 2
 20 125 37 141 56 141 c 2
259 141 m 2
 348 141 l 2
 367 141 384 125 384 105 c 2
 384 0 l 1
 319 -145 l 2
 311 -164 302 -182 283 -182 c 2
 241 -182 l 1
 296 0 l 1
 259 0 l 2
 240 0 223 17 223 37 c 2
 223 105 l 2
 223 125 240 141 259 141 c 2
EndSplineSet
EndChar

StartChar: perthousand
Encoding: 8240 8240 253
Width: 861
Flags: MW
HStem: 0 87<369.5 446 441 446 446 453.5 441 501 701 706 706 713.5> 225 88<433 441 441 446 692.5 701 701 706> 702 20G<97 210 210 228 450 523 523 536.5>
VStem: 39 94<511.5 521 521 611 511.5 663> 175 94<521 611 611 619.5> 328 94<100.5 109 109 203> 464 94<109 203 203 211> 588 94<100.5 109 109 203> 724 94<109 203 203 211>
LayerCount: 2
Fore
SplineSet
46 40 m 2
 399 682 l 2
 412 706 423 722 450 722 c 2
 523 722 l 2
 550 722 565 706 552 682 c 2
 200 40 l 2
 187 16 175 0 148 0 c 2
 74 0 l 2
 47 0 33 16 46 40 c 2
645 313 m 2
 760 313 l 2
 795 313 818 290 818 255 c 2
 818 59 l 2
 818 24 796 0 761 0 c 2
 648 0 l 2
 611 0 588 23 588 59 c 2
 588 254 l 2
 588 287 610 313 645 313 c 2
97 722 m 2
 210 722 l 2
 246 722 269 698 269 663 c 2
 269 510 l 2
 269 455 217 409 164 409 c 2
 97 409 l 2
 62 409 39 432 39 467 c 2
 39 663 l 2
 39 698 62 722 97 722 c 2
433 313 m 2
 500 313 l 2
 535 313 558 290 558 255 c 2
 558 59 l 2
 558 24 536 0 501 0 c 2
 388 0 l 2
 351 0 328 23 328 59 c 2
 328 212 l 2
 328 267 380 313 433 313 c 2
446 225 m 2
 441 225 l 2
 424 225 422 219 422 203 c 2
 422 109 l 2
 422 92 424 87 441 87 c 2
 446 87 l 2
 461 87 464 92 464 109 c 2
 464 203 l 2
 464 219 461 225 446 225 c 2
706 225 m 2
 701 225 l 2
 684 225 682 219 682 203 c 2
 682 109 l 2
 682 92 684 87 701 87 c 2
 706 87 l 2
 721 87 724 92 724 109 c 2
 724 203 l 2
 724 219 721 225 706 225 c 2
155 635 m 2
 154 635 l 2
 135 635 133 628 133 611 c 2
 133 521 l 2
 133 502 135 497 154 497 c 2
 155 497 l 2
 171 497 175 502 175 521 c 2
 175 611 l 2
 175 628 171 635 155 635 c 2
EndSplineSet
Ligature2: "Ligature Substitution lookup 4 subtable" zero fraction zero zero
Ligature2: "Ligature Substitution lookup 4 subtable" zero slash zero zero
EndChar

StartChar: numbersign
Encoding: 35 35 254
Width: 635
Flags: MW
HStem: 0 21G<25.5 39 39 100 307.5 321 321 382> 153 136<-1.5 84 29 44 225 326 29 185 507 524> 433 136<80.5 167 111 127 111 268 308 409 589 606> 702 20G<251 312 312 325.5 533 594 594 607.5>
LayerCount: 2
Fore
SplineSet
251 722 m 2
 312 722 l 2
 339 722 349 709 341 682 c 2
 308 569 l 1
 449 569 l 1
 482 682 l 1
 491 709 508 722 533 722 c 2
 594 722 l 2
 621 722 631 709 623 682 c 2
 589 569 l 1
 623 569 l 2
 650 569 671 554 663 529 c 2
 646 473 l 2
 638 448 633 433 606 433 c 2
 549 433 l 1
 507 289 l 1
 540 289 l 2
 567 289 587 274 580 249 c 2
 564 193 l 2
 557 168 551 153 524 153 c 2
 467 153 l 1
 434 40 l 2
 427 13 409 0 382 0 c 2
 321 0 l 2
 294 0 285 13 293 40 c 2
 326 153 l 1
 185 153 l 1
 152 40 l 2
 144 13 127 0 100 0 c 2
 39 0 l 2
 12 0 3 13 11 40 c 2
 44 153 l 1
 12 153 l 2
 -15 153 -36 168 -28 193 c 2
 -11 249 l 2
 -3 274 2 289 29 289 c 2
 84 289 l 1
 127 433 l 1
 94 433 l 2
 67 433 46 448 54 473 c 2
 71 529 l 2
 79 554 84 569 111 569 c 2
 167 569 l 1
 200 682 l 2
 207 709 224 722 251 722 c 2
409 433 m 1
 268 433 l 1
 225 289 l 1
 366 289 l 1
 409 433 l 1
EndSplineSet
EndChar

StartChar: Zdotaccent
Encoding: 379 379 255
Width: 419
Flags: MW
HStem: 0 136<46.5 359 157 359 157 359> 586 136<46.5 359 60 261> 758 123<163 244 175 244>
VStem: 139 141<794 847 782 858.5>
LayerCount: 2
Fore
SplineSet
60 722 m 2
 359 722 l 2
 386 722 399 709 399 682 c 2
 399 544 l 2
 399 537 397 529 392 522 c 2
 157 136 l 1
 359 136 l 2
 386 136 399 123 399 96 c 2
 399 40 l 2
 399 13 386 0 359 0 c 2
 60 0 l 2
 33 0 20 13 20 40 c 2
 20 177 l 2
 20 182 22 191 25 196 c 2
 261 586 l 1
 60 586 l 2
 33 586 20 599 20 626 c 2
 20 682 l 2
 20 709 33 722 60 722 c 2
139 794 m 2
 139 847 l 2
 139 870 151 881 175 881 c 2
 244 881 l 2
 268 881 280 870 280 847 c 2
 280 794 l 2
 280 770 268 758 244 758 c 2
 175 758 l 2
 151 758 139 770 139 794 c 2
EndSplineSet
Position2: "'cpsp' Capital Spacing in Latin lookup 0 subtable" dx=7 dy=0 dh=14 dv=0
EndChar

StartChar: Itilde
Encoding: 296 296 256
Width: 254
Flags: MW
HStem: 0 21G<76.5 90 90 164> 702 20G<90 164 164 177.5>
VStem: 50 154<40 682>
LayerCount: 2
Fore
SplineSet
50 40 m 2
 50 682 l 2
 50 709 63 722 90 722 c 2
 164 722 l 2
 191 722 204 709 204 682 c 2
 204 40 l 2
 204 13 191 0 164 0 c 2
 90 0 l 2
 63 0 50 13 50 40 c 2
-41 797 m 2
 -16 838 l 2
 9 879 77 888 149 852 c 2
 161 846 l 2
 177 838 183 835 191 846 c 2
 197 854 l 2
 206 867 211 870 223 870 c 2
 282 870 l 2
 297 870 304 858 295 843 c 2
 270 801 l 2
 245 758 177 753 105 788 c 2
 91 795 l 2
 76 802 70 804 63 793 c 1
 57 785 l 2
 48 773 43 769 31 769 c 2
 -29 769 l 2
 -42 769 -49 782 -41 797 c 2
EndSplineSet
EndChar

StartChar: Iogonek
Encoding: 302 302 257
Width: 254
Flags: MW
HStem: -217 72<66.5 183 134 183 183 184> 702 20G<90 164 164 177.5>
VStem: 50 154<40 682>
LayerCount: 2
Fore
SplineSet
38 -105 m 2
 83 0 l 1
 61 2 50 15 50 40 c 2
 50 682 l 2
 50 709 63 722 90 722 c 2
 164 722 l 2
 191 722 204 709 204 682 c 2
 204 40 l 2
 204 15 192 1 167 0 c 1
 117 -113 l 2
 109 -130 115 -145 134 -145 c 2
 183 -145 l 2
 198 -145 208 -151 208 -166 c 2
 208 -197 l 2
 208 -210 196 -217 184 -217 c 2
 92 -217 l 2
 41 -217 16 -154 38 -105 c 2
EndSplineSet
Position2: "'cpsp' Capital Spacing in Latin lookup 0 subtable" dx=7 dy=0 dh=14 dv=0
EndChar

StartChar: Imacron
Encoding: 298 298 258
Width: 254
Flags: MW
HStem: 0 21G<76.5 90 90 164> 702 20G<90 164 164 177.5> 780 101<4.5 236 18 236>
VStem: 50 154<40 682>
LayerCount: 2
Fore
SplineSet
50 40 m 2
 50 682 l 2
 50 709 63 722 90 722 c 2
 164 722 l 2
 191 722 204 709 204 682 c 2
 204 40 l 2
 204 13 191 0 164 0 c 2
 90 0 l 2
 63 0 50 13 50 40 c 2
-22 820 m 2
 -22 841 l 2
 -22 868 -9 881 18 881 c 2
 236 881 l 2
 263 881 276 868 276 841 c 2
 276 820 l 2
 276 793 263 780 236 780 c 2
 18 780 l 2
 -9 780 -22 793 -22 820 c 2
EndSplineSet
Position2: "'cpsp' Capital Spacing in Latin lookup 0 subtable" dx=7 dy=0 dh=14 dv=0
EndChar

StartChar: IJ
Encoding: 306 306 259
Width: 584
Flags: MW
HStem: 0 136<90 322 260.5 322 274 322 322 339.5 274 412> 702 20G<90 164 164 177.5 414 488 488 501.5>
VStem: 50 154<40 682> 374 154<188 682>
LayerCount: 2
Fore
SplineSet
374 188 m 2
 374 682 l 2
 374 709 387 722 414 722 c 2
 488 722 l 2
 515 722 528 709 528 682 c 2
 528 116 l 2
 528 47 481 0 412 0 c 2
 274 0 l 2
 247 0 234 13 234 40 c 2
 234 96 l 2
 234 123 247 136 274 136 c 2
 322 136 l 2
 357 136 374 153 374 188 c 2
50 40 m 2
 50 682 l 2
 50 709 63 722 90 722 c 2
 164 722 l 2
 191 722 204 709 204 682 c 2
 204 40 l 2
 204 13 191 0 164 0 c 2
 90 0 l 2
 63 0 50 13 50 40 c 2
EndSplineSet
EndChar

StartChar: Igrave
Encoding: 204 204 260
Width: 254
Flags: MW
HStem: 0 21G<76.5 90 90 164> 702 20G<90 164 164 177.5>
VStem: 50 154<40 682>
LayerCount: 2
Fore
SplineSet
50 40 m 2
 50 682 l 2
 50 709 63 722 90 722 c 2
 164 722 l 2
 191 722 204 709 204 682 c 2
 204 40 l 2
 204 13 191 0 164 0 c 2
 90 0 l 2
 63 0 50 13 50 40 c 2
-3 820 m 2
 19 877 l 2
 24 890 34 893 47 886 c 2
 188 815 l 2
 196 811 205 800 201 789 c 2
 191 763 l 2
 186 751 178 747 165 751 c 2
 12 793 l 2
 -3 798 -8 807 -3 820 c 2
EndSplineSet
Position2: "'cpsp' Capital Spacing in Latin lookup 0 subtable" dx=7 dy=0 dh=14 dv=0
EndChar

StartChar: Idotaccent
Encoding: 304 304 261
Width: 254
Flags: MW
HStem: 0 21G<76.5 90 90 164> 702 20G<90 164 164 177.5> 758 123<81 162 93 162>
VStem: 50 154<40 682>
LayerCount: 2
Fore
SplineSet
50 40 m 2
 50 682 l 2
 50 709 63 722 90 722 c 2
 164 722 l 2
 191 722 204 709 204 682 c 2
 204 40 l 2
 204 13 191 0 164 0 c 2
 90 0 l 2
 63 0 50 13 50 40 c 2
57 794 m 2
 57 847 l 2
 57 870 69 881 93 881 c 2
 162 881 l 2
 186 881 198 870 198 847 c 2
 198 794 l 2
 198 770 186 758 162 758 c 2
 93 758 l 2
 69 758 57 770 57 794 c 2
EndSplineSet
EndChar

StartChar: Idieresis
Encoding: 207 207 262
Width: 254
Flags: MW
HStem: 0 21G<76.5 90 90 164> 702 20G<90 164 164 177.5> 759 123<-32 49 -20 49 205 274>
VStem: -56 141<795 848 783 859.5> 50 154<40 682> 169 141<795 848 783 859.5>
LayerCount: 2
Fore
SplineSet
50 40 m 2xe8
 50 682 l 2
 50 709 63 722 90 722 c 2
 164 722 l 2
 191 722 204 709 204 682 c 2
 204 40 l 2
 204 13 191 0 164 0 c 2
 90 0 l 2
 63 0 50 13 50 40 c 2xe8
169 795 m 2xf4
 169 848 l 2
 169 871 181 882 205 882 c 2
 274 882 l 2
 298 882 310 871 310 848 c 2
 310 795 l 2
 310 771 298 759 274 759 c 2
 205 759 l 2
 181 759 169 771 169 795 c 2xf4
-56 795 m 2
 -56 848 l 2
 -56 871 -44 882 -20 882 c 2
 49 882 l 2
 73 882 85 871 85 848 c 2
 85 795 l 2
 85 771 73 759 49 759 c 2
 -20 759 l 2
 -44 759 -56 771 -56 795 c 2
EndSplineSet
Position2: "'cpsp' Capital Spacing in Latin lookup 0 subtable" dx=7 dy=0 dh=14 dv=0
EndChar

StartChar: Icircumflex
Encoding: 206 206 263
Width: 254
Flags: MW
HStem: 0 21G<76.5 90 90 164> 702 20G<90 164 164 177.5> 872 20G<116 140 140 147.5>
VStem: 50 154<40 682>
LayerCount: 2
Fore
SplineSet
50 40 m 2
 50 682 l 2
 50 709 63 722 90 722 c 2
 164 722 l 2
 191 722 204 709 204 682 c 2
 204 40 l 2
 204 13 191 0 164 0 c 2
 90 0 l 2
 63 0 50 13 50 40 c 2
116 892 m 2
 140 892 l 2
 155 892 162 886 170 881 c 2
 264 820 l 2
 272 815 270 804 265 797 c 2
 243 762 l 2
 236 751 227 755 216 760 c 2
 127 801 l 1
 38 760 l 2
 29 756 18 751 11 762 c 2
 -12 798 l 2
 -16 805 -18 815 -10 820 c 2
 84 881 l 2
 89 884 101 892 116 892 c 2
EndSplineSet
Position2: "'cpsp' Capital Spacing in Latin lookup 0 subtable" dx=7 dy=0 dh=14 dv=0
EndChar

StartChar: Ibreve
Encoding: 300 300 264
Width: 254
Flags: MW
HStem: 0 21G<76.5 90 90 164> 702 20G<90 164 164 177.5> 750 77<112.5 141 112.5 169.5> 750 113<7 169.5>
VStem: 50 154<40 682>
LayerCount: 2
Fore
SplineSet
50 40 m 2xd8
 50 682 l 2
 50 709 63 722 90 722 c 2
 164 722 l 2
 191 722 204 709 204 682 c 2
 204 40 l 2
 204 13 191 0 164 0 c 2
 90 0 l 2
 63 0 50 13 50 40 c 2xd8
7 863 m 2
 60 863 l 2xd8
 71 863 75 857 76 853 c 0
 81 836 98 827 127 827 c 0xe8
 155 827 175 837 179 853 c 0
 180 857 185 863 194 863 c 2
 247 863 l 2
 257 863 262 858 262 847 c 0
 262 804 212 750 127 750 c 0
 46 750 -8 803 -8 846 c 0
 -8 857 -3 863 7 863 c 2
EndSplineSet
EndChar

StartChar: Iacute
Encoding: 205 205 265
Width: 254
Flags: MW
HStem: 0 21G<76.5 90 90 164> 702 20G<90 164 164 177.5>
VStem: 50 154<40 682>
LayerCount: 2
Fore
SplineSet
50 40 m 2
 50 682 l 2
 50 709 63 722 90 722 c 2
 164 722 l 2
 191 722 204 709 204 682 c 2
 204 40 l 2
 204 13 191 0 164 0 c 2
 90 0 l 2
 63 0 50 13 50 40 c 2
65 815 m 2
 206 886 l 2
 220 893 229 890 234 877 c 2
 256 820 l 2
 261 807 256 798 241 793 c 2
 88 751 l 1
 75 746 66 750 62 763 c 1
 51 790 l 2
 47 799 53 808 65 815 c 2
EndSplineSet
Position2: "'cpsp' Capital Spacing in Latin lookup 0 subtable" dx=7 dy=0 dh=14 dv=0
EndChar

StartChar: iogonek
Encoding: 303 303 266
Width: 248
Flags: MW
HStem: -217 72<64.5 181 132 181 181 182> 485 20G<87 161 161 174.5> 601 141<70.5 164 84 164>
VStem: 47 154<40 465>
LayerCount: 2
Fore
SplineSet
36 -105 m 2
 81 0 l 1
 58 2 47 15 47 40 c 2
 47 465 l 2
 47 492 60 505 87 505 c 2
 161 505 l 2
 188 505 201 492 201 465 c 2
 201 40 l 2
 201 15 189 1 165 0 c 1
 115 -113 l 2
 107 -130 113 -145 132 -145 c 2
 181 -145 l 2
 196 -145 206 -151 206 -166 c 2
 206 -197 l 2
 206 -210 194 -217 182 -217 c 2
 90 -217 l 2
 39 -217 14 -154 36 -105 c 2
44 641 m 2
 44 702 l 2
 44 729 57 742 84 742 c 2
 164 742 l 2
 191 742 204 729 204 702 c 2
 204 641 l 2
 204 614 191 601 164 601 c 2
 84 601 l 2
 57 601 44 614 44 641 c 2
EndSplineSet
EndChar

StartChar: ij
Encoding: 307 307 267
Width: 476
Flags: MW
HStem: -217 21G<230.5 244 244 304> -20 20G<73.5 87 87 161> 485 20G<87 161 161 174.5 317 391 391 404.5> 601 141<70.5 164 84 164 84 314 314 394>
VStem: 47 154<40 465> 204 227<-134.5 -121 -121 -107.5> 277 154<-45 465>
LayerCount: 2
Fore
SplineSet
277 -45 m 2xfa
 277 465 l 2xfa
 277 492 290 505 317 505 c 2
 391 505 l 2
 418 505 431 492 431 465 c 2
 431 -100 l 2
 431 -169 374 -217 304 -217 c 2
 244 -217 l 2
 217 -217 204 -204 204 -177 c 2
 204 -121 l 2xfc
 204 -94 217 -81 240 -81 c 2
 242 -81 l 2
 261 -81 277 -65 277 -45 c 2xfa
47 40 m 2
 47 465 l 2
 47 492 60 505 87 505 c 2
 161 505 l 2
 188 505 201 492 201 465 c 2
 201 40 l 2
 201 13 188 0 161 0 c 2
 87 0 l 2
 60 0 47 13 47 40 c 2
274 641 m 2
 274 702 l 2
 274 729 287 742 314 742 c 2
 394 742 l 2
 421 742 434 729 434 702 c 2
 434 641 l 2
 434 614 421 601 394 601 c 2
 314 601 l 2
 287 601 274 614 274 641 c 2
44 641 m 2
 44 702 l 2
 44 729 57 742 84 742 c 2
 164 742 l 2
 191 742 204 729 204 702 c 2
 204 641 l 2xfc
 204 614 191 601 164 601 c 2
 84 601 l 2
 57 601 44 614 44 641 c 2
EndSplineSet
EndChar

